{
.appVersion = "1286";
classes = (
{
automatic = 1;
code = "N T V Y R K L B S I U X Z A O Q OE AE Adieresis Edieresis Idieresis Odieresis Udieresis Eth Lslash Ydieresis Agrave Aacute Egrave Eacute Igrave Iacute Ograve Oacute Oslash Ugrave Uacute Yacute Acircumflex Ecircumflex Icircumflex Ocircumflex Ucircumflex Zcaron Scaron Ccedilla Ntilde Otilde Atilde Aring Thorn E F H J C D G M W P Abreve Amacron Aogonek Cacute Ccaron Cdotaccent Dcaron Dcroat Ecaron Edotaccent Emacron Eogonek Gbreve Gcommaaccent Gdotaccent Hbar Idotaccent Imacron Iogonek Kcommaaccent Lacute Lcaron Lcommaaccent Nacute Ncaron Ncommaaccent Eng Ohungarumlaut Omacron Racute Rcaron Rcommaaccent Sacute Scedilla Scommaaccent Tbar Tcaron Uhungarumlaut Umacron Uogonek Uring Wacute Wcircumflex Wdieresis Wgrave Ycircumflex Ygrave Zacute Zdotaccent Abreveacute Abrevedotbelow Abrevegrave Abrevehookabove Abrevetilde Acircumflexacute Acircumflexdotbelow Acircumflexgrave Acircumflexhookabove Acircumflextilde Adotbelow Ahookabove Ecircumflexacute Ecircumflexdotbelow Ecircumflexgrave Ecircumflexhookabove Ecircumflextilde Edotbelow Ehookabove Etilde Idotbelow Ihookabove Itilde Ldot Ocircumflexacute Ocircumflexdotbelow Ocircumflexgrave Ocircumflexhookabove Ocircumflextilde Odotbelow Ohookabove Ohorn Ohornacute Ohorndotbelow Ohorngrave Ohornhookabove Ohorntilde Germandbls Tcedilla Tcommaaccent Udotbelow Uhookabove Uhorn Uhornacute Uhorndotbelow Uhorngrave Uhornhookabove Uhorntilde Utilde Ydotbelow Yhookabove Ytilde Iacute_J.loclNLD G.ss01 M.ss01 Q.ss01 T.ss01 W.ss01 Germandbls.ss02 A.ss03 B.ss03 C.ss03 D.ss03 E.ss03 F.ss03 G.ss03 H.ss03 I.ss03 J.ss03 K.ss03 L.ss03 M.ss03 N.ss03 O.ss03 P.ss03 Q.ss03 R.ss03 S.ss03 T.ss03 U.ss03 V.ss03 W.ss03 X.ss03 Y.ss03 Z.ss03";
name = Uppercase;
}
);
copyright = "Sébastien Hayez, 2018";
customParameters = (
{
name = trademark;
value = "Sébastien Hayez - www.sebastienhayez.fr";
},
{
name = licenseURL;
value = "http://scripts.sil.org/OFL";
},
{
name = license;

glyphs = (
{
glyphname = N;
lastChange = "2020-03-09 09:03:56 +0000";
layers = (
{
anchors = (
{
name = bottom;
position = "{798, 0}";
},
{
name = top;
position = "{798, 675}";
}
);
layerId = "543A10D7-AEBA-4506-A699-AAC0E38B8B94";
paths = (
{
closed = 1;
nodes = (
"75 0 OFFCURVE",
"154 18 OFFCURVE",
"191 18 CURVE SMOOTH",
"233 18 OFFCURVE",
"225 18 OFFCURVE",
"304 0 CURVE",
"304 12 LINE",
"255 19 OFFCURVE",
"237 34 OFFCURVE",
"237 57 CURVE SMOOTH",
"237 87 OFFCURVE",
"267 131 OFFCURVE",
"299 191 CURVE SMOOTH",
"566 724 LINE",
"972 0 LINE",
"1022 0 LINE",
"1315 554 LINE SMOOTH",
"1369 652 OFFCURVE",
"1412 738 OFFCURVE",
"1523 755 CURVE",
"1523 767 LINE",
"1520 767 OFFCURVE",
"1441 749 OFFCURVE",
"1404 749 CURVE SMOOTH",
"1362 749 OFFCURVE",
"1370 749 OFFCURVE",
"1291 767 CURVE",
"1291 755 LINE",
"1340 748 OFFCURVE",
"1358 730 OFFCURVE",
"1358 703 CURVE SMOOTH",
"1358 669 OFFCURVE",
"1328 620 OFFCURVE",
"1296 560 CURVE SMOOTH",
"1017 31 LINE",
"586 806 LINE",
"280 197 LINE",
"226 99 OFFCURVE",
"183 29 OFFCURVE",
"72 12 CURVE",
"72 0 LINE"
);
}
);
width = 1595;
}
);
leftKerningGroup = N;
note = N;
rightKerningGroup = N;
unicode = 004E;
},
{
glyphname = T;
lastChange = "2020-03-08 13:28:25 +0000";
layers = (
{
anchors = (
{
name = bottom;
position = "{501, 0}";
},
{
name = center;
position = "{501, 338}";
},
{
name = top;
position = "{501, 675}";
}
);
layerId = "543A10D7-AEBA-4506-A699-AAC0E38B8B94";
paths = (
{
closed = 1;
nodes = (
"426 -799 OFFCURVE",
"448 -799 OFFCURVE",
"490 -799 CURVE SMOOTH",
"527 -799 OFFCURVE",
"636 -817 OFFCURVE",
"639 -817 CURVE",
"639 -805 LINE",
"528 -788 OFFCURVE",
"527 -715 OFFCURVE",
"527 -584 CURVE SMOOTH",
"527 734 LINE",
"772 734 LINE SMOOTH",
"898 730 OFFCURVE",
"913 645 OFFCURVE",
"916 631 CURVE",
"937 488 LINE",
"949 488 LINE",
"949 491 OFFCURVE",
"931 600 OFFCURVE",
"931 637 CURVE SMOOTH",
"931 679 OFFCURVE",
"931 701 OFFCURVE",
"949 780 CURVE",
"937 780 LINE",
"930 753 OFFCURVE",
"914 749 OFFCURVE",
"891 748 CURVE",
"109 748 LINE",
"86 749 OFFCURVE",
"70 753 OFFCURVE",
"64 780 CURVE",
"52 780 LINE",
"70 701 OFFCURVE",
"70 679 OFFCURVE",
"70 637 CURVE SMOOTH",
"70 600 OFFCURVE",
"52 491 OFFCURVE",
"52 488 CURVE",
"64 488 LINE",
"85 631 LINE",
"88 645 OFFCURVE",
"103 730 OFFCURVE",
"229 734 CURVE SMOOTH",
"459 734 LINE",
"459 -586 LINE SMOOTH",
"459 -717 OFFCURVE",
"458 -788 OFFCURVE",
"347 -805 CURVE",
"347 -817 LINE"
);
}
);
width = 1001;
}
);
leftKerningGroup = T;
note = T;
rightKerningGroup = T;
unicode = 0054;
},
{
glyphname = V;
lastChange = "2020-03-09 18:00:28 +0000";
layers = (
{
anchors = (
{
name = bottom;
position = "{511, 0}";
},
{
name = top;
position = "{511, 675}";
}
);
layerId = "543A10D7-AEBA-4506-A699-AAC0E38B8B94";
paths = (
{
closed = 1;
nodes = (
"939 767 LINE",
"77 767 LINE",
"534 -40 LINE"
);
},
{
closed = 1;
nodes = (
"178 745 LINE",
"909 744 LINE",
"563 59 LINE"
);
}
);
width = 1011;
}
);
leftKerningGroup = V;
note = V;
rightKerningGroup = V;
unicode = 0056;
},
{
glyphname = Y;
lastChange = "2020-03-09 09:03:56 +0000";
layers = (
{
anchors = (
{
name = bottom;
position = "{505, 0}";
},
{
name = top;
position = "{505, 770}";
},
{
name = topleft;
position = "{20, 675}";
}
);
layerId = "543A10D7-AEBA-4506-A699-AAC0E38B8B94";
paths = (
{
closed = 1;
nodes = (
"-79 -799 OFFCURVE",
"-57 -799 OFFCURVE",
"-15 -799 CURVE SMOOTH",
"22 -799 OFFCURVE",
"131 -817 OFFCURVE",
"134 -817 CURVE",
"134 -805 LINE",
"85 -797 OFFCURVE",
"66 -776 OFFCURVE",
"66 -745 CURVE SMOOTH",
"66 -705 OFFCURVE",
"95 -651 OFFCURVE",
"131 -589 CURVE SMOOTH",
"932 770 LINE",
"70 770 LINE",
"442 64 LINE",
"445 64 OFFCURVE",
"217 -330 OFFCURVE",
"68 -586 CURVE",
"-3 -698 OFFCURVE",
"-47 -788 OFFCURVE",
"-158 -805 CURVE",
"-158 -817 LINE"
);
},
{
closed = 1;
nodes = (
"100 747 LINE",
"852 748 LINE",
"455 82 LINE"
);
}
);
width = 1009;
}
);
leftKerningGroup = Y;
note = Y;
rightKerningGroup = Y;
unicode = 0059;
},
{
glyphname = R;
lastChange = "2020-03-09 09:03:56 +0000";
layers = (
{
anchors = (
{
name = bottom;
position = "{487, 0}";
},
{
name = top;
position = "{487, 675}";
}
);
layerId = "543A10D7-AEBA-4506-A699-AAC0E38B8B94";
paths = (
{
closed = 1;
nodes = (
"131 -798 OFFCURVE",
"153 -798 OFFCURVE",
"195 -798 CURVE SMOOTH",
"232 -798 OFFCURVE",
"341 -816 OFFCURVE",
"344 -816 CURVE",
"344 -804 LINE",
"233 -787 OFFCURVE",
"232 -714 OFFCURVE",
"232 -583 CURVE SMOOTH",
"232 532 LINE SMOOTH",
"232 621 OFFCURVE",
"232 683 OFFCURVE",
"268 719 CURVE",
"313 749 OFFCURVE",
"367 762 OFFCURVE",
"423 762 CURVE SMOOTH",
"554 762 OFFCURVE",
"696 692 OFFCURVE",
"762 600 CURVE SMOOTH",
"809 534 OFFCURVE",
"833 449 OFFCURVE",
"833 365 CURVE SMOOTH",
"833 259 OFFCURVE",
"794 156 OFFCURVE",
"710 96 CURVE SMOOTH",
"666 64 OFFCURVE",
"605 44 OFFCURVE",
"540 35 CURVE",
"944 -607 LINE SMOOTH",
"987 -679 OFFCURVE",
"1029 -740 OFFCURVE",
"1029 -774 CURVE SMOOTH",
"1029 -789 OFFCURVE",
"1020 -799 OFFCURVE",
"999 -802 CURVE",
"999 -814 LINE",
"1078 -796 OFFCURVE",
"1090 -796 OFFCURVE",
"1132 -796 CURVE SMOOTH",
"1169 -796 OFFCURVE",
"1288 -814 OFFCURVE",
"1291 -814 CURVE",
"1291 -802 LINE",
"1180 -785 OFFCURVE",
"1088 -696 OFFCURVE",
"1023 -601 CURVE",
"627 31 LINE",
"661 44 OFFCURVE",
"693 60 OFFCURVE",
"721 80 CURVE SMOOTH",
"828 156 OFFCURVE",
"889 281 OFFCURVE",
"889 409 CURVE SMOOTH",
"889 488 OFFCURVE",
"866 568 OFFCURVE",
"816 638 CURVE SMOOTH",
"742 742 OFFCURVE",
"621 805 OFFCURVE",
"496 805 CURVE SMOOTH",
"344 805 OFFCURVE",
"295 747 OFFCURVE",
"195 747 CURVE SMOOTH",
"153 747 OFFCURVE",
"131 747 OFFCURVE",
"52 765 CURVE",
"52 753 LINE",
"163 736 OFFCURVE",
"164 665 OFFCURVE",
"164 534 CURVE SMOOTH",
"164 -585 LINE SMOOTH",
"164 -716 OFFCURVE",
"163 -787 OFFCURVE",
"52 -804 CURVE",
"52 -816 LINE"
);
}
);
width = 973;
}
);
leftKerningGroup = R;
note = R;
rightKerningGroup = R;
unicode = 0052;
},
{
glyphname = K;
lastChange = "2020-03-09 09:03:56 +0000";
layers = (
{
anchors = (
{
name = bottom;
position = "{517, 0}";
},
{
name = top;
position = "{517, 675}";
}
);
layerId = "543A10D7-AEBA-4506-A699-AAC0E38B8B94";
paths = (
{
closed = 1;
nodes = (
"131 18 OFFCURVE",
"153 18 OFFCURVE",
"195 18 CURVE SMOOTH",
"232 18 OFFCURVE",
"331 0 OFFCURVE",
"334 0 CURVE",
"334 12 LINE",
"236 27 OFFCURVE",
"232 85 OFFCURVE",
"232 189 CURVE SMOOTH",
"232 199 OFFCURVE",
"232 209 OFFCURVE",
"232 220 CURVE",
"408 361 LINE",
"574 197 LINE SMOOTH",
"647 130 OFFCURVE",
"717 75 OFFCURVE",
"717 42 CURVE SMOOTH",
"717 28 OFFCURVE",
"703 17 OFFCURVE",
"669 12 CURVE",
"669 0 LINE",
"748 18 OFFCURVE",
"760 18 OFFCURVE",
"802 18 CURVE SMOOTH",
"839 18 OFFCURVE",
"958 0 OFFCURVE",
"961 0 CURVE",
"961 12 LINE",
"850 29 OFFCURVE",
"763 100 OFFCURVE",
"653 203 CURVE SMOOTH",
"448 393 LINE",
"624 534 LINE",
"711 598 OFFCURVE",
"829 725 OFFCURVE",
"940 742 CURVE",
"940 754 LINE",
"937 754 OFFCURVE",
"858 736 OFFCURVE",
"821 736 CURVE SMOOTH",
"779 736 OFFCURVE",
"787 736 OFFCURVE",
"708 754 CURVE",
"708 742 LINE",
"741 737 OFFCURVE",
"754 725 OFFCURVE",
"754 710 CURVE SMOOTH",
"754 672 OFFCURVE",
"679 611 OFFCURVE",
"613 558 CURVE SMOOTH",
"232 255 LINE",
"232 532 LINE SMOOTH",
"232 550 OFFCURVE",
"232 567 OFFCURVE",
"232 583 CURVE SMOOTH",
"232 682 OFFCURVE",
"238 735 OFFCURVE",
"334 750 CURVE",
"334 762 LINE",
"331 762 OFFCURVE",
"232 744 OFFCURVE",
"195 744 CURVE SMOOTH",
"153 744 OFFCURVE",
"131 744 OFFCURVE",
"52 762 CURVE",
"52 750 LINE",
"163 733 OFFCURVE",
"164 665 OFFCURVE",
"164 534 CURVE SMOOTH",
"164 234 LINE SMOOTH",
"164 100 OFFCURVE",
"163 29 OFFCURVE",
"52 12 CURVE",
"52 0 LINE"
);
}
);
width = 1033;
}
);
leftKerningGroup = K;
note = K;
rightKerningGroup = K;
unicode = 004B;
},
{
glyphname = L;
lastChange = "2020-03-09 09:17:56 +0000";
layers = (
{
anchors = (
{
name = bottom;
position = "{491, 0}";
},
{
name = center;
position = "{491, 338}";
},
{
name = top;
position = "{491, 675}";
},
{
name = topright;
position = "{861, 575}";
}
);
layerId = "543A10D7-AEBA-4506-A699-AAC0E38B8B94";
paths = (
{
closed = 1;
nodes = (
"919 -92 LINE",
"901 -13 OFFCURVE",
"901 9 OFFCURVE",
"901 51 CURVE SMOOTH",
"901 88 OFFCURVE",
"919 197 OFFCURVE",
"919 200 CURVE",
"907 200 LINE",
"899 78 OFFCURVE",
"778 15 OFFCURVE",
"702 15 CURVE SMOOTH",
"256 15 LINE",
"257 532 LINE SMOOTH",
"257 663 OFFCURVE",
"258 736 OFFCURVE",
"369 753 CURVE",
"369 765 LINE",
"366 765 OFFCURVE",
"257 747 OFFCURVE",
"220 747 CURVE SMOOTH",
"178 747 OFFCURVE",
"156 747 OFFCURVE",
"77 765 CURVE",
"77 753 LINE",
"188 736 OFFCURVE",
"189 665 OFFCURVE",
"189 534 CURVE SMOOTH",
"189 234 LINE SMOOTH",
"189 103 OFFCURVE",
"188 32 OFFCURVE",
"77 15 CURVE",
"77 3 LINE",
"858 2 LINE SMOOTH",
"883 2 OFFCURVE",
"895 -42 OFFCURVE",
"907 -92 CURVE"
);
}
);
width = 981;
}
);
leftKerningGroup = K;
note = L;
rightKerningGroup = L;
unicode = 004C;
},
{
glyphname = B;
lastChange = "2020-03-09 09:03:56 +0000";
layers = (
{
anchors = (
{
name = bottom;
position = "{516, 0}";
},
{
name = top;
position = "{516, 675}";
}
);
layerId = "543A10D7-AEBA-4506-A699-AAC0E38B8B94";
paths = (
{
closed = 1;
nodes = (
"749 -832 OFFCURVE",
"949 -668 OFFCURVE",
"949 -332 CURVE SMOOTH",
"949 -314 OFFCURVE",
"948 -295 OFFCURVE",
"947 -276 CURVE SMOOTH",
"932 -58 OFFCURVE",
"778 85 OFFCURVE",
"589 115 CURVE",
"721 175 OFFCURVE",
"828 302 OFFCURVE",
"828 475 CURVE SMOOTH",
"828 644 OFFCURVE",
"640 805 OFFCURVE",
"481 805 CURVE SMOOTH",
"320 805 OFFCURVE",
"287 747 OFFCURVE",
"195 747 CURVE SMOOTH",
"153 747 OFFCURVE",
"131 747 OFFCURVE",
"52 765 CURVE",
"52 753 LINE",
"163 736 OFFCURVE",
"164 665 OFFCURVE",
"164 534 CURVE SMOOTH",
"164 -585 LINE SMOOTH",
"164 -716 OFFCURVE",
"163 -787 OFFCURVE",
"52 -804 CURVE",
"52 -816 LINE",
"131 -798 OFFCURVE",
"153 -798 OFFCURVE",
"195 -798 CURVE SMOOTH",
"297 -798 OFFCURVE",
"345 -819 OFFCURVE",
"417 -822 CURVE SMOOTH"
);
},
{
closed = 1;
nodes = (
"406 -788 OFFCURVE",
"306 -770 OFFCURVE",
"244 -731 CURVE",
"232 -695 OFFCURVE",
"232 -646 OFFCURVE",
"232 -583 CURVE SMOOTH",
"232 541 LINE SMOOTH",
"232 630 OFFCURVE",
"232 683 OFFCURVE",
"268 719 CURVE",
"312 749 OFFCURVE",
"362 762 OFFCURVE",
"411 762 CURVE SMOOTH",
"587 762 OFFCURVE",
"773 610 OFFCURVE",
"773 439 CURVE SMOOTH",
"773 251 OFFCURVE",
"644 120 OFFCURVE",
"488 120 CURVE SMOOTH",
"426 120 OFFCURVE",
"362 102 OFFCURVE",
"300 74 CURVE",
"300 74 OFFCURVE",
"267 36 OFFCURVE",
"268 35 CURVE",
"336 62 OFFCURVE",
"404 75 OFFCURVE",
"468 75 CURVE SMOOTH",
"697 75 OFFCURVE",
"883 -88 OFFCURVE",
"893 -348 CURVE SMOOTH",
"893 -360 OFFCURVE",
"894 -371 OFFCURVE",
"894 -382 CURVE SMOOTH",
"894 -660 OFFCURVE",
"772 -788 OFFCURVE",
"504 -788 CURVE SMOOTH"
);
}
);
width = 1031;
}
);
leftKerningGroup = R;
note = B;
rightKerningGroup = B;
unicode = 0042;
},
{
glyphname = S;
lastChange = "2020-03-09 09:03:56 +0000";
layers = (
{
anchors = (
{
name = bottom;
position = "{410, 0}";
},
{
name = top;
position = "{410, 675}";
}
);
layerId = "543A10D7-AEBA-4506-A699-AAC0E38B8B94";
paths = (
{
closed = 1;
nodes = (
"709 -814 OFFCURVE",
"804 -544 OFFCURVE",
"803 -366 CURVE",
"803 61 OFFCURVE",
"128 240 OFFCURVE",
"128 538 CURVE",
"135 654 OFFCURVE",
"191 760 OFFCURVE",
"310 769 CURVE SMOOTH",
"481 782 OFFCURVE",
"671 657 OFFCURVE",
"723 488 CURVE",
"735 488 LINE",
"735 491 OFFCURVE",
"717 600 OFFCURVE",
"717 637 CURVE SMOOTH",
"717 679 OFFCURVE",
"717 701 OFFCURVE",
"735 780 CURVE",
"723 780 LINE",
"716 737 OFFCURVE",
"702 705 OFFCURVE",
"678 683 CURVE",
"602 762 OFFCURVE",
"496 805 OFFCURVE",
"387 805 CURVE SMOOTH",
"206 805 OFFCURVE",
"71 707 OFFCURVE",
"71 500 CURVE SMOOTH",
"71 170 OFFCURVE",
"758 -46 OFFCURVE",
"758 -443 CURVE SMOOTH",
"758 -687 OFFCURVE",
"591 -765 OFFCURVE",
"369 -772 CURVE SMOOTH",
"244 -772 OFFCURVE",
"91 -636 OFFCURVE",
"49 -497 CURVE",
"37 -497 LINE",
"37 -500 OFFCURVE",
"55 -609 OFFCURVE",
"55 -646 CURVE SMOOTH",
"55 -688 OFFCURVE",
"55 -710 OFFCURVE",
"37 -789 CURVE",
"49 -789 LINE",
"56 -746 OFFCURVE",
"70 -714 OFFCURVE",
"94 -692 CURVE",
"168 -769 OFFCURVE",
"271 -812 OFFCURVE",
"377 -814 CURVE SMOOTH"
);
}
);
width = 820;
}
);
leftKerningGroup = S;
note = S;
rightKerningGroup = S;
unicode = 0053;
},
{
glyphname = I;
lastChange = "2020-03-08 13:28:25 +0000";
layers = (
{
anchors = (
{
name = bottom;
position = "{198, 0}";
},
{
name = ogonek;
position = "{356, 10}";
},
{
name = top;
position = "{198, 750}";
},
{
name = topleft;
position = "{20, 675}";
}
);
layerId = "543A10D7-AEBA-4506-A699-AAC0E38B8B94";
paths = (
{
closed = 1;
nodes = (
"131 18 OFFCURVE",
"153 18 OFFCURVE",
"195 18 CURVE SMOOTH",
"232 18 OFFCURVE",
"341 0 OFFCURVE",
"344 0 CURVE",
"344 12 LINE",
"233 29 OFFCURVE",
"232 102 OFFCURVE",
"232 233 CURVE SMOOTH",
"232 529 LINE SMOOTH",
"232 660 OFFCURVE",
"233 733 OFFCURVE",
"344 750 CURVE",
"344 762 LINE",
"341 762 OFFCURVE",
"232 744 OFFCURVE",
"195 744 CURVE SMOOTH",
"153 744 OFFCURVE",
"131 744 OFFCURVE",
"52 762 CURVE",
"52 750 LINE",
"163 733 OFFCURVE",
"164 662 OFFCURVE",
"164 531 CURVE SMOOTH",
"164 231 LINE SMOOTH",
"164 100 OFFCURVE",
"163 29 OFFCURVE",
"52 12 CURVE",
"52 0 LINE"
);
}
);
width = 396;
}
);
leftKerningGroup = K;
note = I;
rightKerningGroup = I;
unicode = 0049;
},
{
glyphname = U;
lastChange = "2020-03-08 13:28:25 +0000";
layers = (
{
anchors = (
{
name = bottom;
position = "{575, 0}";
},
{
name = ogonek;
position = "{1034, 10}";
},
{
name = top;
position = "{575, 750}";
},
{
name = topright;
position = "{1009, 675}";
}
);
layerId = "543A10D7-AEBA-4506-A699-AAC0E38B8B94";
paths = (
{
closed = 1;
nodes = (
"796 -12 OFFCURVE",
"949 123 OFFCURVE",
"949 400 CURVE SMOOTH",
"949 536 LINE SMOOTH",
"949 667 OFFCURVE",
"961 736 OFFCURVE",
"1072 753 CURVE",
"1072 765 LINE",
"1069 765 OFFCURVE",
"977 747 OFFCURVE",
"940 747 CURVE SMOOTH",
"898 747 OFFCURVE",
"896 747 OFFCURVE",
"817 765 CURVE",
"817 753 LINE",
"928 736 OFFCURVE",
"936 666 OFFCURVE",
"935 535 CURVE SMOOTH",
"935 400 LINE SMOOTH",
"935 157 OFFCURVE",
"813 0 OFFCURVE",
"561 0 CURVE SMOOTH",
"379 0 OFFCURVE",
"257 127 OFFCURVE",
"257 396 CURVE SMOOTH",
"257 532 LINE SMOOTH",
"257 663 OFFCURVE",
"258 736 OFFCURVE",
"369 753 CURVE",
"369 765 LINE",
"366 765 OFFCURVE",
"257 747 OFFCURVE",
"220 747 CURVE SMOOTH",
"178 747 OFFCURVE",
"156 747 OFFCURVE",
"77 765 CURVE",
"77 753 LINE",
"188 736 OFFCURVE",
"190 665 OFFCURVE",
"189 534 CURVE SMOOTH",
"188 395 LINE SMOOTH",
"188 103 OFFCURVE",
"351 -12 OFFCURVE",
"562 -12 CURVE SMOOTH"
);
}
);
width = 1149;
}
);
leftKerningGroup = U;
note = U;
rightKerningGroup = U;
unicode = 0055;
},
{
glyphname = X;
lastChange = "2020-03-09 09:03:56 +0000";
layers = (
{
anchors = (
{
name = bottom;
position = "{557, 0}";
},
{
name = top;
position = "{557, 675}";
}
);
layerId = "543A10D7-AEBA-4506-A699-AAC0E38B8B94";
paths = (
{
closed = 1;
nodes = (
"131 18 OFFCURVE",
"153 18 OFFCURVE",
"195 18 CURVE SMOOTH",
"232 18 OFFCURVE",
"341 0 OFFCURVE",
"344 0 CURVE",
"344 12 LINE",
"302 19 OFFCURVE",
"284 29 OFFCURVE",
"284 49 CURVE SMOOTH",
"284 82 OFFCURVE",
"334 137 OFFCURVE",
"412 233 CURVE SMOOTH",
"534 387 LINE",
"682 233 LINE",
"773 146 OFFCURVE",
"829 87 OFFCURVE",
"828 51 CURVE SMOOTH",
"828 31 OFFCURVE",
"810 18 OFFCURVE",
"770 12 CURVE",
"770 0 LINE",
"773 0 OFFCURVE",
"882 18 OFFCURVE",
"919 18 CURVE SMOOTH",
"961 18 OFFCURVE",
"983 18 OFFCURVE",
"1062 0 CURVE",
"1062 12 LINE",
"951 29 OFFCURVE",
"755 231 OFFCURVE",
"750 231 CURVE",
"580 408 LINE",
"680 534 LINE SMOOTH",
"683 538 OFFCURVE",
"816 728 OFFCURVE",
"1012 753 CURVE",
"1012 765 LINE",
"933 747 OFFCURVE",
"911 747 OFFCURVE",
"869 747 CURVE SMOOTH",
"832 747 OFFCURVE",
"723 765 OFFCURVE",
"720 765 CURVE",
"720 753 LINE",
"759 747 OFFCURVE",
"776 735 OFFCURVE",
"776 717 CURVE SMOOTH",
"776 683 OFFCURVE",
"721 624 OFFCURVE",
"652 532 CURVE SMOOTH",
"566 423 LINE",
"462 532 LINE",
"372 618 OFFCURVE",
"316 677 OFFCURVE",
"316 713 CURVE SMOOTH",
"316 734 OFFCURVE",
"334 747 OFFCURVE",
"374 753 CURVE",
"374 765 LINE",
"371 765 OFFCURVE",
"262 747 OFFCURVE",
"225 747 CURVE SMOOTH",
"183 747 OFFCURVE",
"161 747 OFFCURVE",
"82 765 CURVE",
"82 753 LINE",
"193 736 OFFCURVE",
"391 538 OFFCURVE",
"394 534 CURVE",
"520 402 LINE",
"384 231 LINE",
"379 231 OFFCURVE",
"236 53 OFFCURVE",
"52 12 CURVE",
"52 0 LINE"
);
}
);
width = 1114;
}
);
leftKerningGroup = X;
note = X;
rightKerningGroup = X;
unicode = 0058;
},
{
glyphname = Z;
lastChange = "2020-03-09 09:03:56 +0000";
layers = (
{
anchors = (
{
name = bottom;
position = "{567, 0}";
},
{
name = center;
position = "{567, 338}";
},
{
name = top;
position = "{567, 675}";
}
);
layerId = "543A10D7-AEBA-4506-A699-AAC0E38B8B94";
paths = (
{
closed = 1;
nodes = (
"989 -92 LINE",
"971 -13 OFFCURVE",
"971 9 OFFCURVE",
"971 51 CURVE SMOOTH",
"971 88 OFFCURVE",
"989 197 OFFCURVE",
"989 200 CURVE",
"977 200 LINE",
"969 78 OFFCURVE",
"838 14 OFFCURVE",
"762 14 CURVE SMOOTH",
"369 13 LINE SMOOTH",
"328 13 OFFCURVE",
"310 24 OFFCURVE",
"310 45 CURVE SMOOTH",
"310 81 OFFCURVE",
"368 148 OFFCURVE",
"457 233 CURVE",
"745 534 LINE",
"748 538 OFFCURVE",
"946 736 OFFCURVE",
"1057 753 CURVE",
"1057 765 LINE",
"1009 754 OFFCURVE",
"1000 748 OFFCURVE",
"943 748 CURVE SMOOTH",
"293 748 LINE SMOOTH",
"256 749 OFFCURVE",
"244 793 OFFCURVE",
"232 843 CURVE",
"220 843 LINE",
"238 764 OFFCURVE",
"238 742 OFFCURVE",
"238 700 CURVE SMOOTH",
"238 663 OFFCURVE",
"220 554 OFFCURVE",
"220 551 CURVE",
"232 551 LINE",
"239 660 OFFCURVE",
"335 734 OFFCURVE",
"412 734 CURVE SMOOTH",
"775 734 LINE SMOOTH",
"822 734 OFFCURVE",
"846 728 OFFCURVE",
"846 710 CURVE SMOOTH",
"846 665 OFFCURVE",
"693 540 OFFCURVE",
"389 231 CURVE",
"384 231 OFFCURVE",
"188 29 OFFCURVE",
"77 12 CURVE",
"77 0 LINE",
"911 0 LINE SMOOTH",
"940 0 OFFCURVE",
"966 -45 OFFCURVE",
"977 -92 CURVE"
);
}
);
width = 1134;
}
);
leftKerningGroup = Z;
note = Z;
rightKerningGroup = Z;
unicode = 005A;
},
{
glyphname = hyphen;
lastChange = "2020-03-08 13:28:25 +0000";
layers = (
{
layerId = "543A10D7-AEBA-4506-A699-AAC0E38B8B94";
paths = (
{
closed = 1;
nodes = (
"398 204 LINE",
"398 218 LINE",
"75 218 LINE",
"75 204 LINE"
);
}
);
width = 473;
}
);
leftKerningGroup = hyphen;
note = hyphen;
rightKerningGroup = hyphen;
unicode = 002D;
},
{
glyphname = underscore;
lastChange = "2020-03-08 13:28:25 +0000";
layers = (
{
layerId = "543A10D7-AEBA-4506-A699-AAC0E38B8B94";
paths = (
{
closed = 1;
nodes = (
"743 1 LINE",
"743 15 LINE",
"100 15 LINE",
"100 1 LINE"
);
}
);
width = 843;
}
);
leftKerningGroup = underscore;
note = underscore;
rightKerningGroup = underscore;
unicode = 005F;
},
{
glyphname = bar;
lastChange = "2020-03-08 13:28:25 +0000";
layers = (
{
layerId = "543A10D7-AEBA-4506-A699-AAC0E38B8B94";
paths = (
{
closed = 1;
nodes = (
"74 3 LINE",
"74 746 LINE",
"60 746 LINE",
"60 3 LINE"
);
}
);
width = 134;
}
);
note = bar;
unicode = 007C;
},
{
glyphname = i;
lastChange = "2020-03-08 13:28:25 +0000";
layers = (
{
anchors = (
{
name = bottom;
position = "{191, 0}";
}
);
layerId = "543A10D7-AEBA-4506-A699-AAC0E38B8B94";
paths = (
{
closed = 1;
nodes = (
"125 21 OFFCURVE",
"147 21 OFFCURVE",
"189 21 CURVE SMOOTH",
"226 21 OFFCURVE",
"335 3 OFFCURVE",
"338 3 CURVE",
"338 15 LINE",
"230 31 OFFCURVE",
"226 101 OFFCURVE",
"226 225 CURVE",
"225 442 LINE",
"206 442 LINE",
"161 408 OFFCURVE",
"113 388 OFFCURVE",
"46 388 CURVE",
"46 376 LINE",
"155 359 OFFCURVE",
"158 360 OFFCURVE",
"158 234 CURVE SMOOTH",
"158 103 OFFCURVE",
"157 32 OFFCURVE",
"46 15 CURVE",
"46 3 LINE"
);
},
{
closed = 1;
nodes = (
"219 545 OFFCURVE",
"242 567 OFFCURVE",
"242 595 CURVE SMOOTH",
"242 623 OFFCURVE",
"219 646 OFFCURVE",
"191 646 CURVE SMOOTH",
"163 646 OFFCURVE",
"141 623 OFFCURVE",
"141 595 CURVE SMOOTH",
"141 567 OFFCURVE",
"163 545 OFFCURVE",
"191 545 CURVE SMOOTH"
);
}
);
width = 382;
}
);
leftKerningGroup = i;
note = i;
rightKerningGroup = i;
unicode = 0069;
},
{
glyphname = l;
lastChange = "2020-03-09 09:03:56 +0000";
layers = (
{
anchors = (
{
name = bottom;
position = "{192, 0}";
},
{
name = center;
position = "{192, 375}";
},
{
name = top;
position = "{192, 750}";
},
{
name = topright;
position = "{364, 750}";
}
);
layerId = "543A10D7-AEBA-4506-A699-AAC0E38B8B94";
paths = (
{
closed = 1;
nodes = (
"103 17 OFFCURVE",
"147 22 OFFCURVE",
"183 22 CURVE SMOOTH",
"241 22 OFFCURVE",
"283 10 OFFCURVE",
"338 3 CURVE",
"338 15 LINE",
"230 31 OFFCURVE",
"225 92 OFFCURVE",
"225 232 CURVE SMOOTH",
"225 613 LINE SMOOTH",
"225 630 OFFCURVE",
"225 712 OFFCURVE",
"235 750 CURVE",
"206 750 LINE",
"161 716 OFFCURVE",
"113 698 OFFCURVE",
"46 698 CURVE",
"46 686 LINE",
"155 669 OFFCURVE",
"157 655 OFFCURVE",
"157 529 CURVE SMOOTH",
"157 229 LINE SMOOTH",
"157 98 OFFCURVE",
"157 32 OFFCURVE",
"46 15 CURVE",
"46 3 LINE"
);
}
);
width = 384;
}
);
leftKerningGroup = l;
note = l;
rightKerningGroup = l;
unicode = 006C;
},
{
glyphname = n;
lastChange = "2020-03-09 09:03:56 +0000";
layers = (
{
anchors = (
{
name = bottom;
position = "{356, 0}";
},
{
name = top;
position = "{356, 500}";
}
);
layerId = "543A10D7-AEBA-4506-A699-AAC0E38B8B94";
paths = (
{
closed = 1;
nodes = (
"92 16 OFFCURVE",
"130 21 OFFCURVE",
"165 21 CURVE SMOOTH",
"211 21 OFFCURVE",
"252 13 OFFCURVE",
"298 3 CURVE",
"298 15 LINE",
"228 29 OFFCURVE",
"226 81 OFFCURVE",
"226 205 CURVE SMOOTH",
"226 207 OFFCURVE",
"225 432 OFFCURVE",
"394 432 CURVE SMOOTH",
"450 432 OFFCURVE",
"488 377 OFFCURVE",
"488 293 CURVE SMOOTH",
"488 234 LINE SMOOTH",
"488 103 OFFCURVE",
"490 29 OFFCURVE",
"416 15 CURVE",
"416 3 LINE",
"450 18 OFFCURVE",
"489 23 OFFCURVE",
"526 23 CURVE SMOOTH",
"600 23 OFFCURVE",
"666 3 OFFCURVE",
"668 3 CURVE",
"668 15 LINE",
"560 31 OFFCURVE",
"556 101 OFFCURVE",
"556 225 CURVE SMOOTH",
"556 311 LINE SMOOTH",
"556 428 OFFCURVE",
"481 460 OFFCURVE",
"413 460 CURVE SMOOTH",
"300 460 OFFCURVE",
"248 374 OFFCURVE",
"225 304 CURVE",
"225 440 LINE",
"206 440 LINE",
"161 406 OFFCURVE",
"113 388 OFFCURVE",
"46 388 CURVE",
"46 376 LINE",
"155 359 OFFCURVE",
"158 360 OFFCURVE",
"158 234 CURVE SMOOTH",
"158 103 OFFCURVE",
"157 32 OFFCURVE",
"46 15 CURVE",
"46 3 LINE"
);
}
);
width = 712;
}
);
leftKerningGroup = i;
note = n;
rightKerningGroup = i;
unicode = 006E;
},
{
glyphname = r;
lastChange = "2020-03-09 09:28:40 +0000";
layers = (
{
anchors = (
{
name = bottom;
position = "{286, 0}";
},
{
name = top;
position = "{286, 500}";
}
);
layerId = "543A10D7-AEBA-4506-A699-AAC0E38B8B94";
paths = (
{
closed = 1;
nodes = (
"125 21 OFFCURVE",
"147 21 OFFCURVE",
"189 21 CURVE SMOOTH",
"226 21 OFFCURVE",
"295 3 OFFCURVE",
"298 3 CURVE",
"298 15 LINE",
"227 29 OFFCURVE",
"226 132 OFFCURVE",
"226 206 CURVE SMOOTH",
"226 223 OFFCURVE",
"229 432 OFFCURVE",
"379 432 CURVE SMOOTH",
"424 432 OFFCURVE",
"458 401 OFFCURVE",
"458 315 CURVE",
"526 360 LINE",
"526 419 OFFCURVE",
"451 460 OFFCURVE",
"383 460 CURVE SMOOTH",
"265 460 OFFCURVE",
"225 329 OFFCURVE",
"225 258 CURVE",
"225 440 LINE",
"206 440 LINE",
"161 406 OFFCURVE",
"113 388 OFFCURVE",
"46 388 CURVE",
"46 376 LINE",
"155 359 OFFCURVE",
"158 360 OFFCURVE",
"158 234 CURVE SMOOTH",
"158 103 OFFCURVE",
"157 32 OFFCURVE",
"46 15 CURVE",
"46 3 LINE"
);
}
);
width = 572;
}
);
leftKerningGroup = i;
note = r;
rightKerningGroup = r;
unicode = 0072;
},
{
glyphname = j;
lastChange = "2020-03-08 13:28:25 +0000";
layers = (
{
layerId = "543A10D7-AEBA-4506-A699-AAC0E38B8B94";
paths = (
{
closed = 1;
nodes = (
"244 -815 OFFCURVE",
"245 -218 OFFCURVE",
"245 -2 CURVE SMOOTH",
"245 442 LINE",
"226 442 LINE",
"181 408 OFFCURVE",
"133 388 OFFCURVE",
"66 388 CURVE",
"66 376 LINE",
"175 359 OFFCURVE",
"178 360 OFFCURVE",
"178 234 CURVE SMOOTH",
"178 -196 LINE SMOOTH",
"174 -493 OFFCURVE",
"154 -789 OFFCURVE",
"66 -803 CURVE",
"66 -815 LINE"
);
},
{
closed = 1;
nodes = (
"239 545 OFFCURVE",
"262 567 OFFCURVE",
"262 595 CURVE SMOOTH",
"262 623 OFFCURVE",
"239 646 OFFCURVE",
"211 646 CURVE SMOOTH",
"183 646 OFFCURVE",
"161 623 OFFCURVE",
"161 595 CURVE SMOOTH",
"161 567 OFFCURVE",
"183 545 OFFCURVE",
"211 545 CURVE SMOOTH"
);
}
);
width = 328;
}
);
leftKerningGroup = j;
note = j;
rightKerningGroup = j;
unicode = 006A;
},
{
glyphname = o;
lastChange = "2020-03-08 13:50:16 +0000";
layers = (
{
anchors = (
{
name = bottom;
position = "{287, 0}";
},
{
name = center;
position = "{287, 250}";
},
{
name = ogonek;
position = "{517, 10}";
},
{
name = top;
position = "{287, 500}";
},
{
name = topright;
position = "{424, 389}";
}
);
layerId = "543A10D7-AEBA-4506-A699-AAC0E38B8B94";
paths = (
{
closed = 1;
nodes = (
"335 -7 OFFCURVE",
"381 6 OFFCURVE",
"421 35 CURVE SMOOTH",
"483 79 OFFCURVE",
"518 153 OFFCURVE",
"518 229 CURVE SMOOTH",
"518 275 OFFCURVE",
"505 322 OFFCURVE",
"476 362 CURVE SMOOTH",
"432 424 OFFCURVE",
"360 459 OFFCURVE",
"287 459 CURVE SMOOTH",
"241 459 OFFCURVE",
"195 446 OFFCURVE",
"154 417 CURVE SMOOTH",
"92 373 OFFCURVE",
"56 299 OFFCURVE",
"56 224 CURVE SMOOTH",
"56 177 OFFCURVE",
"70 130 OFFCURVE",
"99 90 CURVE SMOOTH",
"142 28 OFFCURVE",
"215 -7 OFFCURVE",
"289 -7 CURVE SMOOTH"
);
},
{
closed = 1;
nodes = (
"269 34 OFFCURVE",
"196 80 OFFCURVE",
"158 136 CURVE SMOOTH",
"130 175 OFFCURVE",
"112 231 OFFCURVE",
"112 282 CURVE SMOOTH",
"112 330 OFFCURVE",
"127 375 OFFCURVE",
"163 402 CURVE SMOOTH",
"183 417 OFFCURVE",
"207 423 OFFCURVE",
"231 423 CURVE SMOOTH",
"297 423 OFFCURVE",
"370 377 OFFCURVE",
"409 321 CURVE SMOOTH",
"436 280 OFFCURVE",
"454 225 OFFCURVE",
"454 174 CURVE SMOOTH",
"454 126 OFFCURVE",
"439 82 OFFCURVE",
"402 55 CURVE SMOOTH",
"382 40 OFFCURVE",
"359 34 OFFCURVE",
"335 34 CURVE SMOOTH"
);
}
);
width = 574;
}
);
leftKerningGroup = o;
note = o;
rightKerningGroup = o;
unicode = 006F;
},
{
glyphname = m;
lastChange = "2020-03-08 13:50:20 +0000";
layers = (
{
anchors = (
{
name = bottom;
position = "{501, 0}";
},
{
name = top;
position = "{501, 500}";
}
);
layerId = "543A10D7-AEBA-4506-A699-AAC0E38B8B94";
paths = (
{
closed = 1;
nodes = (
"125 21 OFFCURVE",
"147 21 OFFCURVE",
"189 21 CURVE SMOOTH",
"226 21 OFFCURVE",
"295 3 OFFCURVE",
"298 3 CURVE",
"298 15 LINE",
"228 29 OFFCURVE",
"226 81 OFFCURVE",
"226 205 CURVE SMOOTH",
"226 207 OFFCURVE",
"225 431 OFFCURVE",
"389 431 CURVE SMOOTH",
"442 431 OFFCURVE",
"467 377 OFFCURVE",
"468 295 CURVE SMOOTH",
"468 234 LINE SMOOTH",
"468 103 OFFCURVE",
"469 39 OFFCURVE",
"386 15 CURVE",
"386 3 LINE",
"465 21 OFFCURVE",
"457 21 OFFCURVE",
"499 21 CURVE SMOOTH",
"536 21 OFFCURVE",
"605 3 OFFCURVE",
"608 3 CURVE",
"608 15 LINE",
"538 29 OFFCURVE",
"536 81 OFFCURVE",
"536 205 CURVE SMOOTH",
"536 207 OFFCURVE",
"536 431 OFFCURVE",
"699 431 CURVE SMOOTH",
"754 431 OFFCURVE",
"778 377 OFFCURVE",
"778 293 CURVE SMOOTH",
"778 234 LINE SMOOTH",
"778 103 OFFCURVE",
"780 29 OFFCURVE",
"706 15 CURVE",
"706 3 LINE",
"785 21 OFFCURVE",
"781 21 OFFCURVE",
"809 21 CURVE SMOOTH",
"846 21 OFFCURVE",
"955 3 OFFCURVE",
"958 3 CURVE",
"958 15 LINE",
"850 31 OFFCURVE",
"846 101 OFFCURVE",
"846 225 CURVE SMOOTH",
"846 311 LINE SMOOTH",
"846 428 OFFCURVE",
"771 459 OFFCURVE",
"703 459 CURVE SMOOTH",
"590 459 OFFCURVE",
"558 374 OFFCURVE",
"535 304 CURVE",
"542 423 OFFCURVE",
"463 459 OFFCURVE",
"393 459 CURVE SMOOTH",
"280 459 OFFCURVE",
"248 374 OFFCURVE",
"225 304 CURVE",
"225 440 LINE",
"206 440 LINE",
"161 406 OFFCURVE",
"113 388 OFFCURVE",
"46 388 CURVE",
"46 376 LINE",
"155 359 OFFCURVE",
"158 360 OFFCURVE",
"158 234 CURVE SMOOTH",
"158 103 OFFCURVE",
"157 32 OFFCURVE",
"46 15 CURVE",
"46 3 LINE"
);
}
);
width = 1002;
}
);
leftKerningGroup = i;
note = m;
rightKerningGroup = i;
unicode = 006D;
},
{
glyphname = h;
lastChange = "2020-03-09 09:03:56 +0000";
layers = (
{
anchors = (
{
name = bottom;
position = "{356, 0}";
},
{
name = center;
position = "{356, 375}";
},
{
name = top;
position = "{356, 750}";
}
);
layerId = "543A10D7-AEBA-4506-A699-AAC0E38B8B94";
paths = (
{
closed = 1;
nodes = (
"92 16 OFFCURVE",
"130 21 OFFCURVE",
"165 21 CURVE SMOOTH",
"211 21 OFFCURVE",
"252 13 OFFCURVE",
"298 3 CURVE",
"298 15 LINE",
"227 29 OFFCURVE",
"226 82 OFFCURVE",
"226 209 CURVE SMOOTH",
"226 240 OFFCURVE",
"232 432 OFFCURVE",
"388 432 CURVE SMOOTH",
"445 432 OFFCURVE",
"488 377 OFFCURVE",
"488 293 CURVE SMOOTH",
"488 234 LINE SMOOTH",
"488 103 OFFCURVE",
"490 29 OFFCURVE",
"416 15 CURVE",
"416 3 LINE",
"459 18 OFFCURVE",
"495 23 OFFCURVE",
"526 23 CURVE SMOOTH",
"584 23 OFFCURVE",
"626 6 OFFCURVE",
"668 3 CURVE",
"668 15 LINE",
"560 31 OFFCURVE",
"556 101 OFFCURVE",
"556 225 CURVE SMOOTH",
"556 311 LINE SMOOTH",
"556 428 OFFCURVE",
"481 460 OFFCURVE",
"413 460 CURVE SMOOTH",
"300 460 OFFCURVE",
"248 374 OFFCURVE",
"225 304 CURVE",
"225 750 LINE",
"206 750 LINE",
"161 716 OFFCURVE",
"113 698 OFFCURVE",
"46 698 CURVE",
"46 686 LINE",
"149 670 OFFCURVE",
"156 665 OFFCURVE",
"157 528 CURVE SMOOTH",
"158 234 LINE SMOOTH",
"158 103 OFFCURVE",
"157 32 OFFCURVE",
"46 15 CURVE",
"46 3 LINE"
);
}
);
width = 712;
}
);
leftKerningGroup = l;
note = h;
rightKerningGroup = i;
unicode = 0068;
},
{
glyphname = e;
lastChange = "2020-03-09 16:47:30 +0000";
layers = (
{
anchors = (
{
name = bottom;
position = "{328, 0}";
},
{
name = ogonek;
position = "{370, 10}";
},
{
name = top;
position = "{278, 500}";
}
);
layerId = "543A10D7-AEBA-4506-A699-AAC0E38B8B94";
paths = (
{
closed = 1;
nodes = (
"334 -7 OFFCURVE",
"380 6 OFFCURVE",
"420 35 CURVE",
"456 65 OFFCURVE",
"460 72 OFFCURVE",
"469 90 CURVE",
"448 103 LINE",
"437 87 OFFCURVE",
"429 73 OFFCURVE",
"401 55 CURVE SMOOTH",
"381 41 OFFCURVE",
"358 35 OFFCURVE",
"333 35 CURVE SMOOTH",
"268 35 OFFCURVE",
"195 80 OFFCURVE",
"157 136 CURVE SMOOTH",
"129 175 OFFCURVE",
"111 229 OFFCURVE",
"111 280 CURVE SMOOTH",
"111 326 OFFCURVE",
"126 370 OFFCURVE",
"162 397 CURVE SMOOTH",
"182 412 OFFCURVE",
"206 418 OFFCURVE",
"230 418 CURVE SMOOTH",
"296 418 OFFCURVE",
"369 372 OFFCURVE",
"408 316 CURVE",
"183 157 LINE",
"190 148 LINE",
"497 347 LINE",
"484 367 LINE",
"467 355 LINE",
"431 428 OFFCURVE",
"365 459 OFFCURVE",
"297 459 CURVE SMOOTH",
"247 459 OFFCURVE",
"195 442 OFFCURVE",
"153 412 CURVE SMOOTH",
"91 368 OFFCURVE",
"55 296 OFFCURVE",
"55 222 CURVE SMOOTH",
"55 176 OFFCURVE",
"69 130 OFFCURVE",
"98 90 CURVE SMOOTH",
"141 28 OFFCURVE",
"214 -7 OFFCURVE",
"288 -7 CURVE SMOOTH"
);
}
);
width = 542;
}
);
leftKerningGroup = o;
note = e;
rightKerningGroup = e;
unicode = 0065;
},
{
glyphname = k;
lastChange = "2020-03-09 09:05:17 +0000";
layers = (
{
anchors = (
{
name = bottom;
position = "{329, 0}";
},
{
name = top;
position = "{329, 750}";
}
);
layerId = "543A10D7-AEBA-4506-A699-AAC0E38B8B94";
paths = (
{
closed = 1;
nodes = (
"1228 -818 OFFCURVE",
"1247 -812 OFFCURVE",
"1262 -798 CURVE",
"1254 -789 LINE",
"1248 -793 OFFCURVE",
"1241 -795 OFFCURVE",
"1232 -795 CURVE SMOOTH",
"1139 -795 OFFCURVE",
"915 -556 OFFCURVE",
"760 -320 CURVE SMOOTH",
"358 290 LINE",
"431 353 OFFCURVE",
"514 423 OFFCURVE",
"594 435 CURVE",
"594 447 LINE",
"591 447 OFFCURVE",
"512 429 OFFCURVE",
"475 429 CURVE SMOOTH",
"433 429 OFFCURVE",
"441 429 OFFCURVE",
"362 447 CURVE",
"362 435 LINE",
"395 430 OFFCURVE",
"408 418 OFFCURVE",
"408 402 CURVE SMOOTH",
"408 368 OFFCURVE",
"352 317 OFFCURVE",
"294 270 CURVE SMOOTH",
"225 215 LINE",
"225 613 LINE SMOOTH",
"225 630 OFFCURVE",
"225 712 OFFCURVE",
"235 750 CURVE",
"206 750 LINE",
"161 716 OFFCURVE",
"113 698 OFFCURVE",
"46 698 CURVE",
"46 686 LINE",
"155 669 OFFCURVE",
"157 655 OFFCURVE",
"157 529 CURVE SMOOTH",
"157 229 LINE SMOOTH",
"157 98 OFFCURVE",
"157 32 OFFCURVE",
"46 15 CURVE",
"46 3 LINE",
"125 21 OFFCURVE",
"147 21 OFFCURVE",
"189 21 CURVE SMOOTH",
"226 21 OFFCURVE",
"335 3 OFFCURVE",
"338 3 CURVE",
"338 15 LINE",
"244 29 OFFCURVE",
"228 77 OFFCURVE",
"225 182 CURVE",
"287 231 OFFCURVE",
"296 237 OFFCURVE",
"305 244 CURVE",
"564 -158 LINE SMOOTH",
"764 -451 OFFCURVE",
"1052 -818 OFFCURVE",
"1208 -818 CURVE SMOOTH"
);
}
);
width = 658;
}
);
leftKerningGroup = l;
note = k;
rightKerningGroup = k;
unicode = 006B;
},
{
glyphname = c;
lastChange = "2020-03-09 09:29:14 +0000";
layers = (
{
anchors = (
{
name = bottom;
position = "{268, 0}";
},
{
name = top;
position = "{268, 500}";
}
);
layerId = "543A10D7-AEBA-4506-A699-AAC0E38B8B94";
paths = (
{
closed = 1;
nodes = (
"342 -7 OFFCURVE",
"388 6 OFFCURVE",
"428 35 CURVE",
"464 65 OFFCURVE",
"468 72 OFFCURVE",
"477 90 CURVE",
"456 103 LINE",
"445 87 OFFCURVE",
"437 73 OFFCURVE",
"409 55 CURVE SMOOTH",
"389 41 OFFCURVE",
"366 35 OFFCURVE",
"341 35 CURVE SMOOTH",
"276 35 OFFCURVE",
"203 80 OFFCURVE",
"165 136 CURVE SMOOTH",
"137 175 OFFCURVE",
"119 229 OFFCURVE",
"119 280 CURVE SMOOTH",
"119 326 OFFCURVE",
"134 370 OFFCURVE",
"170 397 CURVE SMOOTH",
"190 412 OFFCURVE",
"214 418 OFFCURVE",
"238 418 CURVE SMOOTH",
"304 418 OFFCURVE",
"377 372 OFFCURVE",
"416 316 CURVE",
"475 355 LINE",
"439 428 OFFCURVE",
"373 459 OFFCURVE",
"305 459 CURVE SMOOTH",
"255 459 OFFCURVE",
"203 442 OFFCURVE",
"161 412 CURVE SMOOTH",
"99 368 OFFCURVE",
"63 296 OFFCURVE",
"63 222 CURVE SMOOTH",
"63 176 OFFCURVE",
"77 130 OFFCURVE",
"106 90 CURVE SMOOTH",
"149 28 OFFCURVE",
"222 -7 OFFCURVE",
"296 -7 CURVE SMOOTH"
);
}
);
width = 536;
}
);
leftKerningGroup = o;
note = c;
rightKerningGroup = c;
unicode = 0063;
},
{
glyphname = g;
lastChange = "2020-03-09 09:29:19 +0000";
layers = (
{
anchors = (
{
name = bottom;
position = "{291, -250}";
},
{
name = top;
position = "{291, 500}";
}
);
layerId = "543A10D7-AEBA-4506-A699-AAC0E38B8B94";
paths = (
{
closed = 1;
nodes = (
"354 -466 OFFCURVE",
"406 -449 OFFCURVE",
"448 -419 CURVE SMOOTH",
"510 -375 OFFCURVE",
"546 -303 OFFCURVE",
"546 -229 CURVE SMOOTH",
"546 -183 OFFCURVE",
"532 -137 OFFCURVE",
"503 -97 CURVE SMOOTH",
"465 -42 OFFCURVE",
"404 -9 OFFCURVE",
"339 -2 CURVE",
"368 5 OFFCURVE",
"396 17 OFFCURVE",
"421 35 CURVE SMOOTH",
"483 79 OFFCURVE",
"518 153 OFFCURVE",
"518 229 CURVE SMOOTH",
"518 275 OFFCURVE",
"505 322 OFFCURVE",
"476 362 CURVE SMOOTH",
"432 424 OFFCURVE",
"360 459 OFFCURVE",
"287 459 CURVE SMOOTH",
"241 459 OFFCURVE",
"195 446 OFFCURVE",
"154 417 CURVE SMOOTH",
"92 373 OFFCURVE",
"56 299 OFFCURVE",
"56 224 CURVE SMOOTH",
"56 177 OFFCURVE",
"70 130 OFFCURVE",
"99 90 CURVE SMOOTH",
"137 35 OFFCURVE",
"198 2 OFFCURVE",
"263 -5 CURVE",
"234 -12 OFFCURVE",
"206 -24 OFFCURVE",
"181 -42 CURVE",
"145 -72 OFFCURVE",
"141 -79 OFFCURVE",
"132 -97 CURVE",
"153 -110 LINE",
"164 -94 OFFCURVE",
"172 -80 OFFCURVE",
"200 -62 CURVE SMOOTH",
"220 -48 OFFCURVE",
"243 -42 OFFCURVE",
"268 -42 CURVE SMOOTH",
"333 -42 OFFCURVE",
"406 -87 OFFCURVE",
"444 -143 CURVE SMOOTH",
"472 -182 OFFCURVE",
"490 -236 OFFCURVE",
"490 -287 CURVE SMOOTH",
"490 -333 OFFCURVE",
"475 -377 OFFCURVE",
"439 -404 CURVE SMOOTH",
"419 -419 OFFCURVE",
"395 -425 OFFCURVE",
"371 -425 CURVE SMOOTH",
"305 -425 OFFCURVE",
"232 -379 OFFCURVE",
"193 -323 CURVE",
"134 -362 LINE",
"170 -435 OFFCURVE",
"236 -466 OFFCURVE",
"304 -466 CURVE SMOOTH"
);
},
{
closed = 1;
nodes = (
"269 34 OFFCURVE",
"196 80 OFFCURVE",
"158 136 CURVE SMOOTH",
"130 175 OFFCURVE",
"112 231 OFFCURVE",
"112 282 CURVE SMOOTH",
"112 330 OFFCURVE",
"127 375 OFFCURVE",
"163 402 CURVE SMOOTH",
"183 417 OFFCURVE",
"207 423 OFFCURVE",
"231 423 CURVE SMOOTH",
"297 423 OFFCURVE",
"370 377 OFFCURVE",
"409 321 CURVE SMOOTH",
"436 280 OFFCURVE",
"454 225 OFFCURVE",
"454 174 CURVE SMOOTH",
"454 126 OFFCURVE",
"439 82 OFFCURVE",
"402 55 CURVE SMOOTH",
"382 40 OFFCURVE",
"359 34 OFFCURVE",
"335 34 CURVE SMOOTH"
);
},
{
closed = 1;
nodes = (
"523 398 OFFCURVE",
"546 420 OFFCURVE",
"546 448 CURVE SMOOTH",
"546 476 OFFCURVE",
"523 499 OFFCURVE",
"495 499 CURVE SMOOTH",
"467 499 OFFCURVE",
"445 476 OFFCURVE",
"445 448 CURVE SMOOTH",
"445 420 OFFCURVE",
"467 398 OFFCURVE",
"495 398 CURVE SMOOTH"
);
}
);
width = 582;
}
);
leftKerningGroup = g;
note = g;
rightKerningGroup = g;
unicode = 0067;
},
{
glyphname = t;
lastChange = "2020-03-09 09:29:24 +0000";
layers = (
{
anchors = (
{
name = bottom;
position = "{197, 0}";
},
{
name = center;
position = "{197, 250}";
},
{
name = top;
position = "{197, 500}";
},
{
name = topright;
position = "{374, 499}";
}
);
layerId = "543A10D7-AEBA-4506-A699-AAC0E38B8B94";
paths = (
{
closed = 1;
nodes = (
"316 -2 OFFCURVE",
"348 65 OFFCURVE",
"348 109 CURVE",
"338 109 LINE",
"338 53 OFFCURVE",
"295 27 OFFCURVE",
"253 27 CURVE SMOOTH",
"183 27 OFFCURVE",
"185 108 OFFCURVE",
"185 147 CURVE SMOOTH",
"185 425 LINE",
"323 425 LINE",
"323 459 LINE",
"185 459 LINE",
"185 488 OFFCURVE",
"186 548 OFFCURVE",
"195 580 CURVE",
"166 580 LINE",
"166 465 OFFCURVE",
"73 437 OFFCURVE",
"6 437 CURVE",
"6 425 LINE",
"117 425 LINE",
"117 144 LINE SMOOTH",
"117 50 OFFCURVE",
"157 -2 OFFCURVE",
"252 -2 CURVE SMOOTH"
);
}
);
width = 394;
}
);
leftKerningGroup = t;
note = t;
rightKerningGroup = t;
unicode = 0074;
},
{
glyphname = f;
lastChange = "2020-03-09 09:03:56 +0000";
layers = (
{
anchors = (
{
name = bottom;
position = "{212, 0}";
},
{
name = top;
position = "{212, 750}";
}
);
layerId = "543A10D7-AEBA-4506-A699-AAC0E38B8B94";
paths = (
{
closed = 1;
nodes = (
"125 21 OFFCURVE",
"147 21 OFFCURVE",
"189 21 CURVE SMOOTH",
"226 21 OFFCURVE",
"335 3 OFFCURVE",
"338 3 CURVE",
"338 15 LINE",
"230 31 OFFCURVE",
"225 92 OFFCURVE",
"225 232 CURVE SMOOTH",
"227 423 LINE",
"393 425 LINE",
"393 459 LINE",
"228 459 LINE",
"229 526 OFFCURVE",
"229 553 OFFCURVE",
"229 585 CURVE SMOOTH",
"229 647 OFFCURVE",
"237 692 OFFCURVE",
"259 718 CURVE SMOOTH",
"274 736 OFFCURVE",
"306 746 OFFCURVE",
"339 746 CURVE SMOOTH",
"391 746 OFFCURVE",
"447 721 OFFCURVE",
"447 666 CURVE SMOOTH",
"447 654 OFFCURVE",
"444 640 OFFCURVE",
"438 625 CURVE",
"494 681 LINE",
"494 757 OFFCURVE",
"452 781 OFFCURVE",
"402 781 CURVE SMOOTH",
"345 781 OFFCURVE",
"277 749 OFFCURVE",
"248 726 CURVE SMOOTH",
"191 680 OFFCURVE",
"159 602 OFFCURVE",
"159 497 CURVE SMOOTH",
"159 459 OFFCURVE",
"159 437 OFFCURVE",
"48 437 CURVE",
"48 425 LINE",
"157 423 LINE",
"157 229 LINE SMOOTH",
"157 98 OFFCURVE",
"157 32 OFFCURVE",
"46 15 CURVE",
"46 3 LINE"
);
}
);
width = 424;
}
);
leftKerningGroup = i;
note = f;
rightKerningGroup = f;
unicode = 0066;
},
{
glyphname = s;
lastChange = "2020-03-09 09:29:29 +0000";
layers = (
{
anchors = (
{
name = bottom;
position = "{247, 0}";
},
{
name = top;
position = "{247, 500}";
}
);
layerId = "543A10D7-AEBA-4506-A699-AAC0E38B8B94";
paths = (
{
closed = 1;
nodes = (
"319 -8 OFFCURVE",
"427 42 OFFCURVE",
"427 140 CURVE SMOOTH",
"427 249 OFFCURVE",
"327 257 OFFCURVE",
"255 285 CURVE SMOOTH",
"155 322 OFFCURVE",
"136 336 OFFCURVE",
"136 373 CURVE SMOOTH",
"136 399 OFFCURVE",
"163 443 OFFCURVE",
"240 443 CURVE SMOOTH",
"285 443 OFFCURVE",
"346 404 OFFCURVE",
"346 318 CURVE",
"414 363 LINE",
"388 431 OFFCURVE",
"310 460 OFFCURVE",
"242 460 CURVE SMOOTH",
"168 460 OFFCURVE",
"86 416 OFFCURVE",
"86 334 CURVE SMOOTH",
"86 258 OFFCURVE",
"171 222 OFFCURVE",
"234 202 CURVE SMOOTH",
"254 196 OFFCURVE",
"363 179 OFFCURVE",
"363 114 CURVE SMOOTH",
"363 38 OFFCURVE",
"284 9 OFFCURVE",
"239 9 CURVE SMOOTH",
"172 9 OFFCURVE",
"72 74 OFFCURVE",
"66 109 CURVE",
"66 12 LINE",
"106 12 OFFCURVE",
"168 -8 OFFCURVE",
"216 -8 CURVE SMOOTH"
);
}
);
width = 493;
}
);
leftKerningGroup = s;
note = s;
rightKerningGroup = s;
unicode = 0073;
},
{
glyphname = u;
lastChange = "2020-03-09 09:28:14 +0000";
layers = (
{
anchors = (
{
name = bottom;
position = "{348, 0}";
},
{
name = ogonek;
position = "{626, 10}";
},
{
name = top;
position = "{348, 500}";
},
{
name = topright;
position = "{516, 399}";
}
);
layerId = "543A10D7-AEBA-4506-A699-AAC0E38B8B94";
paths = (
{
closed = 1;
nodes = (
"483 -3 LINE",
"528 31 OFFCURVE",
"576 49 OFFCURVE",
"643 49 CURVE",
"643 61 LINE",
"534 78 OFFCURVE",
"531 77 OFFCURVE",
"531 203 CURVE SMOOTH",
"531 454 LINE",
"391 414 LINE",
"391 402 LINE",
"462 388 OFFCURVE",
"463 376 OFFCURVE",
"463 247 CURVE SMOOTH",
"463 214 OFFCURVE",
"456 31 OFFCURVE",
"280 31 CURVE SMOOTH",
"247 31 OFFCURVE",
"201 80 OFFCURVE",
"201 164 CURVE SMOOTH",
"201 454 LINE",
"133 436 OFFCURVE",
"54 424 OFFCURVE",
"51 424 CURVE",
"51 412 LINE",
"133 399 OFFCURVE",
"133 356 OFFCURVE",
"133 232 CURVE SMOOTH",
"133 146 LINE SMOOTH",
"133 29 OFFCURVE",
"208 3 OFFCURVE",
"276 3 CURVE SMOOTH",
"389 3 OFFCURVE",
"441 83 OFFCURVE",
"464 153 CURVE",
"464 -3 LINE"
);
}
);
width = 696;
}
);
leftKerningGroup = u;
note = u;
rightKerningGroup = u;
unicode = 0075;
},
{
glyphname = b;
lastChange = "2020-03-09 09:05:17 +0000";
layers = (
{
anchors = (
{
name = bottom;
position = "{334, 0}";
},
{
name = top;
position = "{334, 750}";
}
);
layerId = "543A10D7-AEBA-4506-A699-AAC0E38B8B94";
paths = (
{
closed = 1;
nodes = (
"429 -6 OFFCURVE",
"475 7 OFFCURVE",
"514 35 CURVE SMOOTH",
"576 79 OFFCURVE",
"611 153 OFFCURVE",
"611 229 CURVE SMOOTH",
"611 275 OFFCURVE",
"598 322 OFFCURVE",
"569 362 CURVE SMOOTH",
"525 424 OFFCURVE",
"453 459 OFFCURVE",
"380 459 CURVE SMOOTH",
"334 459 OFFCURVE",
"288 446 OFFCURVE",
"247 417 CURVE SMOOTH",
"231 406 OFFCURVE",
"217 388 OFFCURVE",
"205 373 CURVE",
"205 613 LINE SMOOTH",
"205 630 OFFCURVE",
"205 712 OFFCURVE",
"215 750 CURVE",
"186 750 LINE",
"141 716 OFFCURVE",
"93 698 OFFCURVE",
"26 698 CURVE",
"26 686 LINE",
"135 669 OFFCURVE",
"137 655 OFFCURVE",
"137 529 CURVE SMOOTH",
"137 229 LINE",
"136 0 LINE",
"150 0 LINE",
"179 64 LINE",
"251 -8 OFFCURVE",
"315 -6 OFFCURVE",
"384 -6 CURVE SMOOTH"
);
},
{
closed = 1;
nodes = (
"341 34 OFFCURVE",
"244 79 OFFCURVE",
"206 135 CURVE",
"206 271 LINE",
"204 321 OFFCURVE",
"218 373 OFFCURVE",
"256 402 CURVE SMOOTH",
"276 417 OFFCURVE",
"300 423 OFFCURVE",
"324 423 CURVE SMOOTH",
"390 423 OFFCURVE",
"463 377 OFFCURVE",
"502 321 CURVE SMOOTH",
"529 280 OFFCURVE",
"547 225 OFFCURVE",
"547 174 CURVE SMOOTH",
"547 126 OFFCURVE",
"532 82 OFFCURVE",
"495 55 CURVE SMOOTH",
"475 40 OFFCURVE",
"448 34 OFFCURVE",
"419 34 CURVE SMOOTH"
);
}
);
width = 667;
}
);
leftKerningGroup = b;
note = b;
rightKerningGroup = o;
unicode = 0062;
},
{
glyphname = d;
lastChange = "2020-03-08 13:50:35 +0000";
layers = (
{
anchors = (
{
name = bottom;
position = "{332, 0}";
},
{
name = center;
position = "{332, 250}";
},
{
name = top;
position = "{332, 750}";
},
{
name = topright;
position = "{643, 500}";
}
);
layerId = "543A10D7-AEBA-4506-A699-AAC0E38B8B94";
paths = (
{
closed = 1;
nodes = (
"335 -7 OFFCURVE",
"381 6 OFFCURVE",
"421 35 CURVE SMOOTH",
"433 44 OFFCURVE",
"445 54 OFFCURVE",
"455 65 CURVE",
"455 55 LINE SMOOTH",
"455 49 OFFCURVE",
"455 -7 OFFCURVE",
"512 -7 CURVE SMOOTH",
"585 -7 OFFCURVE",
"649 65 OFFCURVE",
"652 65 CURVE",
"636 83 LINE",
"628 74 OFFCURVE",
"581 50 OFFCURVE",
"562 49 CURVE",
"521 49 OFFCURVE",
"522 232 OFFCURVE",
"522 232 CURVE",
"522 613 LINE SMOOTH",
"522 630 OFFCURVE",
"522 712 OFFCURVE",
"532 750 CURVE",
"503 750 LINE",
"463 714 OFFCURVE",
"433 698 OFFCURVE",
"403 698 CURVE",
"403 686 LINE",
"454 668 OFFCURVE",
"454 655 OFFCURVE",
"454 529 CURVE SMOOTH",
"454 388 LINE",
"410 434 OFFCURVE",
"349 459 OFFCURVE",
"286 459 CURVE SMOOTH",
"241 459 OFFCURVE",
"194 446 OFFCURVE",
"154 417 CURVE SMOOTH",
"92 373 OFFCURVE",
"56 299 OFFCURVE",
"56 224 CURVE SMOOTH",
"56 177 OFFCURVE",
"70 130 OFFCURVE",
"99 90 CURVE SMOOTH",
"142 28 OFFCURVE",
"215 -7 OFFCURVE",
"289 -7 CURVE SMOOTH"
);
},
{
closed = 1;
nodes = (
"269 34 OFFCURVE",
"196 80 OFFCURVE",
"158 136 CURVE SMOOTH",
"130 175 OFFCURVE",
"112 231 OFFCURVE",
"112 282 CURVE SMOOTH",
"112 330 OFFCURVE",
"127 375 OFFCURVE",
"163 402 CURVE SMOOTH",
"183 417 OFFCURVE",
"207 423 OFFCURVE",
"231 423 CURVE SMOOTH",
"297 423 OFFCURVE",
"370 377 OFFCURVE",
"409 321 CURVE SMOOTH",
"435 281 OFFCURVE",
"453 223 OFFCURVE",
"453 175 CURVE SMOOTH",
"453 115 OFFCURVE",
"434 79 OFFCURVE",
"402 55 CURVE SMOOTH",
"382 40 OFFCURVE",
"359 34 OFFCURVE",
"335 34 CURVE SMOOTH"
);
}
);
width = 663;
}
);
leftKerningGroup = o;
note = d;
rightKerningGroup = d;
unicode = 0064;
},
{
glyphname = q;
lastChange = "2020-03-09 09:05:17 +0000";
layers = (
{
anchors = (
{
name = bottom;
position = "{299, 0}";
},
{
name = top;
position = "{299, 499}";
}
);
layerId = "543A10D7-AEBA-4506-A699-AAC0E38B8B94";
paths = (
{
closed = 1;
nodes = (
"428 -797 OFFCURVE",
"450 -797 OFFCURVE",
"492 -797 CURVE SMOOTH",
"529 -797 OFFCURVE",
"638 -815 OFFCURVE",
"641 -815 CURVE",
"641 -803 LINE",
"533 -787 OFFCURVE",
"528 -723 OFFCURVE",
"528 -583 CURVE SMOOTH",
"531 471 LINE",
"519 471 LINE",
"488 417 LINE",
"450 447 OFFCURVE",
"352 460 OFFCURVE",
"283 460 CURVE SMOOTH",
"238 460 OFFCURVE",
"192 447 OFFCURVE",
"153 419 CURVE SMOOTH",
"91 375 OFFCURVE",
"56 300 OFFCURVE",
"56 224 CURVE SMOOTH",
"56 177 OFFCURVE",
"69 130 OFFCURVE",
"98 90 CURVE SMOOTH",
"142 28 OFFCURVE",
"214 -7 OFFCURVE",
"287 -7 CURVE SMOOTH",
"333 -7 OFFCURVE",
"379 6 OFFCURVE",
"420 35 CURVE SMOOTH",
"436 46 OFFCURVE",
"450 59 OFFCURVE",
"462 74 CURVE",
"460 -586 LINE SMOOTH",
"460 -717 OFFCURVE",
"460 -786 OFFCURVE",
"349 -803 CURVE",
"349 -815 LINE"
);
},
{
closed = 1;
nodes = (
"277 29 OFFCURVE",
"204 75 OFFCURVE",
"165 131 CURVE SMOOTH",
"138 172 OFFCURVE",
"120 227 OFFCURVE",
"120 279 CURVE SMOOTH",
"120 327 OFFCURVE",
"135 372 OFFCURVE",
"172 399 CURVE SMOOTH",
"194 415 OFFCURVE",
"230 423 OFFCURVE",
"268 423 CURVE SMOOTH",
"356 423 OFFCURVE",
"461 383 OFFCURVE",
"461 316 CURVE SMOOTH",
"461 176 LINE SMOOTH",
"461 122 OFFCURVE",
"449 79 OFFCURVE",
"411 50 CURVE SMOOTH",
"391 35 OFFCURVE",
"367 29 OFFCURVE",
"343 29 CURVE SMOOTH"
);
}
);
width = 597;
}
);
leftKerningGroup = o;
note = q;
rightKerningGroup = q;
unicode = 0071;
},
{
glyphname = p;
lastChange = "2020-03-09 09:05:17 +0000";
layers = (
{
anchors = (
{
name = bottom;
position = "{341, 0}";
},
{
name = top;
position = "{341, 499}";
}
);
layerId = "543A10D7-AEBA-4506-A699-AAC0E38B8B94";
paths = (
{
closed = 1;
nodes = (
"128 -797 OFFCURVE",
"150 -797 OFFCURVE",
"192 -797 CURVE SMOOTH",
"229 -797 OFFCURVE",
"338 -815 OFFCURVE",
"341 -815 CURVE",
"341 -803 LINE",
"233 -787 OFFCURVE",
"228 -726 OFFCURVE",
"228 -586 CURVE",
"227 59 LINE",
"271 13 OFFCURVE",
"332 -12 OFFCURVE",
"395 -12 CURVE SMOOTH",
"440 -12 OFFCURVE",
"487 1 OFFCURVE",
"527 30 CURVE SMOOTH",
"589 74 OFFCURVE",
"625 150 OFFCURVE",
"625 227 CURVE SMOOTH",
"625 274 OFFCURVE",
"611 322 OFFCURVE",
"582 362 CURVE SMOOTH",
"539 424 OFFCURVE",
"466 459 OFFCURVE",
"392 459 CURVE SMOOTH",
"346 459 OFFCURVE",
"300 446 OFFCURVE",
"260 417 CURVE SMOOTH",
"248 408 OFFCURVE",
"236 388 OFFCURVE",
"226 377 CURVE",
"214 441 LINE",
"198 441 LINE",
"144 411 OFFCURVE",
"49 399 OFFCURVE",
"46 399 CURVE",
"46 387 LINE",
"77 378 OFFCURVE",
"159 383 OFFCURVE",
"159 210 CURVE SMOOTH",
"160 -589 LINE SMOOTH",
"160 -720 OFFCURVE",
"160 -786 OFFCURVE",
"49 -803 CURVE",
"49 -815 LINE"
);
},
{
closed = 1;
nodes = (
"384 24 OFFCURVE",
"311 70 OFFCURVE",
"272 126 CURVE SMOOTH",
"246 166 OFFCURVE",
"229 218 OFFCURVE",
"228 267 CURVE",
"228 328 OFFCURVE",
"247 373 OFFCURVE",
"279 397 CURVE SMOOTH",
"299 412 OFFCURVE",
"322 418 OFFCURVE",
"346 418 CURVE SMOOTH",
"412 418 OFFCURVE",
"485 372 OFFCURVE",
"523 316 CURVE SMOOTH",
"551 277 OFFCURVE",
"569 220 OFFCURVE",
"569 167 CURVE SMOOTH",
"569 118 OFFCURVE",
"554 72 OFFCURVE",
"518 45 CURVE SMOOTH",
"498 30 OFFCURVE",
"474 24 OFFCURVE",
"450 24 CURVE SMOOTH"
);
}
);
width = 681;
}
);
leftKerningGroup = p;
note = p;
rightKerningGroup = o;
unicode = 0070;
},
{
glyphname = v;
lastChange = "2020-03-09 18:02:11 +0000";
layers = (
{
anchors = (
{
name = bottom;
position = "{304, 0}";
},
{
name = top;
position = "{304, 500}";
}
);
layerId = "543A10D7-AEBA-4506-A699-AAC0E38B8B94";
paths = (
{
closed = 1;
nodes = (
"548 441 LINE",
"55 441 LINE",
"316 -40 LINE"
);
},
{
closed = 1;
nodes = (
"146 428 LINE",
"520 427 LINE",
"345 59 LINE"
);
}
);
width = 608;
}
);
leftKerningGroup = v;
note = v;
rightKerningGroup = v;
unicode = 0076;
},
{
glyphname = w;
lastChange = "2020-03-09 18:02:00 +0000";
layers = (
{
anchors = (
{
name = bottom;
position = "{437, 0}";
},
{
name = top;
position = "{437, 500}";
}
);
layerId = "543A10D7-AEBA-4506-A699-AAC0E38B8B94";
paths = (
{
closed = 1;
nodes = (
"443 214 LINE",
"581 -40 LINE",
"813 441 LINE",
"60 441 LINE",
"321 -40 LINE"
);
},
{
closed = 1;
nodes = (
"151 428 LINE",
"327 427 LINE",
"433 233 LINE",
"350 59 LINE"
);
},
{
closed = 1;
nodes = (
"411 427 LINE",
"525 427 LINE",
"472 315 LINE"
);
},
{
closed = 1;
nodes = (
"483 295 LINE",
"546 427 LINE",
"785 427 LINE",
"610 59 LINE"
);
}
);
width = 873;
}
);
leftKerningGroup = v;
note = w;
rightKerningGroup = v;
unicode = 0077;
},
{
glyphname = y;
lastChange = "2020-03-09 09:28:34 +0000";
layers = (
{
anchors = (
{
name = bottom;
position = "{288, 0}";
},
{
name = top;
position = "{288, 500}";
}
);
layerId = "543A10D7-AEBA-4506-A699-AAC0E38B8B94";
paths = (
{
closed = 1;
nodes = (
"-175 -796 OFFCURVE",
"-131 -784 OFFCURVE",
"61 -442 CURVE",
"515 441 LINE",
"22 441 LINE",
"272 23 LINE",
"25 -450 LINE",
"-33 -575 OFFCURVE",
"-143 -785 OFFCURVE",
"-254 -802 CURVE",
"-254 -814 LINE"
);
},
{
closed = 1;
nodes = (
"113 428 LINE",
"487 427 LINE",
"312 99 LINE"
);
}
);
width = 576;
}
);
leftKerningGroup = y;
note = y;
rightKerningGroup = v;
unicode = 0079;
},
{
glyphname = z;
lastChange = "2020-03-09 09:29:56 +0000";
layers = (
{
anchors = (
{
name = bottom;
position = "{290, 0}";
},
{
name = center;
position = "{290, 250}";
},
{
name = top;
position = "{290, 500}";
}
);
layerId = "543A10D7-AEBA-4506-A699-AAC0E38B8B94";
paths = (
{
closed = 1;
nodes = (
"465 0 LINE",
"465 43 OFFCURVE",
"533 135 OFFCURVE",
"543 200 CURVE",
"522 200 LINE",
"522 76 OFFCURVE",
"392 14 OFFCURVE",
"316 14 CURVE SMOOTH",
"145 13 LINE",
"493 441 LINE",
"111 441 LINE",
"111 431 OFFCURVE",
"112 420 OFFCURVE",
"112 405 CURVE SMOOTH",
"112 368 OFFCURVE",
"106 315 OFFCURVE",
"66 240 CURVE",
"78 240 LINE",
"128 358 OFFCURVE",
"178 427 OFFCURVE",
"254 427 CURVE SMOOTH",
"402 428 LINE",
"68 15 LINE",
"68 0 LINE"
);
}
);
width = 579;
}
);
leftKerningGroup = z;
note = z;
rightKerningGroup = z;
unicode = 007A;
},
{
glyphname = a;
lastChange = "2020-03-09 16:51:08 +0000";
layers = (
{
anchors = (
{
name = bottom;
position = "{269, 0}";
},
{
name = ogonek;
position = "{483, 10}";
},
{
name = top;
position = "{245, 500}";
}
);
layerId = "543A10D7-AEBA-4506-A699-AAC0E38B8B94";
paths = (
{
closed = 1;
nodes = (
"219 -7 OFFCURVE",
"323 67 OFFCURVE",
"328 81 CURVE",
"328 59 OFFCURVE",
"328 -7 OFFCURVE",
"385 -7 CURVE SMOOTH",
"458 -7 OFFCURVE",
"522 65 OFFCURVE",
"525 65 CURVE",
"509 83 LINE",
"501 74 OFFCURVE",
"451 49 OFFCURVE",
"433 49 CURVE SMOOTH",
"409 49 OFFCURVE",
"393 72 OFFCURVE",
"393 175 CURVE SMOOTH",
"393 325 LINE SMOOTH",
"393 429 OFFCURVE",
"324 460 OFFCURVE",
"245 460 CURVE SMOOTH",
"138 460 OFFCURVE",
"53 410 OFFCURVE",
"53 351 CURVE",
"121 306 LINE",
"121 392 OFFCURVE",
"169 441 OFFCURVE",
"214 441 CURVE SMOOTH",
"273 441 OFFCURVE",
"328 390 OFFCURVE",
"328 298 CURVE",
"240 273 LINE SMOOTH",
"93 231 OFFCURVE",
"50 183 OFFCURVE",
"50 104 CURVE SMOOTH",
"50 24 OFFCURVE",
"100 -7 OFFCURVE",
"160 -7 CURVE SMOOTH"
);
},
{
closed = 1;
nodes = (
"156 47 OFFCURVE",
"109 70 OFFCURVE",
"109 147 CURVE SMOOTH",
"109 207 OFFCURVE",
"165 233 OFFCURVE",
"227 250 CURVE SMOOTH",
"328 278 LINE",
"328 278 OFFCURVE",
"328 260 OFFCURVE",
"328 236 CURVE SMOOTH",
"328 187 OFFCURVE",
"328 115 OFFCURVE",
"328 115 CURVE",
"328 97 OFFCURVE",
"253 50 OFFCURVE",
"217 49 CURVE SMOOTH"
);
}
);
width = 535;
}
);
leftKerningGroup = a;
note = a;
rightKerningGroup = d;
unicode = 0061;
},
{
glyphname = x;
lastChange = "2020-03-09 09:03:56 +0000";
layers = (
{
anchors = (
{
name = bottom;
position = "{361, 0}";
},
{
name = top;
position = "{361, 500}";
}
);
layerId = "543A10D7-AEBA-4506-A699-AAC0E38B8B94";
paths = (
{
closed = 1;
nodes = (
"51 0 OFFCURVE",
"160 18 OFFCURVE",
"197 18 CURVE SMOOTH",
"239 18 OFFCURVE",
"225 18 OFFCURVE",
"304 0 CURVE",
"304 12 LINE",
"242 25 OFFCURVE",
"220 34 OFFCURVE",
"220 50 CURVE SMOOTH",
"220 62 OFFCURVE",
"233 78 OFFCURVE",
"250 103 CURVE SMOOTH",
"321 206 LINE",
"400 116 LINE",
"416 95 OFFCURVE",
"439 73 OFFCURVE",
"439 54 CURVE SMOOTH",
"439 40 OFFCURVE",
"425 26 OFFCURVE",
"382 15 CURVE",
"382 3 LINE",
"461 21 OFFCURVE",
"483 21 OFFCURVE",
"525 21 CURVE SMOOTH",
"562 21 OFFCURVE",
"671 3 OFFCURVE",
"674 3 CURVE",
"674 15 LINE",
"566 31 OFFCURVE",
"578 53 OFFCURVE",
"472 154 CURVE",
"378 254 LINE",
"424 313 LINE SMOOTH",
"490 398 OFFCURVE",
"512 414 OFFCURVE",
"620 430 CURVE",
"620 442 LINE",
"617 442 OFFCURVE",
"508 424 OFFCURVE",
"471 424 CURVE SMOOTH",
"429 424 OFFCURVE",
"443 424 OFFCURVE",
"364 442 CURVE",
"364 430 LINE",
"423 418 OFFCURVE",
"443 406 OFFCURVE",
"443 389 CURVE SMOOTH",
"443 375 OFFCURVE",
"427 356 OFFCURVE",
"409 329 CURVE",
"364 270 LINE",
"308 341 LINE",
"280 374 OFFCURVE",
"260 390 OFFCURVE",
"260 401 CURVE SMOOTH",
"260 412 OFFCURVE",
"282 417 OFFCURVE",
"338 429 CURVE",
"338 441 LINE",
"259 423 OFFCURVE",
"237 423 OFFCURVE",
"195 423 CURVE SMOOTH",
"158 423 OFFCURVE",
"49 441 OFFCURVE",
"46 441 CURVE",
"46 429 LINE",
"154 413 OFFCURVE",
"148 406 OFFCURVE",
"236 303 CURVE SMOOTH",
"307 222 LINE",
"235 119 LINE SMOOTH",
"166 20 OFFCURVE",
"156 28 OFFCURVE",
"48 12 CURVE",
"48 0 LINE"
);
}
);
width = 722;
}
);
leftKerningGroup = x;
note = x;
rightKerningGroup = x;
unicode = 0078;
},
{
glyphname = A;
lastChange = "2020-03-09 09:52:38 +0000";
layers = (
{
anchors = (
{
name = bottom;
position = "{506, 0}";
},
{
name = ogonek;
position = "{910, 10}";
},
{
name = top;
position = "{477, 806}";
}
);
layerId = "543A10D7-AEBA-4506-A699-AAC0E38B8B94";
paths = (
{
closed = 1;
nodes = (
"934 0 LINE",
"477 807 LINE",
"72 0 LINE"
);
},
{
closed = 1;
nodes = (
"102 23 LINE",
"448 708 LINE",
"833 22 LINE"
);
}
);
width = 1011;
}
);
leftKerningGroup = A;
note = A;
rightKerningGroup = A;
unicode = 0041;
},
{
glyphname = O;
lastChange = "2020-03-09 09:05:17 +0000";
layers = (
{
anchors = (
{
name = bottom;
position = "{481, 0}";
},
{
name = center;
position = "{481, 338}";
},
{
name = ogonek;
position = "{866, 10}";
},
{
name = top;
position = "{481, 806}";
},
{
name = topleft;
position = "{20, 675}";
},
{
name = topright;
position = "{782, 675}";
}
);
layerId = "543A10D7-AEBA-4506-A699-AAC0E38B8B94";
paths = (
{
closed = 1;
nodes = (
"563 -6 OFFCURVE",
"643 17 OFFCURVE",
"712 66 CURVE SMOOTH",
"819 142 OFFCURVE",
"880 273 OFFCURVE",
"880 405 CURVE SMOOTH",
"880 486 OFFCURVE",
"857 568 OFFCURVE",
"807 638 CURVE SMOOTH",
"732 745 OFFCURVE",
"606 805 OFFCURVE",
"479 805 CURVE SMOOTH",
"400 805 OFFCURVE",
"320 782 OFFCURVE",
"250 733 CURVE SMOOTH",
"143 658 OFFCURVE",
"82 527 OFFCURVE",
"82 394 CURVE SMOOTH",
"82 313 OFFCURVE",
"105 231 OFFCURVE",
"155 161 CURVE SMOOTH",
"230 54 OFFCURVE",
"356 -6 OFFCURVE",
"484 -6 CURVE SMOOTH"
);
},
{
closed = 1;
nodes = (
"412 33 OFFCURVE",
"281 99 OFFCURVE",
"209 200 CURVE SMOOTH",
"162 266 OFFCURVE",
"137 355 OFFCURVE",
"137 442 CURVE SMOOTH",
"137 552 OFFCURVE",
"176 660 OFFCURVE",
"259 719 CURVE SMOOTH",
"307 753 OFFCURVE",
"365 768 OFFCURVE",
"424 768 CURVE SMOOTH",
"549 768 OFFCURVE",
"682 701 OFFCURVE",
"753 600 CURVE SMOOTH",
"800 534 OFFCURVE",
"824 446 OFFCURVE",
"824 360 CURVE SMOOTH",
"824 250 OFFCURVE",
"785 142 OFFCURVE",
"701 82 CURVE SMOOTH",
"653 48 OFFCURVE",
"595 33 OFFCURVE",
"536 33 CURVE SMOOTH"
);
}
);
width = 962;
}
);
leftKerningGroup = O;
note = O;
rightKerningGroup = O;
unicode = 004F;
},
{
glyphname = Q;
lastChange = "2020-03-09 09:03:56 +0000";
layers = (
{
anchors = (
{
name = bottom;
position = "{481, 0}";
},
{
name = top;
position = "{481, 675}";
}
);
layerId = "543A10D7-AEBA-4506-A699-AAC0E38B8B94";
paths = (
{
closed = 1;
nodes = (
"420 -794 OFFCURVE",
"449 -775 OFFCURVE",
"460 -695 CURVE SMOOTH",
"465 -655 OFFCURVE",
"521 -217 OFFCURVE",
"521 -87 CURVE SMOOTH",
"521 -7 LINE",
"587 -1 OFFCURVE",
"653 22 OFFCURVE",
"712 64 CURVE SMOOTH",
"819 140 OFFCURVE",
"880 272 OFFCURVE",
"880 404 CURVE SMOOTH",
"880 486 OFFCURVE",
"857 568 OFFCURVE",
"807 638 CURVE SMOOTH",
"732 745 OFFCURVE",
"606 805 OFFCURVE",
"479 805 CURVE SMOOTH",
"400 805 OFFCURVE",
"320 782 OFFCURVE",
"250 733 CURVE SMOOTH",
"143 658 OFFCURVE",
"82 526 OFFCURVE",
"82 393 CURVE SMOOTH",
"82 311 OFFCURVE",
"105 229 OFFCURVE",
"155 159 CURVE SMOOTH",
"224 61 OFFCURVE",
"335 2 OFFCURVE",
"453 -7 CURVE",
"453 -581 LINE SMOOTH",
"453 -712 OFFCURVE",
"452 -783 OFFCURVE",
"341 -800 CURVE",
"341 -812 LINE"
);
},
{
closed = 1;
nodes = (
"521 162 LINE SMOOTH",
"521 293 OFFCURVE",
"522 366 OFFCURVE",
"633 383 CURVE",
"633 395 LINE",
"630 395 OFFCURVE",
"521 377 OFFCURVE",
"484 377 CURVE",
"452 366 OFFCURVE",
"453 295 OFFCURVE",
"453 164 CURVE SMOOTH",
"453 40 LINE",
"356 62 OFFCURVE",
"264 119 OFFCURVE",
"209 198 CURVE SMOOTH",
"162 264 OFFCURVE",
"137 353 OFFCURVE",
"137 441 CURVE SMOOTH",
"137 552 OFFCURVE",
"176 660 OFFCURVE",
"259 719 CURVE SMOOTH",
"307 753 OFFCURVE",
"365 768 OFFCURVE",
"424 768 CURVE SMOOTH",
"549 768 OFFCURVE",
"682 701 OFFCURVE",
"753 600 CURVE SMOOTH",
"800 534 OFFCURVE",
"824 446 OFFCURVE",
"824 359 CURVE SMOOTH",
"824 248 OFFCURVE",
"785 140 OFFCURVE",
"701 80 CURVE SMOOTH",
"648 43 OFFCURVE",
"585 28 OFFCURVE",
"521 31 CURVE"
);
}
);
width = 962;
}
);
leftKerningGroup = O;
note = Q;
rightKerningGroup = O;
unicode = 0051;
},
{
glyphname = dollar;
lastChange = "2020-03-09 09:03:56 +0000";
layers = (
{
layerId = "543A10D7-AEBA-4506-A699-AAC0E38B8B94";
paths = (
{
closed = 1;
nodes = (
"515 -814 OFFCURVE",
"645 -754 OFFCURVE",
"724 -645 CURVE",
"778 -562 OFFCURVE",
"802 -466 OFFCURVE",
"802 -370 CURVE SMOOTH",
"802 -176 OFFCURVE",
"703 20 OFFCURVE",
"551 108 CURVE SMOOTH",
"486 146 LINE",
"486 737 LINE",
"595 691 OFFCURVE",
"689 599 OFFCURVE",
"723 488 CURVE",
"735 488 LINE",
"735 491 OFFCURVE",
"717 600 OFFCURVE",
"717 637 CURVE SMOOTH",
"717 679 OFFCURVE",
"717 701 OFFCURVE",
"735 780 CURVE",
"723 780 LINE",
"716 737 OFFCURVE",
"702 705 OFFCURVE",
"678 683 CURVE",
"602 762 OFFCURVE",
"496 805 OFFCURVE",
"387 805 CURVE SMOOTH",
"206 805 OFFCURVE",
"71 645 OFFCURVE",
"71 470 CURVE SMOOTH",
"71 330 OFFCURVE",
"153 256 OFFCURVE",
"266 188 CURVE SMOOTH",
"302 167 LINE",
"302 -757 LINE",
"202 -719 OFFCURVE",
"83 -609 OFFCURVE",
"49 -497 CURVE",
"37 -497 LINE",
"37 -500 OFFCURVE",
"55 -609 OFFCURVE",
"55 -646 CURVE SMOOTH",
"55 -688 OFFCURVE",
"55 -710 OFFCURVE",
"37 -789 CURVE",
"49 -789 LINE",
"56 -746 OFFCURVE",
"70 -714 OFFCURVE",
"94 -692 CURVE",
"168 -769 OFFCURVE",
"271 -812 OFFCURVE",
"377 -814 CURVE SMOOTH"
);
},
{
closed = 1;
nodes = (
"352 -772 OFFCURVE",
"335 -769 OFFCURVE",
"316 -763 CURVE",
"316 159 LINE",
"472 67 LINE",
"472 -761 LINE",
"437 -768 OFFCURVE",
"402 -772 OFFCURVE",
"369 -772 CURVE SMOOTH"
);
},
{
closed = 1;
nodes = (
"486 59 LINE",
"516 42 LINE",
"679 -68 OFFCURVE",
"758 -271 OFFCURVE",
"758 -436 CURVE SMOOTH",
"758 -514 OFFCURVE",
"740 -583 OFFCURVE",
"707 -630 CURVE SMOOTH",
"660 -694 OFFCURVE",
"575 -738 OFFCURVE",
"486 -758 CURVE"
);
},
{
closed = 1;
nodes = (
"299 257 LINE SMOOTH",
"160 355 OFFCURVE",
"128 425 OFFCURVE",
"128 538 CURVE",
"135 651 OFFCURVE",
"188 755 OFFCURVE",
"302 768 CURVE",
"302 255 LINE"
);
},
{
closed = 1;
nodes = (
"316 246 LINE",
"316 769 LINE",
"368 772 OFFCURVE",
"421 762 OFFCURVE",
"472 743 CURVE",
"472 154 LINE"
);
}
);
width = 849;
}
);
leftKerningGroup = S;
note = dollar;
rightKerningGroup = S;
unicode = 0024;
},
{
glyphname = florin;
lastChange = "2020-03-09 09:03:56 +0000";
layers = (
{
layerId = "543A10D7-AEBA-4506-A699-AAC0E38B8B94";
paths = (
{
closed = 1;
nodes = (
"102 -796 OFFCURVE",
"166 -798 OFFCURVE",
"166 -436 CURVE SMOOTH",
"166 -394 OFFCURVE",
"202 224 OFFCURVE",
"202 364 CURVE SMOOTH",
"202 387 OFFCURVE",
"202 406 OFFCURVE",
"203 425 CURVE",
"363 425 LINE",
"363 459 LINE",
"203 459 LINE",
"205 562 OFFCURVE",
"205 578 OFFCURVE",
"206 579 CURVE",
"206 585 LINE SMOOTH",
"206 647 OFFCURVE",
"214 692 OFFCURVE",
"236 718 CURVE SMOOTH",
"251 736 OFFCURVE",
"283 746 OFFCURVE",
"316 746 CURVE SMOOTH",
"368 746 OFFCURVE",
"424 721 OFFCURVE",
"424 666 CURVE SMOOTH",
"424 654 OFFCURVE",
"421 640 OFFCURVE",
"415 625 CURVE",
"415 625 OFFCURVE",
"471 646 OFFCURVE",
"471 681 CURVE SMOOTH",
"471 757 OFFCURVE",
"429 781 OFFCURVE",
"379 781 CURVE SMOOTH",
"322 781 OFFCURVE",
"254 749 OFFCURVE",
"225 726 CURVE SMOOTH",
"168 680 OFFCURVE",
"136 602 OFFCURVE",
"136 497 CURVE SMOOTH",
"136 490 OFFCURVE",
"135 475 OFFCURVE",
"135 459 CURVE",
"-10 459 LINE",
"-10 425 LINE",
"135 425 LINE",
"134 315 OFFCURVE",
"134 102 OFFCURVE",
"134 -104 CURVE SMOOTH",
"134 -310 OFFCURVE",
"134 -508 OFFCURVE",
"134 -588 CURVE SMOOTH",
"134 -719 OFFCURVE",
"134 -785 OFFCURVE",
"23 -802 CURVE",
"23 -814 LINE"
);
}
);
width = 371;
}
);
note = florin;
unicode = 0192;
},
{
glyphname = OE;
lastChange = "2020-03-09 09:05:17 +0000";
layers = (
{
layerId = "543A10D7-AEBA-4506-A699-AAC0E38B8B94";
paths = (
{
closed = 1;
nodes = (
"563 8 OFFCURVE",
"643 31 OFFCURVE",
"712 80 CURVE SMOOTH",
"775 125 OFFCURVE",
"822 187 OFFCURVE",
"850 257 CURVE",
"862 228 OFFCURVE",
"876 201 OFFCURVE",
"895 175 CURVE SMOOTH",
"970 68 OFFCURVE",
"1096 8 OFFCURVE",
"1224 8 CURVE SMOOTH",
"1303 8 OFFCURVE",
"1383 31 OFFCURVE",
"1452 80 CURVE",
"1441 96 LINE",
"1393 62 OFFCURVE",
"1335 47 OFFCURVE",
"1276 47 CURVE SMOOTH",
"1152 47 OFFCURVE",
"1021 113 OFFCURVE",
"949 214 CURVE SMOOTH",
"911 266 OFFCURVE",
"887 331 OFFCURVE",
"879 398 CURVE",
"879 404 LINE",
"1671 404 LINE",
"1671 418 LINE",
"879 418 LINE",
"875 535 OFFCURVE",
"902 649 OFFCURVE",
"999 719 CURVE SMOOTH",
"1049 754 OFFCURVE",
"1106 770 OFFCURVE",
"1166 770 CURVE SMOOTH",
"1330 770 OFFCURVE",
"1505 649 OFFCURVE",
"1554 488 CURVE",
"1566 488 LINE",
"1566 491 OFFCURVE",
"1548 600 OFFCURVE",
"1548 637 CURVE SMOOTH",
"1548 679 OFFCURVE",
"1548 701 OFFCURVE",
"1566 780 CURVE",
"1554 780 LINE",
"1547 737 OFFCURVE",
"1533 705 OFFCURVE",
"1509 683 CURVE",
"1433 762 OFFCURVE",
"1327 805 OFFCURVE",
"1218 805 CURVE SMOOTH",
"1140 805 OFFCURVE",
"1060 782 OFFCURVE",
"990 733 CURVE SMOOTH",
"927 688 OFFCURVE",
"879 626 OFFCURVE",
"851 556 CURVE",
"840 584 OFFCURVE",
"825 612 OFFCURVE",
"807 638 CURVE SMOOTH",
"732 745 OFFCURVE",
"606 805 OFFCURVE",
"479 805 CURVE SMOOTH",
"400 805 OFFCURVE",
"320 782 OFFCURVE",
"250 733 CURVE SMOOTH",
"143 658 OFFCURVE",
"82 532 OFFCURVE",
"82 404 CURVE SMOOTH",
"82 325 OFFCURVE",
"105 245 OFFCURVE",
"155 175 CURVE SMOOTH",
"230 68 OFFCURVE",
"356 8 OFFCURVE",
"484 8 CURVE SMOOTH"
);
},
{
closed = 1;
nodes = (
"412 47 OFFCURVE",
"281 113 OFFCURVE",
"209 214 CURVE SMOOTH",
"162 280 OFFCURVE",
"137 366 OFFCURVE",
"137 451 CURVE SMOOTH",
"137 557 OFFCURVE",
"176 660 OFFCURVE",
"259 719 CURVE SMOOTH",
"307 753 OFFCURVE",
"365 768 OFFCURVE",
"424 768 CURVE SMOOTH",
"549 768 OFFCURVE",
"682 701 OFFCURVE",
"753 600 CURVE SMOOTH",
"792 545 OFFCURVE",
"815 477 OFFCURVE",
"822 407 CURVE",
"824 281 OFFCURVE",
"799 166 OFFCURVE",
"701 96 CURVE SMOOTH",
"653 62 OFFCURVE",
"595 47 OFFCURVE",
"536 47 CURVE SMOOTH"
);
}
);
width = 1643;
}
);
leftKerningGroup = O;
note = OE;
rightKerningGroup = OE;
unicode = 0152;
},
{
glyphname = oe;
lastChange = "2020-03-09 09:05:17 +0000";
layers = (
{
layerId = "543A10D7-AEBA-4506-A699-AAC0E38B8B94";
paths = (
{
closed = 1;
nodes = (
"335 -7 OFFCURVE",
"381 6 OFFCURVE",
"421 35 CURVE SMOOTH",
"448 54 OFFCURVE",
"470 79 OFFCURVE",
"486 108 CURVE",
"498 90 LINE SMOOTH",
"541 28 OFFCURVE",
"614 -7 OFFCURVE",
"688 -7 CURVE SMOOTH",
"734 -7 OFFCURVE",
"780 6 OFFCURVE",
"820 35 CURVE",
"856 65 OFFCURVE",
"860 72 OFFCURVE",
"869 90 CURVE",
"848 103 LINE",
"837 87 OFFCURVE",
"829 73 OFFCURVE",
"801 55 CURVE SMOOTH",
"781 41 OFFCURVE",
"758 35 OFFCURVE",
"733 35 CURVE SMOOTH",
"668 35 OFFCURVE",
"595 80 OFFCURVE",
"557 136 CURVE SMOOTH",
"539 161 OFFCURVE",
"525 192 OFFCURVE",
"518 225 CURVE SMOOTH",
"515 243 OFFCURVE",
"512 262 OFFCURVE",
"512 282 CURVE SMOOTH",
"512 326 OFFCURVE",
"524 370 OFFCURVE",
"562 397 CURVE SMOOTH",
"582 412 OFFCURVE",
"606 418 OFFCURVE",
"630 418 CURVE SMOOTH",
"696 418 OFFCURVE",
"769 372 OFFCURVE",
"808 316 CURVE",
"583 157 LINE",
"590 148 LINE",
"897 347 LINE",
"884 367 LINE",
"867 355 LINE",
"831 428 OFFCURVE",
"765 459 OFFCURVE",
"697 459 CURVE SMOOTH",
"647 459 OFFCURVE",
"595 442 OFFCURVE",
"553 412 CURVE SMOOTH",
"526 393 OFFCURVE",
"504 369 OFFCURVE",
"488 342 CURVE",
"476 362 LINE",
"432 424 OFFCURVE",
"360 459 OFFCURVE",
"287 459 CURVE SMOOTH",
"241 459 OFFCURVE",
"195 446 OFFCURVE",
"154 417 CURVE SMOOTH",
"92 373 OFFCURVE",
"56 299 OFFCURVE",
"56 224 CURVE SMOOTH",
"56 177 OFFCURVE",
"70 130 OFFCURVE",
"99 90 CURVE SMOOTH",
"142 28 OFFCURVE",
"215 -7 OFFCURVE",
"289 -7 CURVE SMOOTH"
);
},
{
closed = 1;
nodes = (
"269 34 OFFCURVE",
"196 80 OFFCURVE",
"158 136 CURVE SMOOTH",
"130 175 OFFCURVE",
"112 231 OFFCURVE",
"112 282 CURVE SMOOTH",
"112 330 OFFCURVE",
"127 375 OFFCURVE",
"163 402 CURVE SMOOTH",
"183 417 OFFCURVE",
"207 423 OFFCURVE",
"231 423 CURVE SMOOTH",
"297 423 OFFCURVE",
"370 377 OFFCURVE",
"409 321 CURVE SMOOTH",
"436 280 OFFCURVE",
"454 225 OFFCURVE",
"454 174 CURVE SMOOTH",
"454 126 OFFCURVE",
"439 82 OFFCURVE",
"402 55 CURVE SMOOTH",
"382 40 OFFCURVE",
"359 34 OFFCURVE",
"335 34 CURVE SMOOTH"
);
}
);
width = 951;
}
);
leftKerningGroup = o;
note = oe;
rightKerningGroup = e;
unicode = 0153;
},
{
glyphname = AE;
lastChange = "2020-03-09 09:46:44 +0000";
layers = (
{
layerId = "543A10D7-AEBA-4506-A699-AAC0E38B8B94";
paths = (
{
closed = 1;
nodes = (
"1160 -6 OFFCURVE",
"1240 17 OFFCURVE",
"1310 66 CURVE",
"1299 82 LINE",
"1251 48 OFFCURVE",
"1193 33 OFFCURVE",
"1134 33 CURVE SMOOTH",
"1025 33 OFFCURVE",
"911 84 OFFCURVE",
"836 164 CURVE",
"763 287 LINE",
"749 325 OFFCURVE",
"741 366 OFFCURVE",
"737 404 CURVE",
"1529 404 LINE",
"1529 418 LINE",
"736 418 LINE",
"735 429 OFFCURVE",
"735 440 OFFCURVE",
"735 452 CURVE SMOOTH",
"735 556 OFFCURVE",
"773 658 OFFCURVE",
"857 719 CURVE SMOOTH",
"907 754 OFFCURVE",
"964 770 OFFCURVE",
"1024 770 CURVE SMOOTH",
"1188 770 OFFCURVE",
"1363 649 OFFCURVE",
"1412 488 CURVE",
"1424 488 LINE",
"1424 491 OFFCURVE",
"1406 600 OFFCURVE",
"1406 637 CURVE SMOOTH",
"1406 679 OFFCURVE",
"1406 701 OFFCURVE",
"1424 780 CURVE",
"1412 780 LINE",
"1405 737 OFFCURVE",
"1391 705 OFFCURVE",
"1367 683 CURVE",
"1291 762 OFFCURVE",
"1185 805 OFFCURVE",
"1076 805 CURVE SMOOTH",
"998 805 OFFCURVE",
"918 782 OFFCURVE",
"848 733 CURVE SMOOTH",
"749 663 OFFCURVE",
"689 546 OFFCURVE",
"681 425 CURVE",
"477 768 LINE",
"72 0 LINE",
"934 0 LINE",
"917 28 LINE",
"968 6 OFFCURVE",
"1024 -6 OFFCURVE",
"1081 -6 CURVE SMOOTH"
);
},
{
closed = 1;
nodes = (
"102 23 LINE",
"448 669 LINE",
"833 22 LINE"
);
}
);
width = 1501;
}
);
leftKerningGroup = A;
leftMetricsKey = A;
rightKerningGroup = OE;
rightMetricsKey = E;
unicode = 00C6;
},
{
glyphname = ellipsis;
lastChange = "2020-03-08 13:28:25 +0000";
layers = (
{
layerId = "543A10D7-AEBA-4506-A699-AAC0E38B8B94";
paths = (
{
closed = 1;
nodes = (
"553 -2 OFFCURVE",
"576 20 OFFCURVE",
"576 48 CURVE SMOOTH",
"576 76 OFFCURVE",
"553 99 OFFCURVE",
"525 99 CURVE SMOOTH",
"497 99 OFFCURVE",
"475 76 OFFCURVE",
"475 48 CURVE SMOOTH",
"475 20 OFFCURVE",
"497 -2 OFFCURVE",
"525 -2 CURVE SMOOTH"
);
},
{
closed = 1;
nodes = (
"153 -2 OFFCURVE",
"176 20 OFFCURVE",
"176 48 CURVE SMOOTH",
"176 76 OFFCURVE",
"153 99 OFFCURVE",
"125 99 CURVE SMOOTH",
"97 99 OFFCURVE",
"75 76 OFFCURVE",
"75 48 CURVE SMOOTH",
"75 20 OFFCURVE",
"97 -2 OFFCURVE",
"125 -2 CURVE SMOOTH"
);
},
{
closed = 1;
nodes = (
"353 -2 OFFCURVE",
"376 20 OFFCURVE",
"376 48 CURVE SMOOTH",
"376 76 OFFCURVE",
"353 99 OFFCURVE",
"325 99 CURVE SMOOTH",
"297 99 OFFCURVE",
"275 76 OFFCURVE",
"275 48 CURVE SMOOTH",
"275 20 OFFCURVE",
"297 -2 OFFCURVE",
"325 -2 CURVE SMOOTH"
);
}
);
width = 651;
}
);
note = ellipsis;
unicode = 2026;
},
{
glyphname = dieresis;
lastChange = "2020-03-08 13:28:25 +0000";
layers = (
{
layerId = "543A10D7-AEBA-4506-A699-AAC0E38B8B94";
paths = (
{
closed = 1;
nodes = (
"378 504 OFFCURVE",
"401 526 OFFCURVE",
"401 554 CURVE SMOOTH",
"401 582 OFFCURVE",
"378 605 OFFCURVE",
"350 605 CURVE SMOOTH",
"322 605 OFFCURVE",
"300 582 OFFCURVE",
"300 554 CURVE SMOOTH",
"300 526 OFFCURVE",
"322 504 OFFCURVE",
"350 504 CURVE SMOOTH"
);
},
{
closed = 1;
nodes = (
"178 504 OFFCURVE",
"201 526 OFFCURVE",
"201 554 CURVE SMOOTH",
"201 582 OFFCURVE",
"178 605 OFFCURVE",
"150 605 CURVE SMOOTH",
"122 605 OFFCURVE",
"100 582 OFFCURVE",
"100 554 CURVE SMOOTH",
"100 526 OFFCURVE",
"122 504 OFFCURVE",
"150 504 CURVE SMOOTH"
);
}
);
width = 501;
}
);
note = dieresis;
unicode = 00A8;
},
{
glyphname = Edieresis;
lastChange = "2020-03-09 09:05:17 +0000";
layers = (
{
layerId = "543A10D7-AEBA-4506-A699-AAC0E38B8B94";
paths = (
{
closed = 1;
nodes = (
"558 -6 OFFCURVE",
"638 17 OFFCURVE",
"707 66 CURVE",
"696 82 LINE",
"648 48 OFFCURVE",
"590 33 OFFCURVE",
"531 33 CURVE SMOOTH",
"407 33 OFFCURVE",
"276 99 OFFCURVE",
"204 200 CURVE SMOOTH",
"165 254 OFFCURVE",
"141 335 OFFCURVE",
"134 404 CURVE",
"926 404 LINE",
"926 418 LINE",
"133 418 LINE",
"132 429 OFFCURVE",
"132 440 OFFCURVE",
"132 452 CURVE SMOOTH",
"132 556 OFFCURVE",
"170 658 OFFCURVE",
"254 719 CURVE SMOOTH",
"304 754 OFFCURVE",
"361 770 OFFCURVE",
"421 770 CURVE SMOOTH",
"585 770 OFFCURVE",
"760 649 OFFCURVE",
"809 488 CURVE",
"821 488 LINE",
"821 491 OFFCURVE",
"803 600 OFFCURVE",
"803 637 CURVE SMOOTH",
"803 679 OFFCURVE",
"803 701 OFFCURVE",
"821 780 CURVE",
"809 780 LINE",
"802 737 OFFCURVE",
"788 705 OFFCURVE",
"764 683 CURVE",
"688 762 OFFCURVE",
"582 805 OFFCURVE",
"473 805 CURVE SMOOTH",
"395 805 OFFCURVE",
"315 782 OFFCURVE",
"245 733 CURVE SMOOTH",
"138 658 OFFCURVE",
"77 527 OFFCURVE",
"77 394 CURVE SMOOTH",
"77 313 OFFCURVE",
"100 231 OFFCURVE",
"150 161 CURVE SMOOTH",
"225 54 OFFCURVE",
"351 -6 OFFCURVE",
"479 -6 CURVE SMOOTH"
);
},
{
closed = 1;
nodes = (
"400 843 OFFCURVE",
"423 865 OFFCURVE",
"423 893 CURVE SMOOTH",
"423 921 OFFCURVE",
"400 944 OFFCURVE",
"372 944 CURVE SMOOTH",
"344 944 OFFCURVE",
"322 921 OFFCURVE",
"322 893 CURVE SMOOTH",
"322 865 OFFCURVE",
"344 843 OFFCURVE",
"372 843 CURVE SMOOTH"
);
},
{
closed = 1;
nodes = (
"600 843 OFFCURVE",
"623 865 OFFCURVE",
"623 893 CURVE SMOOTH",
"623 921 OFFCURVE",
"600 944 OFFCURVE",
"572 944 CURVE SMOOTH",
"544 944 OFFCURVE",
"522 921 OFFCURVE",
"522 893 CURVE SMOOTH",
"522 865 OFFCURVE",
"544 843 OFFCURVE",
"572 843 CURVE SMOOTH"
);
}
);
width = 898;
}
);
leftKerningGroup = O;
note = Edieresis;
rightKerningGroup = OE;
unicode = 00CB;
},
{
glyphname = Idieresis;
lastChange = "2020-03-08 13:28:25 +0000";
layers = (
{
layerId = "543A10D7-AEBA-4506-A699-AAC0E38B8B94";
paths = (
{
closed = 1;
nodes = (
"134 21 OFFCURVE",
"156 21 OFFCURVE",
"198 21 CURVE SMOOTH",
"235 21 OFFCURVE",
"344 3 OFFCURVE",
"347 3 CURVE",
"347 15 LINE",
"236 32 OFFCURVE",
"235 105 OFFCURVE",
"235 236 CURVE SMOOTH",
"235 532 LINE SMOOTH",
"235 663 OFFCURVE",
"236 736 OFFCURVE",
"347 753 CURVE",
"347 765 LINE",
"344 765 OFFCURVE",
"235 747 OFFCURVE",
"198 747 CURVE SMOOTH",
"156 747 OFFCURVE",
"134 747 OFFCURVE",
"55 765 CURVE",
"55 753 LINE",
"166 736 OFFCURVE",
"167 665 OFFCURVE",
"167 534 CURVE SMOOTH",
"167 234 LINE SMOOTH",
"167 103 OFFCURVE",
"166 32 OFFCURVE",
"55 15 CURVE",
"55 3 LINE"
);
},
{
closed = 1;
nodes = (
"130 843 OFFCURVE",
"153 865 OFFCURVE",
"153 893 CURVE SMOOTH",
"153 921 OFFCURVE",
"130 944 OFFCURVE",
"102 944 CURVE SMOOTH",
"74 944 OFFCURVE",
"52 921 OFFCURVE",
"52 893 CURVE SMOOTH",
"52 865 OFFCURVE",
"74 843 OFFCURVE",
"102 843 CURVE SMOOTH"
);
},
{
closed = 1;
nodes = (
"330 843 OFFCURVE",
"353 865 OFFCURVE",
"353 893 CURVE SMOOTH",
"353 921 OFFCURVE",
"330 944 OFFCURVE",
"302 944 CURVE SMOOTH",
"274 944 OFFCURVE",
"252 921 OFFCURVE",
"252 893 CURVE SMOOTH",
"252 865 OFFCURVE",
"274 843 OFFCURVE",
"302 843 CURVE SMOOTH"
);
}
);
width = 405;
}
);
leftKerningGroup = K;
note = Idieresis;
rightKerningGroup = I;
unicode = 00CF;
},
{
glyphname = Odieresis;
lastChange = "2020-03-09 09:05:17 +0000";
layers = (
{
layerId = "543A10D7-AEBA-4506-A699-AAC0E38B8B94";
paths = (
{
closed = 1;
nodes = (
"563 -6 OFFCURVE",
"643 17 OFFCURVE",
"712 66 CURVE SMOOTH",
"819 142 OFFCURVE",
"880 273 OFFCURVE",
"880 405 CURVE SMOOTH",
"880 486 OFFCURVE",
"857 568 OFFCURVE",
"807 638 CURVE SMOOTH",
"732 745 OFFCURVE",
"606 805 OFFCURVE",
"479 805 CURVE SMOOTH",
"400 805 OFFCURVE",
"320 782 OFFCURVE",
"250 733 CURVE SMOOTH",
"143 658 OFFCURVE",
"82 527 OFFCURVE",
"82 394 CURVE SMOOTH",
"82 313 OFFCURVE",
"105 231 OFFCURVE",
"155 161 CURVE SMOOTH",
"230 54 OFFCURVE",
"356 -6 OFFCURVE",
"484 -6 CURVE SMOOTH"
);
},
{
closed = 1;
nodes = (
"412 33 OFFCURVE",
"281 99 OFFCURVE",
"209 200 CURVE SMOOTH",
"162 266 OFFCURVE",
"137 355 OFFCURVE",
"137 442 CURVE SMOOTH",
"137 552 OFFCURVE",
"176 660 OFFCURVE",
"259 719 CURVE SMOOTH",
"307 753 OFFCURVE",
"365 768 OFFCURVE",
"424 768 CURVE SMOOTH",
"549 768 OFFCURVE",
"682 701 OFFCURVE",
"753 600 CURVE SMOOTH",
"800 534 OFFCURVE",
"824 446 OFFCURVE",
"824 360 CURVE SMOOTH",
"824 250 OFFCURVE",
"785 142 OFFCURVE",
"701 82 CURVE SMOOTH",
"653 48 OFFCURVE",
"595 33 OFFCURVE",
"536 33 CURVE SMOOTH"
);
},
{
closed = 1;
nodes = (
"402 841 OFFCURVE",
"425 863 OFFCURVE",
"425 891 CURVE SMOOTH",
"425 919 OFFCURVE",
"402 942 OFFCURVE",
"374 942 CURVE SMOOTH",
"346 942 OFFCURVE",
"324 919 OFFCURVE",
"324 891 CURVE SMOOTH",
"324 863 OFFCURVE",
"346 841 OFFCURVE",
"374 841 CURVE SMOOTH"
);
},
{
closed = 1;
nodes = (
"602 841 OFFCURVE",
"625 863 OFFCURVE",
"625 891 CURVE SMOOTH",
"625 919 OFFCURVE",
"602 942 OFFCURVE",
"574 942 CURVE SMOOTH",
"546 942 OFFCURVE",
"524 919 OFFCURVE",
"524 891 CURVE SMOOTH",
"524 863 OFFCURVE",
"546 841 OFFCURVE",
"574 841 CURVE SMOOTH"
);
}
);
width = 962;
}
);
leftKerningGroup = O;
note = Odieresis;
rightKerningGroup = O;
unicode = 00D6;
},
{
glyphname = Udieresis;
lastChange = "2020-03-08 13:28:25 +0000";
layers = (
{
layerId = "543A10D7-AEBA-4506-A699-AAC0E38B8B94";
paths = (
{
closed = 1;
nodes = (
"796 -12 OFFCURVE",
"949 123 OFFCURVE",
"949 400 CURVE SMOOTH",
"949 536 LINE SMOOTH",
"949 667 OFFCURVE",
"961 736 OFFCURVE",
"1072 753 CURVE",
"1072 765 LINE",
"1069 765 OFFCURVE",
"977 747 OFFCURVE",
"940 747 CURVE SMOOTH",
"898 747 OFFCURVE",
"896 747 OFFCURVE",
"817 765 CURVE",
"817 753 LINE",
"928 736 OFFCURVE",
"936 666 OFFCURVE",
"935 535 CURVE SMOOTH",
"935 400 LINE SMOOTH",
"935 157 OFFCURVE",
"813 0 OFFCURVE",
"561 0 CURVE SMOOTH",
"379 0 OFFCURVE",
"257 127 OFFCURVE",
"257 396 CURVE SMOOTH",
"257 532 LINE SMOOTH",
"257 663 OFFCURVE",
"258 736 OFFCURVE",
"369 753 CURVE",
"369 765 LINE",
"366 765 OFFCURVE",
"257 747 OFFCURVE",
"220 747 CURVE SMOOTH",
"178 747 OFFCURVE",
"156 747 OFFCURVE",
"77 765 CURVE",
"77 753 LINE",
"188 736 OFFCURVE",
"190 665 OFFCURVE",
"189 534 CURVE SMOOTH",
"188 395 LINE SMOOTH",
"188 103 OFFCURVE",
"351 -12 OFFCURVE",
"562 -12 CURVE SMOOTH"
);
},
{
closed = 1;
nodes = (
"513 843 OFFCURVE",
"536 865 OFFCURVE",
"536 893 CURVE SMOOTH",
"536 921 OFFCURVE",
"513 944 OFFCURVE",
"485 944 CURVE SMOOTH",
"457 944 OFFCURVE",
"435 921 OFFCURVE",
"435 893 CURVE SMOOTH",
"435 865 OFFCURVE",
"457 843 OFFCURVE",
"485 843 CURVE SMOOTH"
);
},
{
closed = 1;
nodes = (
"713 843 OFFCURVE",
"736 865 OFFCURVE",
"736 893 CURVE SMOOTH",
"736 921 OFFCURVE",
"713 944 OFFCURVE",
"685 944 CURVE SMOOTH",
"657 944 OFFCURVE",
"635 921 OFFCURVE",
"635 893 CURVE SMOOTH",
"635 865 OFFCURVE",
"657 843 OFFCURVE",
"685 843 CURVE SMOOTH"
);
}
);
width = 1149;
}
);
leftKerningGroup = U;
note = Udieresis;
rightKerningGroup = U;
unicode = 00DC;
},
{
glyphname = adieresis;
lastChange = "2020-03-09 09:03:56 +0000";
layers = (
{
layerId = "543A10D7-AEBA-4506-A699-AAC0E38B8B94";
paths = (
{
closed = 1;
nodes = (
"217 -7 OFFCURVE",
"321 67 OFFCURVE",
"326 81 CURVE",
"326 59 OFFCURVE",
"326 0 OFFCURVE",
"383 0 CURVE SMOOTH",
"476 0 OFFCURVE",
"520 65 OFFCURVE",
"523 65 CURVE",
"507 83 LINE",
"499 74 OFFCURVE",
"449 49 OFFCURVE",
"431 49 CURVE SMOOTH",
"407 49 OFFCURVE",
"391 72 OFFCURVE",
"391 175 CURVE SMOOTH",
"391 325 LINE SMOOTH",
"391 429 OFFCURVE",
"322 460 OFFCURVE",
"243 460 CURVE SMOOTH",
"136 460 OFFCURVE",
"51 410 OFFCURVE",
"51 351 CURVE",
"119 306 LINE",
"119 392 OFFCURVE",
"167 441 OFFCURVE",
"212 441 CURVE SMOOTH",
"271 441 OFFCURVE",
"326 390 OFFCURVE",
"326 298 CURVE",
"238 273 LINE SMOOTH",
"91 231 OFFCURVE",
"48 183 OFFCURVE",
"48 104 CURVE SMOOTH",
"48 24 OFFCURVE",
"98 -7 OFFCURVE",
"158 -7 CURVE SMOOTH"
);
},
{
closed = 1;
nodes = (
"154 47 OFFCURVE",
"107 70 OFFCURVE",
"107 147 CURVE SMOOTH",
"107 207 OFFCURVE",
"163 233 OFFCURVE",
"225 250 CURVE SMOOTH",
"326 278 LINE",
"326 278 OFFCURVE",
"326 260 OFFCURVE",
"326 236 CURVE SMOOTH",
"326 187 OFFCURVE",
"326 115 OFFCURVE",
"326 115 CURVE",
"326 97 OFFCURVE",
"251 50 OFFCURVE",
"215 49 CURVE SMOOTH"
);
},
{
closed = 1;
nodes = (
"157 574 OFFCURVE",
"180 596 OFFCURVE",
"180 624 CURVE SMOOTH",
"180 652 OFFCURVE",
"157 675 OFFCURVE",
"129 675 CURVE SMOOTH",
"101 675 OFFCURVE",
"79 652 OFFCURVE",
"79 624 CURVE SMOOTH",
"79 596 OFFCURVE",
"101 574 OFFCURVE",
"129 574 CURVE SMOOTH"
);
},
{
closed = 1;
nodes = (
"357 574 OFFCURVE",
"380 596 OFFCURVE",
"380 624 CURVE SMOOTH",
"380 652 OFFCURVE",
"357 675 OFFCURVE",
"329 675 CURVE SMOOTH",
"301 675 OFFCURVE",
"279 652 OFFCURVE",
"279 624 CURVE SMOOTH",
"279 596 OFFCURVE",
"301 574 OFFCURVE",
"329 574 CURVE SMOOTH"
);
}
);
width = 534;
}
);
leftKerningGroup = a;
note = adieresis;
rightKerningGroup = d;
unicode = 00E4;
},
{
glyphname = odieresis;
lastChange = "2020-03-09 09:05:17 +0000";
layers = (
{
layerId = "543A10D7-AEBA-4506-A699-AAC0E38B8B94";
paths = (
{
closed = 1;
nodes = (
"335 -7 OFFCURVE",
"381 6 OFFCURVE",
"421 35 CURVE SMOOTH",
"483 79 OFFCURVE",
"518 153 OFFCURVE",
"518 229 CURVE SMOOTH",
"518 275 OFFCURVE",
"505 322 OFFCURVE",
"476 362 CURVE SMOOTH",
"432 424 OFFCURVE",
"360 459 OFFCURVE",
"287 459 CURVE SMOOTH",
"241 459 OFFCURVE",
"195 446 OFFCURVE",
"154 417 CURVE SMOOTH",
"91 373 OFFCURVE",
"56 299 OFFCURVE",
"56 224 CURVE SMOOTH",
"56 177 OFFCURVE",
"70 130 OFFCURVE",
"99 90 CURVE SMOOTH",
"142 28 OFFCURVE",
"215 -7 OFFCURVE",
"289 -7 CURVE SMOOTH"
);
},
{
closed = 1;
nodes = (
"269 34 OFFCURVE",
"196 80 OFFCURVE",
"158 136 CURVE SMOOTH",
"130 175 OFFCURVE",
"112 231 OFFCURVE",
"112 282 CURVE SMOOTH",
"112 330 OFFCURVE",
"127 375 OFFCURVE",
"163 402 CURVE SMOOTH",
"183 417 OFFCURVE",
"207 423 OFFCURVE",
"231 423 CURVE SMOOTH",
"297 423 OFFCURVE",
"370 377 OFFCURVE",
"409 321 CURVE SMOOTH",
"436 280 OFFCURVE",
"454 225 OFFCURVE",
"454 174 CURVE SMOOTH",
"454 126 OFFCURVE",
"439 82 OFFCURVE",
"402 55 CURVE SMOOTH",
"382 40 OFFCURVE",
"359 34 OFFCURVE",
"335 34 CURVE SMOOTH"
);
},
{
closed = 1;
nodes = (
"216 574 OFFCURVE",
"239 596 OFFCURVE",
"239 624 CURVE SMOOTH",
"239 652 OFFCURVE",
"216 675 OFFCURVE",
"188 675 CURVE SMOOTH",
"160 675 OFFCURVE",
"138 652 OFFCURVE",
"138 624 CURVE SMOOTH",
"138 596 OFFCURVE",
"160 574 OFFCURVE",
"188 574 CURVE SMOOTH"
);
},
{
closed = 1;
nodes = (
"416 574 OFFCURVE",
"439 596 OFFCURVE",
"439 624 CURVE SMOOTH",
"439 652 OFFCURVE",
"416 675 OFFCURVE",
"388 675 CURVE SMOOTH",
"360 675 OFFCURVE",
"338 652 OFFCURVE",
"338 624 CURVE SMOOTH",
"338 596 OFFCURVE",
"360 574 OFFCURVE",
"388 574 CURVE SMOOTH"
);
}
);
width = 574;
}
);
leftKerningGroup = o;
note = odieresis;
rightKerningGroup = o;
unicode = 00F6;
},
{
glyphname = udieresis;
lastChange = "2020-03-09 09:03:56 +0000";
layers = (
{
layerId = "543A10D7-AEBA-4506-A699-AAC0E38B8B94";
paths = (
{
closed = 1;
nodes = (
"483 -3 LINE",
"528 31 OFFCURVE",
"576 49 OFFCURVE",
"643 49 CURVE",
"643 61 LINE",
"534 78 OFFCURVE",
"531 77 OFFCURVE",
"531 203 CURVE SMOOTH",
"531 454 LINE",
"391 414 LINE",
"391 402 LINE",
"462 388 OFFCURVE",
"463 376 OFFCURVE",
"463 247 CURVE SMOOTH",
"463 214 OFFCURVE",
"456 31 OFFCURVE",
"280 31 CURVE SMOOTH",
"247 31 OFFCURVE",
"201 80 OFFCURVE",
"201 164 CURVE SMOOTH",
"201 454 LINE",
"133 436 OFFCURVE",
"54 424 OFFCURVE",
"51 424 CURVE",
"51 412 LINE",
"133 399 OFFCURVE",
"133 356 OFFCURVE",
"133 232 CURVE SMOOTH",
"133 146 LINE SMOOTH",
"133 29 OFFCURVE",
"208 3 OFFCURVE",
"276 3 CURVE SMOOTH",
"389 3 OFFCURVE",
"441 83 OFFCURVE",
"464 153 CURVE",
"464 -3 LINE"
);
},
{
closed = 1;
nodes = (
"247 574 OFFCURVE",
"270 596 OFFCURVE",
"270 624 CURVE SMOOTH",
"270 652 OFFCURVE",
"247 675 OFFCURVE",
"219 675 CURVE SMOOTH",
"191 675 OFFCURVE",
"169 652 OFFCURVE",
"169 624 CURVE SMOOTH",
"169 596 OFFCURVE",
"191 574 OFFCURVE",
"219 574 CURVE SMOOTH"
);
},
{
closed = 1;
nodes = (
"447 574 OFFCURVE",
"470 596 OFFCURVE",
"470 624 CURVE SMOOTH",
"470 652 OFFCURVE",
"447 675 OFFCURVE",
"419 675 CURVE SMOOTH",
"391 675 OFFCURVE",
"369 652 OFFCURVE",
"369 624 CURVE SMOOTH",
"369 596 OFFCURVE",
"391 574 OFFCURVE",
"419 574 CURVE SMOOTH"
);
}
);
width = 696;
}
);
leftKerningGroup = u;
note = udieresis;
rightKerningGroup = u;
unicode = 00FC;
},
{
glyphname = ydieresis;
lastChange = "2020-03-08 13:28:25 +0000";
layers = (
{
layerId = "543A10D7-AEBA-4506-A699-AAC0E38B8B94";
paths = (
{
closed = 1;
nodes = (
"-175 -796 OFFCURVE",
"-131 -784 OFFCURVE",
"61 -442 CURVE",
"515 441 LINE",
"22 441 LINE",
"272 23 LINE",
"25 -450 LINE",
"-33 -575 OFFCURVE",
"-143 -785 OFFCURVE",
"-254 -802 CURVE",
"-254 -814 LINE"
);
},
{
closed = 1;
nodes = (
"113 428 LINE",
"487 427 LINE",
"312 99 LINE"
);
},
{
closed = 1;
nodes = (
"197 574 OFFCURVE",
"220 596 OFFCURVE",
"220 624 CURVE SMOOTH",
"220 652 OFFCURVE",
"197 675 OFFCURVE",
"169 675 CURVE SMOOTH",
"141 675 OFFCURVE",
"119 652 OFFCURVE",
"119 624 CURVE SMOOTH",
"119 596 OFFCURVE",
"141 574 OFFCURVE",
"169 574 CURVE SMOOTH"
);
},
{
closed = 1;
nodes = (
"397 574 OFFCURVE",
"420 596 OFFCURVE",
"420 624 CURVE SMOOTH",
"420 652 OFFCURVE",
"397 675 OFFCURVE",
"369 675 CURVE SMOOTH",
"341 675 OFFCURVE",
"319 652 OFFCURVE",
"319 624 CURVE SMOOTH",
"319 596 OFFCURVE",
"341 574 OFFCURVE",
"369 574 CURVE SMOOTH"
);
}
);
width = 576;
}
);
leftKerningGroup = y;
note = ydieresis;
rightKerningGroup = ydieresis;
unicode = 00FF;
},
{
glyphname = dotaccent;
lastChange = "2020-03-08 13:28:25 +0000";
layers = (
{
layerId = "543A10D7-AEBA-4506-A699-AAC0E38B8B94";
paths = (
{
closed = 1;
nodes = (
"178 504 OFFCURVE",
"201 526 OFFCURVE",
"201 554 CURVE SMOOTH",
"201 582 OFFCURVE",
"178 605 OFFCURVE",
"150 605 CURVE SMOOTH",
"122 605 OFFCURVE",
"100 582 OFFCURVE",
"100 554 CURVE SMOOTH",
"100 526 OFFCURVE",
"122 504 OFFCURVE",
"150 504 CURVE SMOOTH"
);
}
);
width = 301;
}
);
note = dotaccent;
unicode = 02D9;
},
{
glyphname = fraction;
lastChange = "2019-05-31 17:34:00 +0000";
layers = (
{
layerId = "543A10D7-AEBA-4506-A699-AAC0E38B8B94";
paths = (
{
closed = 1;
nodes = (
"553 752 LINE",
"540 759 LINE",
"75 8 LINE",
"87 1 LINE"
);
}
);
width = 628;
}
);
note = fraction;
unicode = 2044;
},
{
glyphname = backslash;
lastChange = "2020-03-08 13:28:25 +0000";
layers = (
{
layerId = "543A10D7-AEBA-4506-A699-AAC0E38B8B94";
paths = (
{
closed = 1;
nodes = (
"553 8 LINE",
"88 759 LINE",
"75 752 LINE",
"541 1 LINE"
);
}
);
width = 628;
}
);
note = backslash;
unicode = 005C;
},
{
glyphname = slash;
lastChange = "2019-05-31 17:34:00 +0000";
layers = (
{
layerId = "543A10D7-AEBA-4506-A699-AAC0E38B8B94";
paths = (
{
closed = 1;
nodes = (
"553 752 LINE",
"540 759 LINE",
"75 8 LINE",
"87 1 LINE"
);
}
);
width = 628;
}
);
note = slash;
unicode = 002F;
},
{
glyphname = plus;
lastChange = "2020-03-08 13:28:25 +0000";
layers = (
{
layerId = "543A10D7-AEBA-4506-A699-AAC0E38B8B94";
paths = (
{
closed = 1;
nodes = (
"247 76 LINE",
"247 234 LINE",
"398 234 LINE",
"398 248 LINE",
"247 248 LINE",
"247 399 LINE",
"233 399 LINE",
"233 248 LINE",
"75 248 LINE",
"75 234 LINE",
"233 234 LINE",
"233 76 LINE"
);
}
);
width = 473;
}
);
note = plus;
unicode = 002B;
},
{
glyphname = colon;
lastChange = "2020-03-08 13:28:25 +0000";
layers = (
{
layerId = "543A10D7-AEBA-4506-A699-AAC0E38B8B94";
paths = (
{
closed = 1;
nodes = (
"222 263 OFFCURVE",
"245 286 OFFCURVE",
"245 314 CURVE SMOOTH",
"245 342 OFFCURVE",
"222 364 OFFCURVE",
"194 364 CURVE SMOOTH",
"166 364 OFFCURVE",
"144 342 OFFCURVE",
"144 314 CURVE SMOOTH",
"144 286 OFFCURVE",
"166 263 OFFCURVE",
"194 263 CURVE SMOOTH"
);
},
{
closed = 1;
nodes = (
"222 63 OFFCURVE",
"245 86 OFFCURVE",
"245 114 CURVE SMOOTH",
"245 142 OFFCURVE",
"222 164 OFFCURVE",
"194 164 CURVE SMOOTH",
"166 164 OFFCURVE",
"144 142 OFFCURVE",
"144 114 CURVE SMOOTH",
"144 86 OFFCURVE",
"166 63 OFFCURVE",
"194 63 CURVE SMOOTH"
);
}
);
width = 406;
}
);
note = colon;
unicode = 003A;
},
{
glyphname = period;
lastChange = "2020-03-08 13:28:25 +0000";
layers = (
{
layerId = "543A10D7-AEBA-4506-A699-AAC0E38B8B94";
paths = (
{
closed = 1;
nodes = (
"130 -1 OFFCURVE",
"153 22 OFFCURVE",
"153 50 CURVE SMOOTH",
"153 78 OFFCURVE",
"130 100 OFFCURVE",
"102 100 CURVE SMOOTH",
"74 100 OFFCURVE",
"52 78 OFFCURVE",
"52 50 CURVE SMOOTH",
"52 22 OFFCURVE",
"74 -1 OFFCURVE",
"102 -1 CURVE SMOOTH"
);
}
);
width = 205;
}
);
leftKerningGroup = period;
note = period;
unicode = 002E;
},
{
glyphname = multiply;
lastChange = "2020-03-08 13:28:25 +0000";
layers = (
{
layerId = "543A10D7-AEBA-4506-A699-AAC0E38B8B94";
paths = (
{
closed = 1;
nodes = (
"312 227 LINE",
"419 120 LINE",
"429 130 LINE",
"322 237 LINE",
"433 348 LINE",
"424 358 LINE",
"312 246 LINE",
"200 358 LINE",
"190 348 LINE",
"302 237 LINE",
"195 130 LINE",
"205 120 LINE"
);
}
);
width = 623;
}
);
note = multiply;
unicode = 00D7;
},
{
glyphname = Eth;
lastChange = "2020-03-09 09:05:17 +0000";
layers = (
{
layerId = "543A10D7-AEBA-4506-A699-AAC0E38B8B94";
paths = (
{
closed = 1;
nodes = (
"540 -3 OFFCURVE",
"649 25 OFFCURVE",
"726 80 CURVE SMOOTH",
"833 156 OFFCURVE",
"894 281 OFFCURVE",
"894 409 CURVE SMOOTH",
"894 488 OFFCURVE",
"871 568 OFFCURVE",
"821 638 CURVE SMOOTH",
"746 745 OFFCURVE",
"621 805 OFFCURVE",
"493 805 CURVE SMOOTH",
"429 805 OFFCURVE",
"364 790 OFFCURVE",
"305 758 CURVE",
"270 753 OFFCURVE",
"222 747 OFFCURVE",
"200 747 CURVE SMOOTH",
"158 747 OFFCURVE",
"136 747 OFFCURVE",
"57 765 CURVE",
"57 753 LINE",
"168 736 OFFCURVE",
"169 665 OFFCURVE",
"169 534 CURVE SMOOTH",
"169 347 LINE",
"52 347 LINE",
"52 333 LINE",
"169 333 LINE",
"169 234 LINE SMOOTH",
"169 103 OFFCURVE",
"168 32 OFFCURVE",
"57 15 CURVE",
"57 3 LINE",
"136 21 OFFCURVE",
"158 21 OFFCURVE",
"200 21 CURVE SMOOTH",
"237 21 OFFCURVE",
"346 4 OFFCURVE",
"349 4 CURVE",
"377 -1 OFFCURVE",
"406 -3 OFFCURVE",
"436 -3 CURVE SMOOTH"
);
},
{
closed = 1;
nodes = (
"393 31 OFFCURVE",
"310 49 OFFCURVE",
"249 88 CURVE",
"237 124 OFFCURVE",
"237 173 OFFCURVE",
"237 236 CURVE SMOOTH",
"237 333 LINE",
"375 333 LINE",
"375 347 LINE",
"237 347 LINE",
"237 532 LINE SMOOTH",
"237 621 OFFCURVE",
"237 683 OFFCURVE",
"273 719 CURVE",
"318 749 OFFCURVE",
"372 762 OFFCURVE",
"428 762 CURVE SMOOTH",
"559 762 OFFCURVE",
"701 692 OFFCURVE",
"767 600 CURVE SMOOTH",
"814 534 OFFCURVE",
"838 449 OFFCURVE",
"838 365 CURVE SMOOTH",
"838 259 OFFCURVE",
"799 156 OFFCURVE",
"715 96 CURVE SMOOTH",
"655 53 OFFCURVE",
"565 31 OFFCURVE",
"475 31 CURVE SMOOTH"
);
}
);
width = 971;
}
);
leftKerningGroup = K;
note = Eth;
rightKerningGroup = O;
unicode = 00D0;
},
{
glyphname = divide;
lastChange = "2020-03-08 13:28:25 +0000";
layers = (
{
layerId = "543A10D7-AEBA-4506-A699-AAC0E38B8B94";
paths = (
{
closed = 1;
nodes = (
"337 287 OFFCURVE",
"360 310 OFFCURVE",
"360 338 CURVE SMOOTH",
"360 366 OFFCURVE",
"337 388 OFFCURVE",
"309 388 CURVE SMOOTH",
"281 388 OFFCURVE",
"259 366 OFFCURVE",
"259 338 CURVE SMOOTH",
"259 310 OFFCURVE",
"281 287 OFFCURVE",
"309 287 CURVE SMOOTH"
);
},
{
closed = 1;
nodes = (
"337 87 OFFCURVE",
"360 110 OFFCURVE",
"360 138 CURVE SMOOTH",
"360 166 OFFCURVE",
"337 188 OFFCURVE",
"309 188 CURVE SMOOTH",
"281 188 OFFCURVE",
"259 166 OFFCURVE",
"259 138 CURVE SMOOTH",
"259 110 OFFCURVE",
"281 87 OFFCURVE",
"309 87 CURVE SMOOTH"
);
},
{
closed = 1;
nodes = (
"473 234 LINE",
"473 248 LINE",
"150 248 LINE",
"150 234 LINE"
);
}
);
width = 623;
}
);
note = divide;
unicode = 00F7;
},
{
glyphname = oslash;
lastChange = "2020-03-09 09:05:17 +0000";
layers = (
{
layerId = "543A10D7-AEBA-4506-A699-AAC0E38B8B94";
paths = (
{
closed = 1;
nodes = (
"188 15 LINE",
"219 1 OFFCURVE",
"254 -7 OFFCURVE",
"288 -7 CURVE SMOOTH",
"334 -7 OFFCURVE",
"381 7 OFFCURVE",
"421 35 CURVE SMOOTH",
"483 79 OFFCURVE",
"518 153 OFFCURVE",
"518 229 CURVE SMOOTH",
"518 275 OFFCURVE",
"505 322 OFFCURVE",
"476 362 CURVE SMOOTH",
"456 390 OFFCURVE",
"429 413 OFFCURVE",
"400 430 CURVE",
"437 502 LINE",
"424 509 LINE",
"387 436 LINE",
"355 451 OFFCURVE",
"321 459 OFFCURVE",
"286 459 CURVE SMOOTH",
"240 459 OFFCURVE",
"194 445 OFFCURVE",
"154 417 CURVE SMOOTH",
"92 373 OFFCURVE",
"56 299 OFFCURVE",
"56 224 CURVE SMOOTH",
"56 177 OFFCURVE",
"70 130 OFFCURVE",
"99 90 CURVE SMOOTH",
"119 61 OFFCURVE",
"146 38 OFFCURVE",
"176 21 CURVE",
"149 -32 LINE",
"161 -39 LINE"
);
},
{
closed = 1;
nodes = (
"188 99 OFFCURVE",
"171 117 OFFCURVE",
"158 136 CURVE SMOOTH",
"130 175 OFFCURVE",
"112 231 OFFCURVE",
"112 282 CURVE SMOOTH",
"112 330 OFFCURVE",
"127 375 OFFCURVE",
"163 402 CURVE SMOOTH",
"183 417 OFFCURVE",
"206 423 OFFCURVE",
"231 423 CURVE SMOOTH",
"273 423 OFFCURVE",
"318 404 OFFCURVE",
"356 375 CURVE",
"208 83 LINE"
);
},
{
closed = 1;
nodes = (
"295 34 OFFCURVE",
"254 50 OFFCURVE",
"219 75 CURVE",
"367 366 LINE",
"383 352 OFFCURVE",
"398 337 OFFCURVE",
"409 321 CURVE SMOOTH",
"436 280 OFFCURVE",
"454 225 OFFCURVE",
"454 174 CURVE SMOOTH",
"454 126 OFFCURVE",
"439 82 OFFCURVE",
"402 55 CURVE SMOOTH",
"382 40 OFFCURVE",
"358 34 OFFCURVE",
"334 34 CURVE SMOOTH"
);
}
);
width = 574;
}
);
leftKerningGroup = o;
note = oslash;
rightKerningGroup = o;
unicode = 00F8;
},
{
glyphname = minus;
lastChange = "2020-03-08 13:28:25 +0000";
layers = (
{
layerId = "543A10D7-AEBA-4506-A699-AAC0E38B8B94";
paths = (
{
closed = 1;
nodes = (
"423 234 LINE",
"423 248 LINE",
"100 248 LINE",
"100 234 LINE"
);
}
);
width = 523;
}
);
note = minus;
unicode = 2212;
},
{
glyphname = plusminus;
lastChange = "2020-03-08 13:28:25 +0000";
layers = (
{
layerId = "543A10D7-AEBA-4506-A699-AAC0E38B8B94";
paths = (
{
closed = 1;
nodes = (
"272 110 LINE",
"272 268 LINE",
"423 268 LINE",
"423 282 LINE",
"272 282 LINE",
"272 433 LINE",
"258 433 LINE",
"258 282 LINE",
"100 282 LINE",
"100 268 LINE",
"258 268 LINE",
"258 110 LINE"
);
},
{
closed = 1;
nodes = (
"427 3 LINE",
"427 17 LINE",
"104 17 LINE",
"104 3 LINE"
);
}
);
width = 527;
}
);
note = plusminus;
unicode = 00B1;
},
{
glyphname = numbersign;
lastChange = "2020-03-08 13:28:25 +0000";
layers = (
{
layerId = "543A10D7-AEBA-4506-A699-AAC0E38B8B94";
paths = (
{
closed = 1;
nodes = (
"192 0 LINE",
"234 116 LINE",
"419 116 LINE",
"378 0 LINE",
"392 0 LINE",
"434 116 LINE",
"580 116 LINE",
"586 130 LINE",
"439 130 LINE",
"503 303 LINE",
"649 303 LINE",
"655 318 LINE",
"508 318 LINE",
"558 452 LINE",
"545 452 LINE",
"493 318 LINE",
"308 318 LINE",
"358 452 LINE",
"345 452 LINE",
"293 318 LINE",
"175 318 LINE",
"169 304 LINE",
"288 304 LINE",
"224 130 LINE",
"106 130 LINE",
"100 116 LINE",
"219 116 LINE",
"178 0 LINE"
);
},
{
closed = 1;
nodes = (
"301 304 LINE",
"488 303 LINE",
"424 130 LINE",
"239 130 LINE"
);
}
);
width = 755;
}
);
note = numbersign;
unicode = 0023;
},
{
glyphname = Lslash;
lastChange = "2020-03-08 13:28:25 +0000";
layers = (
{
layerId = "543A10D7-AEBA-4506-A699-AAC0E38B8B94";
paths = (
{
closed = 1;
nodes = (
"919 -92 LINE",
"901 -13 OFFCURVE",
"901 9 OFFCURVE",
"901 51 CURVE SMOOTH",
"901 88 OFFCURVE",
"919 197 OFFCURVE",
"919 200 CURVE",
"907 200 LINE",
"899 78 OFFCURVE",
"778 15 OFFCURVE",
"702 15 CURVE SMOOTH",
"256 15 LINE",
"256 341 LINE",
"361 415 LINE",
"353 426 LINE",
"256 358 LINE",
"257 532 LINE SMOOTH",
"257 663 OFFCURVE",
"258 736 OFFCURVE",
"369 753 CURVE",
"369 765 LINE",
"366 765 OFFCURVE",
"257 747 OFFCURVE",
"220 747 CURVE SMOOTH",
"178 747 OFFCURVE",
"156 747 OFFCURVE",
"77 765 CURVE",
"77 753 LINE",
"188 736 OFFCURVE",
"189 665 OFFCURVE",
"189 534 CURVE SMOOTH",
"189 310 LINE",
"89 240 LINE",
"97 228 LINE",
"189 293 LINE",
"189 234 LINE SMOOTH",
"189 103 OFFCURVE",
"188 32 OFFCURVE",
"77 15 CURVE",
"77 3 LINE",
"858 2 LINE SMOOTH",
"883 2 OFFCURVE",
"895 -42 OFFCURVE",
"907 -92 CURVE"
);
}
);
width = 981;
}
);
leftKerningGroup = K;
note = Lslash;
rightKerningGroup = L;
unicode = 0141;
},
{
glyphname = equal;
lastChange = "2020-03-08 13:28:25 +0000";
layers = (
{
layerId = "543A10D7-AEBA-4506-A699-AAC0E38B8B94";
paths = (
{
closed = 1;
nodes = (
"423 314 LINE",
"423 328 LINE",
"100 328 LINE",
"100 314 LINE"
);
},
{
closed = 1;
nodes = (
"423 162 LINE",
"423 176 LINE",
"100 176 LINE",
"100 162 LINE"
);
}
);
width = 523;
}
);
note = equal;
unicode = 003D;
},
{
glyphname = endash;
lastChange = "2020-03-08 13:28:25 +0000";
layers = (
{
layerId = "543A10D7-AEBA-4506-A699-AAC0E38B8B94";
paths = (
{
closed = 1;
nodes = (
"398 264 LINE",
"398 278 LINE",
"75 278 LINE",
"75 264 LINE"
);
}
);
width = 473;
}
);
note = endash;
unicode = 2013;
},
{
glyphname = emdash;
lastChange = "2020-03-08 13:28:25 +0000";
layers = (
{
layerId = "543A10D7-AEBA-4506-A699-AAC0E38B8B94";
paths = (
{
closed = 1;
nodes = (
"588 264 LINE",
"588 278 LINE",
"75 278 LINE",
"75 264 LINE"
);
}
);
width = 663;
}
);
note = emdash;
unicode = 2014;
},
{
glyphname = Ydieresis;
lastChange = "2020-03-09 09:03:56 +0000";
layers = (
{
layerId = "543A10D7-AEBA-4506-A699-AAC0E38B8B94";
paths = (
{
closed = 1;
nodes = (
"-79 -799 OFFCURVE",
"-57 -799 OFFCURVE",
"-15 -799 CURVE SMOOTH",
"22 -799 OFFCURVE",
"131 -817 OFFCURVE",
"134 -817 CURVE",
"134 -805 LINE",
"85 -797 OFFCURVE",
"66 -776 OFFCURVE",
"66 -745 CURVE SMOOTH",
"66 -705 OFFCURVE",
"95 -651 OFFCURVE",
"131 -589 CURVE SMOOTH",
"932 770 LINE",
"70 770 LINE",
"442 64 LINE",
"445 64 OFFCURVE",
"217 -330 OFFCURVE",
"68 -586 CURVE",
"-3 -698 OFFCURVE",
"-47 -788 OFFCURVE",
"-158 -805 CURVE",
"-158 -817 LINE"
);
},
{
closed = 1;
nodes = (
"100 747 LINE",
"852 748 LINE",
"455 82 LINE"
);
},
{
closed = 1;
nodes = (
"443 843 OFFCURVE",
"466 865 OFFCURVE",
"466 893 CURVE SMOOTH",
"466 921 OFFCURVE",
"443 944 OFFCURVE",
"415 944 CURVE SMOOTH",
"387 944 OFFCURVE",
"365 921 OFFCURVE",
"365 893 CURVE SMOOTH",
"365 865 OFFCURVE",
"387 843 OFFCURVE",
"415 843 CURVE SMOOTH"
);
},
{
closed = 1;
nodes = (
"643 843 OFFCURVE",
"666 865 OFFCURVE",
"666 893 CURVE SMOOTH",
"666 921 OFFCURVE",
"643 944 OFFCURVE",
"615 944 CURVE SMOOTH",
"587 944 OFFCURVE",
"565 921 OFFCURVE",
"565 893 CURVE SMOOTH",
"565 865 OFFCURVE",
"587 843 OFFCURVE",
"615 843 CURVE SMOOTH"
);
}
);
width = 1009;
}
);
leftKerningGroup = Y;
note = Ydieresis;
rightKerningGroup = Y;
unicode = 0178;
},
{
glyphname = yen;
lastChange = "2020-03-09 09:03:56 +0000";
layers = (
{
layerId = "543A10D7-AEBA-4506-A699-AAC0E38B8B94";
paths = (
{
closed = 1;
nodes = (
"-79 -799 OFFCURVE",
"-57 -799 OFFCURVE",
"-15 -799 CURVE SMOOTH",
"22 -799 OFFCURVE",
"131 -817 OFFCURVE",
"134 -817 CURVE",
"134 -805 LINE",
"85 -797 OFFCURVE",
"66 -776 OFFCURVE",
"66 -745 CURVE SMOOTH",
"66 -705 OFFCURVE",
"95 -651 OFFCURVE",
"131 -589 CURVE SMOOTH",
"638 272 LINE",
"877 272 LINE",
"877 286 LINE",
"647 286 LINE",
"728 424 LINE",
"877 424 LINE",
"877 438 LINE",
"736 438 LINE",
"932 770 LINE",
"70 770 LINE",
"245 438 LINE",
"104 438 LINE",
"104 424 LINE",
"252 424 LINE",
"325 286 LINE",
"104 286 LINE",
"104 272 LINE",
"332 272 LINE",
"442 64 LINE",
"445 64 OFFCURVE",
"217 -330 OFFCURVE",
"68 -586 CURVE",
"-3 -698 OFFCURVE",
"-47 -788 OFFCURVE",
"-158 -805 CURVE",
"-158 -817 LINE"
);
},
{
closed = 1;
nodes = (
"353 272 LINE",
"568 272 LINE",
"455 82 LINE"
);
},
{
closed = 1;
nodes = (
"272 424 LINE",
"659 424 LINE",
"577 286 LINE",
"346 286 LINE"
);
},
{
closed = 1;
nodes = (
"100 747 LINE",
"852 748 LINE",
"667 438 LINE",
"265 438 LINE"
);
}
);
width = 1009;
}
);
note = yen;
unicode = 00A5;
},
{
glyphname = acute;
lastChange = "2020-03-09 09:03:56 +0000";
layers = (
{
layerId = "543A10D7-AEBA-4506-A699-AAC0E38B8B94";
paths = (
{
closed = 1;
nodes = (
"295 626 LINE",
"295 626 OFFCURVE",
"325 633 OFFCURVE",
"325 655 CURVE SMOOTH",
"325 659 OFFCURVE",
"324 663 OFFCURVE",
"322 667 CURVE SMOOTH",
"317 678 OFFCURVE",
"309 682 OFFCURVE",
"302 682 CURVE SMOOTH",
"290 682 OFFCURVE",
"278 673 OFFCURVE",
"279 674 CURVE",
"100 563 LINE",
"111 551 LINE"
);
}
);
width = 425;
}
);
note = acute;
unicode = 00B4;
},
{
glyphname = grave;
lastChange = "2020-03-09 09:03:56 +0000";
layers = (
{
layerId = "543A10D7-AEBA-4506-A699-AAC0E38B8B94";
paths = (
{
closed = 1;
nodes = (
"325 563 LINE",
"146 674 LINE",
"147 673 OFFCURVE",
"135 682 OFFCURVE",
"123 682 CURVE SMOOTH",
"116 682 OFFCURVE",
"108 678 OFFCURVE",
"103 667 CURVE SMOOTH",
"101 663 OFFCURVE",
"100 659 OFFCURVE",
"100 655 CURVE SMOOTH",
"100 633 OFFCURVE",
"130 626 OFFCURVE",
"130 626 CURVE",
"314 551 LINE"
);
}
);
width = 425;
}
);
note = grave;
unicode = 0060;
},
{
glyphname = comma;
lastChange = "2020-03-09 09:03:56 +0000";
layers = (
{
layerId = "543A10D7-AEBA-4506-A699-AAC0E38B8B94";
paths = (
{
closed = 1;
nodes = (
"38 -99 OFFCURVE",
"117 -47 OFFCURVE",
"117 38 CURVE SMOOTH",
"117 52 OFFCURVE",
"116 67 OFFCURVE",
"106 79 CURVE SMOOTH",
"96 90 OFFCURVE",
"82 96 OFFCURVE",
"68 96 CURVE SMOOTH",
"56 96 OFFCURVE",
"44 92 OFFCURVE",
"34 84 CURVE",
"25 76 OFFCURVE",
"16 65 OFFCURVE",
"16 45 CURVE SMOOTH",
"16 11 OFFCURVE",
"49 11 OFFCURVE",
"49 -24 CURVE SMOOTH",
"49 -51 OFFCURVE",
"4 -86 OFFCURVE",
"-23 -86 CURVE",
"-18 -99 LINE"
);
}
);
width = 169;
}
);
leftKerningGroup = comma;
note = comma;
unicode = 002C;
},
{
glyphname = semicolon;
lastChange = "2020-03-09 09:03:56 +0000";
layers = (
{
layerId = "543A10D7-AEBA-4506-A699-AAC0E38B8B94";
paths = (
{
closed = 1;
nodes = (
"98 -99 OFFCURVE",
"177 -47 OFFCURVE",
"177 38 CURVE SMOOTH",
"177 52 OFFCURVE",
"176 67 OFFCURVE",
"166 79 CURVE SMOOTH",
"156 90 OFFCURVE",
"142 96 OFFCURVE",
"128 96 CURVE SMOOTH",
"116 96 OFFCURVE",
"104 92 OFFCURVE",
"94 84 CURVE",
"85 76 OFFCURVE",
"76 65 OFFCURVE",
"76 45 CURVE SMOOTH",
"76 11 OFFCURVE",
"109 11 OFFCURVE",
"109 -24 CURVE SMOOTH",
"109 -51 OFFCURVE",
"64 -86 OFFCURVE",
"37 -86 CURVE",
"42 -99 LINE"
);
},
{
closed = 1;
nodes = (
"154 263 OFFCURVE",
"177 286 OFFCURVE",
"177 314 CURVE SMOOTH",
"177 342 OFFCURVE",
"154 364 OFFCURVE",
"126 364 CURVE SMOOTH",
"98 364 OFFCURVE",
"76 342 OFFCURVE",
"76 314 CURVE SMOOTH",
"76 286 OFFCURVE",
"98 263 OFFCURVE",
"126 263 CURVE SMOOTH"
);
}
);
width = 229;
}
);
leftKerningGroup = comma;
note = semicolon;
unicode = 003B;
},
{
glyphname = cent;
lastChange = "2020-03-09 09:03:56 +0000";
layers = (
{
layerId = "543A10D7-AEBA-4506-A699-AAC0E38B8B94";
paths = (
{
closed = 1;
nodes = (
"302 -77 LINE",
"302 -7 LINE",
"346 -6 OFFCURVE",
"389 7 OFFCURVE",
"428 35 CURVE",
"464 65 OFFCURVE",
"468 72 OFFCURVE",
"477 90 CURVE",
"456 103 LINE",
"445 87 OFFCURVE",
"437 73 OFFCURVE",
"409 55 CURVE SMOOTH",
"389 41 OFFCURVE",
"365 35 OFFCURVE",
"341 35 CURVE SMOOTH",
"328 35 OFFCURVE",
"315 37 OFFCURVE",
"302 40 CURVE",
"302 405 LINE",
"347 387 OFFCURVE",
"389 354 OFFCURVE",
"416 316 CURVE",
"475 355 LINE",
"438 428 OFFCURVE",
"371 460 OFFCURVE",
"302 459 CURVE",
"302 508 LINE",
"288 508 LINE",
"288 458 LINE",
"243 455 OFFCURVE",
"198 438 OFFCURVE",
"161 412 CURVE SMOOTH",
"99 368 OFFCURVE",
"63 296 OFFCURVE",
"63 222 CURVE SMOOTH",
"63 176 OFFCURVE",
"77 130 OFFCURVE",
"106 90 CURVE SMOOTH",
"147 30 OFFCURVE",
"217 -4 OFFCURVE",
"288 -7 CURVE",
"288 -77 LINE"
);
},
{
closed = 1;
nodes = (
"239 59 OFFCURVE",
"193 94 OFFCURVE",
"165 136 CURVE SMOOTH",
"137 175 OFFCURVE",
"119 229 OFFCURVE",
"119 280 CURVE SMOOTH",
"119 326 OFFCURVE",
"134 370 OFFCURVE",
"170 397 CURVE SMOOTH",
"190 411 OFFCURVE",
"213 418 OFFCURVE",
"238 418 CURVE SMOOTH",
"255 418 OFFCURVE",
"271 415 OFFCURVE",
"288 410 CURVE",
"288 44 LINE"
);
}
);
width = 536;
}
);
leftKerningGroup = o;
note = cent;
rightKerningGroup = c;
unicode = 00A2;
},
{
glyphname = Egrave;
lastChange = "2020-03-09 09:05:17 +0000";
layers = (
{
layerId = "543A10D7-AEBA-4506-A699-AAC0E38B8B94";
paths = (
{
closed = 1;
nodes = (
"558 -6 OFFCURVE",
"638 17 OFFCURVE",
"707 66 CURVE",
"696 82 LINE",
"648 48 OFFCURVE",
"590 33 OFFCURVE",
"531 33 CURVE SMOOTH",
"407 33 OFFCURVE",
"276 99 OFFCURVE",
"204 200 CURVE SMOOTH",
"165 254 OFFCURVE",
"141 335 OFFCURVE",
"134 404 CURVE",
"926 404 LINE",
"926 418 LINE",
"133 418 LINE",
"132 429 OFFCURVE",
"132 440 OFFCURVE",
"132 452 CURVE SMOOTH",
"132 556 OFFCURVE",
"170 658 OFFCURVE",
"254 719 CURVE SMOOTH",
"304 754 OFFCURVE",
"361 770 OFFCURVE",
"421 770 CURVE SMOOTH",
"585 770 OFFCURVE",
"760 649 OFFCURVE",
"809 488 CURVE",
"821 488 LINE",
"821 491 OFFCURVE",
"803 600 OFFCURVE",
"803 637 CURVE SMOOTH",
"803 679 OFFCURVE",
"803 701 OFFCURVE",
"821 780 CURVE",
"809 780 LINE",
"802 737 OFFCURVE",
"788 705 OFFCURVE",
"764 683 CURVE",
"688 762 OFFCURVE",
"582 805 OFFCURVE",
"473 805 CURVE SMOOTH",
"395 805 OFFCURVE",
"315 782 OFFCURVE",
"245 733 CURVE SMOOTH",
"138 658 OFFCURVE",
"77 527 OFFCURVE",
"77 394 CURVE SMOOTH",
"77 313 OFFCURVE",
"100 231 OFFCURVE",
"150 161 CURVE SMOOTH",
"225 54 OFFCURVE",
"351 -6 OFFCURVE",
"479 -6 CURVE SMOOTH"
);
},
{
closed = 1;
nodes = (
"591 854 LINE",
"412 965 LINE",
"413 964 OFFCURVE",
"401 973 OFFCURVE",
"389 973 CURVE SMOOTH",
"382 973 OFFCURVE",
"374 969 OFFCURVE",
"369 958 CURVE SMOOTH",
"367 954 OFFCURVE",
"366 950 OFFCURVE",
"366 946 CURVE SMOOTH",
"366 924 OFFCURVE",
"396 917 OFFCURVE",
"396 917 CURVE",
"580 842 LINE"
);
}
);
width = 898;
}
);
leftKerningGroup = O;
note = Egrave;
rightKerningGroup = OE;
unicode = 00C8;
},
{
glyphname = Eacute;
lastChange = "2020-03-09 09:05:17 +0000";
layers = (
{
layerId = "543A10D7-AEBA-4506-A699-AAC0E38B8B94";
paths = (
{
closed = 1;
nodes = (
"558 -6 OFFCURVE",
"638 17 OFFCURVE",
"707 66 CURVE",
"696 82 LINE",
"648 48 OFFCURVE",
"590 33 OFFCURVE",
"531 33 CURVE SMOOTH",
"407 33 OFFCURVE",
"276 99 OFFCURVE",
"204 200 CURVE SMOOTH",
"165 254 OFFCURVE",
"141 335 OFFCURVE",
"134 404 CURVE",
"926 404 LINE",
"926 418 LINE",
"133 418 LINE",
"132 429 OFFCURVE",
"132 440 OFFCURVE",
"132 452 CURVE SMOOTH",
"132 556 OFFCURVE",
"170 658 OFFCURVE",
"254 719 CURVE SMOOTH",
"304 754 OFFCURVE",
"361 770 OFFCURVE",
"421 770 CURVE SMOOTH",
"585 770 OFFCURVE",
"760 649 OFFCURVE",
"809 488 CURVE",
"821 488 LINE",
"821 491 OFFCURVE",
"803 600 OFFCURVE",
"803 637 CURVE SMOOTH",
"803 679 OFFCURVE",
"803 701 OFFCURVE",
"821 780 CURVE",
"809 780 LINE",
"802 737 OFFCURVE",
"788 705 OFFCURVE",
"764 683 CURVE",
"688 762 OFFCURVE",
"582 805 OFFCURVE",
"473 805 CURVE SMOOTH",
"395 805 OFFCURVE",
"315 782 OFFCURVE",
"245 733 CURVE SMOOTH",
"138 658 OFFCURVE",
"77 527 OFFCURVE",
"77 394 CURVE SMOOTH",
"77 313 OFFCURVE",
"100 231 OFFCURVE",
"150 161 CURVE SMOOTH",
"225 54 OFFCURVE",
"351 -6 OFFCURVE",
"479 -6 CURVE SMOOTH"
);
},
{
closed = 1;
nodes = (
"551 917 LINE",
"551 917 OFFCURVE",
"581 924 OFFCURVE",
"581 946 CURVE SMOOTH",
"581 950 OFFCURVE",
"580 954 OFFCURVE",
"578 958 CURVE SMOOTH",
"573 969 OFFCURVE",
"565 973 OFFCURVE",
"558 973 CURVE SMOOTH",
"546 973 OFFCURVE",
"534 964 OFFCURVE",
"535 965 CURVE",
"356 854 LINE",
"367 842 LINE"
);
}
);
width = 898;
}
);
leftKerningGroup = O;
note = Eacute;
rightKerningGroup = OE;
unicode = 00C9;
},
{
glyphname = Igrave;
lastChange = "2020-03-09 09:03:56 +0000";
layers = (
{
layerId = "543A10D7-AEBA-4506-A699-AAC0E38B8B94";
paths = (
{
closed = 1;
nodes = (
"131 21 OFFCURVE",
"153 21 OFFCURVE",
"195 21 CURVE SMOOTH",
"232 21 OFFCURVE",
"341 3 OFFCURVE",
"344 3 CURVE",
"344 15 LINE",
"233 32 OFFCURVE",
"232 105 OFFCURVE",
"232 236 CURVE SMOOTH",
"232 532 LINE SMOOTH",
"232 663 OFFCURVE",
"233 736 OFFCURVE",
"344 753 CURVE",
"344 765 LINE",
"341 765 OFFCURVE",
"232 747 OFFCURVE",
"195 747 CURVE SMOOTH",
"153 747 OFFCURVE",
"131 747 OFFCURVE",
"52 765 CURVE",
"52 753 LINE",
"163 736 OFFCURVE",
"164 665 OFFCURVE",
"164 534 CURVE SMOOTH",
"164 234 LINE SMOOTH",
"164 103 OFFCURVE",
"163 32 OFFCURVE",
"52 15 CURVE",
"52 3 LINE"
);
},
{
closed = 1;
nodes = (
"317 854 LINE",
"138 965 LINE",
"139 964 OFFCURVE",
"127 973 OFFCURVE",
"115 973 CURVE SMOOTH",
"108 973 OFFCURVE",
"100 969 OFFCURVE",
"95 958 CURVE SMOOTH",
"93 954 OFFCURVE",
"92 950 OFFCURVE",
"92 946 CURVE SMOOTH",
"92 924 OFFCURVE",
"122 917 OFFCURVE",
"122 917 CURVE",
"306 842 LINE"
);
}
);
width = 396;
}
);
leftKerningGroup = K;
note = Igrave;
rightKerningGroup = I;
unicode = 00CC;
},
{
glyphname = Iacute;
lastChange = "2020-03-09 09:03:56 +0000";
layers = (
{
layerId = "543A10D7-AEBA-4506-A699-AAC0E38B8B94";
paths = (
{
closed = 1;
nodes = (
"131 21 OFFCURVE",
"153 21 OFFCURVE",
"195 21 CURVE SMOOTH",
"232 21 OFFCURVE",
"341 3 OFFCURVE",
"344 3 CURVE",
"344 15 LINE",
"233 32 OFFCURVE",
"232 105 OFFCURVE",
"232 236 CURVE SMOOTH",
"232 532 LINE SMOOTH",
"232 663 OFFCURVE",
"233 736 OFFCURVE",
"344 753 CURVE",
"344 765 LINE",
"341 765 OFFCURVE",
"232 747 OFFCURVE",
"195 747 CURVE SMOOTH",
"153 747 OFFCURVE",
"131 747 OFFCURVE",
"52 765 CURVE",
"52 753 LINE",
"163 736 OFFCURVE",
"164 665 OFFCURVE",
"164 534 CURVE SMOOTH",
"164 234 LINE SMOOTH",
"164 103 OFFCURVE",
"163 32 OFFCURVE",
"52 15 CURVE",
"52 3 LINE"
);
},
{
closed = 1;
nodes = (
"277 917 LINE",
"277 917 OFFCURVE",
"307 924 OFFCURVE",
"307 946 CURVE SMOOTH",
"307 950 OFFCURVE",
"306 954 OFFCURVE",
"304 958 CURVE SMOOTH",
"299 969 OFFCURVE",
"291 973 OFFCURVE",
"284 973 CURVE SMOOTH",
"272 973 OFFCURVE",
"260 964 OFFCURVE",
"261 965 CURVE",
"82 854 LINE",
"93 842 LINE"
);
}
);
width = 396;
}
);
leftKerningGroup = K;
note = Iacute;
rightKerningGroup = I;
unicode = 00CD;
},
{
glyphname = Ograve;
lastChange = "2020-03-09 09:05:17 +0000";
layers = (
{
layerId = "543A10D7-AEBA-4506-A699-AAC0E38B8B94";
paths = (
{
closed = 1;
nodes = (
"563 -6 OFFCURVE",
"643 17 OFFCURVE",
"712 66 CURVE SMOOTH",
"819 142 OFFCURVE",
"880 273 OFFCURVE",
"880 405 CURVE SMOOTH",
"880 486 OFFCURVE",
"857 568 OFFCURVE",
"807 638 CURVE SMOOTH",
"732 745 OFFCURVE",
"606 805 OFFCURVE",
"479 805 CURVE SMOOTH",
"400 805 OFFCURVE",
"320 782 OFFCURVE",
"250 733 CURVE SMOOTH",
"143 658 OFFCURVE",
"82 527 OFFCURVE",
"82 394 CURVE SMOOTH",
"82 313 OFFCURVE",
"105 231 OFFCURVE",
"155 161 CURVE SMOOTH",
"230 54 OFFCURVE",
"356 -6 OFFCURVE",
"484 -6 CURVE SMOOTH"
);
},
{
closed = 1;
nodes = (
"412 33 OFFCURVE",
"281 99 OFFCURVE",
"209 200 CURVE SMOOTH",
"162 266 OFFCURVE",
"137 355 OFFCURVE",
"137 442 CURVE SMOOTH",
"137 552 OFFCURVE",
"176 660 OFFCURVE",
"259 719 CURVE SMOOTH",
"307 753 OFFCURVE",
"365 768 OFFCURVE",
"424 768 CURVE SMOOTH",
"549 768 OFFCURVE",
"682 701 OFFCURVE",
"753 600 CURVE SMOOTH",
"800 534 OFFCURVE",
"824 446 OFFCURVE",
"824 360 CURVE SMOOTH",
"824 250 OFFCURVE",
"785 142 OFFCURVE",
"701 82 CURVE SMOOTH",
"653 48 OFFCURVE",
"595 33 OFFCURVE",
"536 33 CURVE SMOOTH"
);
},
{
closed = 1;
nodes = (
"596 852 LINE",
"417 963 LINE",
"418 962 OFFCURVE",
"406 971 OFFCURVE",
"394 971 CURVE SMOOTH",
"387 971 OFFCURVE",
"379 967 OFFCURVE",
"374 956 CURVE SMOOTH",
"372 952 OFFCURVE",
"371 948 OFFCURVE",
"371 944 CURVE SMOOTH",
"371 922 OFFCURVE",
"401 915 OFFCURVE",
"401 915 CURVE",
"585 840 LINE"
);
}
);
width = 962;
}
);
leftKerningGroup = O;
note = Ograve;
rightKerningGroup = O;
unicode = 00D2;
},
{
glyphname = Oacute;
lastChange = "2020-03-09 09:05:17 +0000";
layers = (
{
layerId = "543A10D7-AEBA-4506-A699-AAC0E38B8B94";
paths = (
{
closed = 1;
nodes = (
"563 -6 OFFCURVE",
"643 17 OFFCURVE",
"712 66 CURVE SMOOTH",
"819 142 OFFCURVE",
"880 273 OFFCURVE",
"880 405 CURVE SMOOTH",
"880 486 OFFCURVE",
"857 568 OFFCURVE",
"807 638 CURVE SMOOTH",
"732 745 OFFCURVE",
"606 805 OFFCURVE",
"479 805 CURVE SMOOTH",
"400 805 OFFCURVE",
"320 782 OFFCURVE",
"250 733 CURVE SMOOTH",
"143 658 OFFCURVE",
"82 527 OFFCURVE",
"82 394 CURVE SMOOTH",
"82 313 OFFCURVE",
"105 231 OFFCURVE",
"155 161 CURVE SMOOTH",
"230 54 OFFCURVE",
"356 -6 OFFCURVE",
"484 -6 CURVE SMOOTH"
);
},
{
closed = 1;
nodes = (
"412 33 OFFCURVE",
"281 99 OFFCURVE",
"209 200 CURVE SMOOTH",
"162 266 OFFCURVE",
"137 355 OFFCURVE",
"137 442 CURVE SMOOTH",
"137 552 OFFCURVE",
"176 660 OFFCURVE",
"259 719 CURVE SMOOTH",
"307 753 OFFCURVE",
"365 768 OFFCURVE",
"424 768 CURVE SMOOTH",
"549 768 OFFCURVE",
"682 701 OFFCURVE",
"753 600 CURVE SMOOTH",
"800 534 OFFCURVE",
"824 446 OFFCURVE",
"824 360 CURVE SMOOTH",
"824 250 OFFCURVE",
"785 142 OFFCURVE",
"701 82 CURVE SMOOTH",
"653 48 OFFCURVE",
"595 33 OFFCURVE",
"536 33 CURVE SMOOTH"
);
},
{
closed = 1;
nodes = (
"556 915 LINE",
"556 915 OFFCURVE",
"586 922 OFFCURVE",
"586 944 CURVE SMOOTH",
"586 948 OFFCURVE",
"585 952 OFFCURVE",
"583 956 CURVE SMOOTH",
"578 967 OFFCURVE",
"570 971 OFFCURVE",
"563 971 CURVE SMOOTH",
"551 971 OFFCURVE",
"539 962 OFFCURVE",
"540 963 CURVE",
"361 852 LINE",
"372 840 LINE"
);
}
);
width = 962;
}
);
leftKerningGroup = O;
note = Oacute;
rightKerningGroup = O;
unicode = 00D3;
},
{
glyphname = Oslash;
lastChange = "2020-03-09 09:05:17 +0000";
layers = (
{
layerId = "543A10D7-AEBA-4506-A699-AAC0E38B8B94";
paths = (
{
closed = 1;
nodes = (
"285 59 LINE",
"345 26 OFFCURVE",
"414 8 OFFCURVE",
"483 8 CURVE SMOOTH",
"562 8 OFFCURVE",
"642 31 OFFCURVE",
"712 80 CURVE SMOOTH",
"819 156 OFFCURVE",
"880 281 OFFCURVE",
"880 409 CURVE SMOOTH",
"880 488 OFFCURVE",
"857 568 OFFCURVE",
"807 638 CURVE SMOOTH",
"782 674 OFFCURVE",
"751 704 OFFCURVE",
"716 729 CURVE",
"764 802 LINE",
"751 809 LINE",
"705 737 LINE",
"638 781 OFFCURVE",
"559 805 OFFCURVE",
"479 805 CURVE SMOOTH",
"400 805 OFFCURVE",
"320 782 OFFCURVE",
"250 733 CURVE SMOOTH",
"143 658 OFFCURVE",
"82 532 OFFCURVE",
"82 404 CURVE SMOOTH",
"82 325 OFFCURVE",
"105 245 OFFCURVE",
"155 175 CURVE SMOOTH",
"186 130 OFFCURVE",
"227 93 OFFCURVE",
"273 66 CURVE",
"236 8 LINE",
"248 1 LINE"
);
},
{
closed = 1;
nodes = (
"269 145 OFFCURVE",
"235 177 OFFCURVE",
"209 214 CURVE SMOOTH",
"162 280 OFFCURVE",
"137 366 OFFCURVE",
"137 451 CURVE SMOOTH",
"137 557 OFFCURVE",
"176 660 OFFCURVE",
"259 719 CURVE SMOOTH",
"307 753 OFFCURVE",
"365 768 OFFCURVE",
"424 768 CURVE SMOOTH",
"510 768 OFFCURVE",
"600 736 OFFCURVE",
"670 683 CURVE",
"307 119 LINE"
);
},
{
closed = 1;
nodes = (
"462 47 OFFCURVE",
"385 71 OFFCURVE",
"319 112 CURVE",
"682 675 LINE",
"709 653 OFFCURVE",
"733 627 OFFCURVE",
"753 600 CURVE SMOOTH",
"800 534 OFFCURVE",
"824 449 OFFCURVE",
"824 365 CURVE SMOOTH",
"824 259 OFFCURVE",
"785 156 OFFCURVE",
"701 96 CURVE SMOOTH",
"653 62 OFFCURVE",
"595 47 OFFCURVE",
"536 47 CURVE SMOOTH"
);
}
);
width = 962;
}
);
leftKerningGroup = O;
note = Oslash;
rightKerningGroup = O;
unicode = 00D8;
},
{
glyphname = Ugrave;
lastChange = "2020-03-09 09:03:56 +0000";
layers = (
{
layerId = "543A10D7-AEBA-4506-A699-AAC0E38B8B94";
paths = (
{
closed = 1;
nodes = (
"796 -12 OFFCURVE",
"949 123 OFFCURVE",
"949 400 CURVE SMOOTH",
"949 536 LINE SMOOTH",
"949 667 OFFCURVE",
"961 736 OFFCURVE",
"1072 753 CURVE",
"1072 765 LINE",
"1069 765 OFFCURVE",
"977 747 OFFCURVE",
"940 747 CURVE SMOOTH",
"898 747 OFFCURVE",
"896 747 OFFCURVE",
"817 765 CURVE",
"817 753 LINE",
"928 736 OFFCURVE",
"936 666 OFFCURVE",
"935 535 CURVE SMOOTH",
"935 400 LINE SMOOTH",
"935 157 OFFCURVE",
"813 0 OFFCURVE",
"561 0 CURVE SMOOTH",
"379 0 OFFCURVE",
"257 127 OFFCURVE",
"257 396 CURVE SMOOTH",
"257 532 LINE SMOOTH",
"257 663 OFFCURVE",
"258 736 OFFCURVE",
"369 753 CURVE",
"369 765 LINE",
"366 765 OFFCURVE",
"257 747 OFFCURVE",
"220 747 CURVE SMOOTH",
"178 747 OFFCURVE",
"156 747 OFFCURVE",
"77 765 CURVE",
"77 753 LINE",
"188 736 OFFCURVE",
"190 665 OFFCURVE",
"189 534 CURVE SMOOTH",
"188 395 LINE SMOOTH",
"188 103 OFFCURVE",
"351 -12 OFFCURVE",
"562 -12 CURVE SMOOTH"
);
},
{
closed = 1;
nodes = (
"707 854 LINE",
"528 965 LINE",
"529 964 OFFCURVE",
"517 973 OFFCURVE",
"505 973 CURVE SMOOTH",
"498 973 OFFCURVE",
"490 969 OFFCURVE",
"485 958 CURVE SMOOTH",
"483 954 OFFCURVE",
"482 950 OFFCURVE",
"482 946 CURVE SMOOTH",
"482 924 OFFCURVE",
"512 917 OFFCURVE",
"512 917 CURVE",
"696 842 LINE"
);
}
);
width = 1149;
}
);
leftKerningGroup = U;
note = Ugrave;
rightKerningGroup = U;
unicode = 00D9;
},
{
glyphname = Uacute;
lastChange = "2020-03-09 09:03:56 +0000";
layers = (
{
layerId = "543A10D7-AEBA-4506-A699-AAC0E38B8B94";
paths = (
{
closed = 1;
nodes = (
"796 -12 OFFCURVE",
"949 123 OFFCURVE",
"949 400 CURVE SMOOTH",
"949 536 LINE SMOOTH",
"949 667 OFFCURVE",
"961 736 OFFCURVE",
"1072 753 CURVE",
"1072 765 LINE",
"1069 765 OFFCURVE",
"977 747 OFFCURVE",
"940 747 CURVE SMOOTH",
"898 747 OFFCURVE",
"896 747 OFFCURVE",
"817 765 CURVE",
"817 753 LINE",
"928 736 OFFCURVE",
"936 666 OFFCURVE",
"935 535 CURVE SMOOTH",
"935 400 LINE SMOOTH",
"935 157 OFFCURVE",
"813 0 OFFCURVE",
"561 0 CURVE SMOOTH",
"379 0 OFFCURVE",
"257 127 OFFCURVE",
"257 396 CURVE SMOOTH",
"257 532 LINE SMOOTH",
"257 663 OFFCURVE",
"258 736 OFFCURVE",
"369 753 CURVE",
"369 765 LINE",
"366 765 OFFCURVE",
"257 747 OFFCURVE",
"220 747 CURVE SMOOTH",
"178 747 OFFCURVE",
"156 747 OFFCURVE",
"77 765 CURVE",
"77 753 LINE",
"188 736 OFFCURVE",
"190 665 OFFCURVE",
"189 534 CURVE SMOOTH",
"188 395 LINE SMOOTH",
"188 103 OFFCURVE",
"351 -12 OFFCURVE",
"562 -12 CURVE SMOOTH"
);
},
{
closed = 1;
nodes = (
"667 918 LINE",
"667 918 OFFCURVE",
"697 925 OFFCURVE",
"697 947 CURVE SMOOTH",
"697 951 OFFCURVE",
"696 955 OFFCURVE",
"694 959 CURVE SMOOTH",
"689 970 OFFCURVE",
"681 974 OFFCURVE",
"674 974 CURVE SMOOTH",
"662 974 OFFCURVE",
"650 965 OFFCURVE",
"651 966 CURVE",
"472 855 LINE",
"483 843 LINE"
);
}
);
width = 1149;
}
);
leftKerningGroup = U;
note = Uacute;
rightKerningGroup = U;
unicode = 00DA;
},
{
glyphname = Yacute;
lastChange = "2020-03-09 09:03:56 +0000";
layers = (
{
layerId = "543A10D7-AEBA-4506-A699-AAC0E38B8B94";
paths = (
{
closed = 1;
nodes = (
"-79 -799 OFFCURVE",
"-57 -799 OFFCURVE",
"-15 -799 CURVE SMOOTH",
"22 -799 OFFCURVE",
"131 -817 OFFCURVE",
"134 -817 CURVE",
"134 -805 LINE",
"85 -797 OFFCURVE",
"66 -776 OFFCURVE",
"66 -745 CURVE SMOOTH",
"66 -705 OFFCURVE",
"95 -651 OFFCURVE",
"131 -589 CURVE SMOOTH",
"932 770 LINE",
"70 770 LINE",
"442 64 LINE",
"445 64 OFFCURVE",
"217 -330 OFFCURVE",
"68 -586 CURVE",
"-3 -698 OFFCURVE",
"-47 -788 OFFCURVE",
"-158 -805 CURVE",
"-158 -817 LINE"
);
},
{
closed = 1;
nodes = (
"100 747 LINE",
"852 748 LINE",
"455 82 LINE"
);
},
{
closed = 1;
nodes = (
"597 920 LINE",
"597 920 OFFCURVE",
"627 927 OFFCURVE",
"627 949 CURVE SMOOTH",
"627 953 OFFCURVE",
"626 957 OFFCURVE",
"624 961 CURVE SMOOTH",
"619 972 OFFCURVE",
"611 976 OFFCURVE",
"604 976 CURVE SMOOTH",
"592 976 OFFCURVE",
"580 967 OFFCURVE",
"581 968 CURVE",
"402 857 LINE",
"413 845 LINE"
);
}
);
width = 1009;
}
);
leftKerningGroup = Y;
note = Yacute;
rightKerningGroup = Y;
unicode = 00DD;
},
{
glyphname = agrave;
lastChange = "2020-03-09 09:03:56 +0000";
layers = (
{
layerId = "543A10D7-AEBA-4506-A699-AAC0E38B8B94";
paths = (
{
closed = 1;
nodes = (
"217 -7 OFFCURVE",
"321 67 OFFCURVE",
"326 81 CURVE",
"326 59 OFFCURVE",
"326 0 OFFCURVE",
"383 0 CURVE SMOOTH",
"476 0 OFFCURVE",
"520 65 OFFCURVE",
"523 65 CURVE",
"507 83 LINE",
"499 74 OFFCURVE",
"449 49 OFFCURVE",
"431 49 CURVE SMOOTH",
"407 49 OFFCURVE",
"391 72 OFFCURVE",
"391 175 CURVE SMOOTH",
"391 325 LINE SMOOTH",
"391 429 OFFCURVE",
"322 460 OFFCURVE",
"243 460 CURVE SMOOTH",
"136 460 OFFCURVE",
"51 410 OFFCURVE",
"51 351 CURVE",
"119 306 LINE",
"119 392 OFFCURVE",
"167 441 OFFCURVE",
"212 441 CURVE SMOOTH",
"271 441 OFFCURVE",
"326 390 OFFCURVE",
"326 298 CURVE",
"238 273 LINE SMOOTH",
"91 231 OFFCURVE",
"48 183 OFFCURVE",
"48 104 CURVE SMOOTH",
"48 24 OFFCURVE",
"98 -7 OFFCURVE",
"158 -7 CURVE SMOOTH"
);
},
{
closed = 1;
nodes = (
"154 47 OFFCURVE",
"107 70 OFFCURVE",
"107 147 CURVE SMOOTH",
"107 207 OFFCURVE",
"163 233 OFFCURVE",
"225 250 CURVE SMOOTH",
"326 278 LINE",
"326 278 OFFCURVE",
"326 260 OFFCURVE",
"326 236 CURVE SMOOTH",
"326 187 OFFCURVE",
"326 115 OFFCURVE",
"326 115 CURVE",
"326 97 OFFCURVE",
"251 50 OFFCURVE",
"215 49 CURVE SMOOTH"
);
},
{
closed = 1;
nodes = (
"310 563 LINE",
"131 674 LINE",
"132 673 OFFCURVE",
"120 682 OFFCURVE",
"108 682 CURVE SMOOTH",
"101 682 OFFCURVE",
"93 678 OFFCURVE",
"88 667 CURVE SMOOTH",
"86 663 OFFCURVE",
"85 659 OFFCURVE",
"85 655 CURVE SMOOTH",
"85 633 OFFCURVE",
"115 626 OFFCURVE",
"115 626 CURVE",
"299 551 LINE"
);
}
);
width = 534;
}
);
leftKerningGroup = a;
note = agrave;
rightKerningGroup = d;
unicode = 00E0;
},
{
glyphname = aacute;
lastChange = "2020-03-09 09:03:56 +0000";
layers = (
{
layerId = "543A10D7-AEBA-4506-A699-AAC0E38B8B94";
paths = (
{
closed = 1;
nodes = (
"217 -7 OFFCURVE",
"321 67 OFFCURVE",
"326 81 CURVE",
"326 59 OFFCURVE",
"326 0 OFFCURVE",
"383 0 CURVE SMOOTH",
"476 0 OFFCURVE",
"520 65 OFFCURVE",
"523 65 CURVE",
"507 83 LINE",
"499 74 OFFCURVE",
"449 49 OFFCURVE",
"431 49 CURVE SMOOTH",
"407 49 OFFCURVE",
"391 72 OFFCURVE",
"391 175 CURVE SMOOTH",
"391 325 LINE SMOOTH",
"391 429 OFFCURVE",
"322 460 OFFCURVE",
"243 460 CURVE SMOOTH",
"136 460 OFFCURVE",
"51 410 OFFCURVE",
"51 351 CURVE",
"119 306 LINE",
"119 392 OFFCURVE",
"167 441 OFFCURVE",
"212 441 CURVE SMOOTH",
"271 441 OFFCURVE",
"326 390 OFFCURVE",
"326 298 CURVE",
"238 273 LINE SMOOTH",
"91 231 OFFCURVE",
"48 183 OFFCURVE",
"48 104 CURVE SMOOTH",
"48 24 OFFCURVE",
"98 -7 OFFCURVE",
"158 -7 CURVE SMOOTH"
);
},
{
closed = 1;
nodes = (
"154 47 OFFCURVE",
"107 70 OFFCURVE",
"107 147 CURVE SMOOTH",
"107 207 OFFCURVE",
"163 233 OFFCURVE",
"225 250 CURVE SMOOTH",
"326 278 LINE",
"326 278 OFFCURVE",
"326 260 OFFCURVE",
"326 236 CURVE SMOOTH",
"326 187 OFFCURVE",
"326 115 OFFCURVE",
"326 115 CURVE",
"326 97 OFFCURVE",
"251 50 OFFCURVE",
"215 49 CURVE SMOOTH"
);
},
{
closed = 1;
nodes = (
"300 626 LINE",
"300 626 OFFCURVE",
"330 633 OFFCURVE",
"330 655 CURVE SMOOTH",
"330 659 OFFCURVE",
"329 663 OFFCURVE",
"327 667 CURVE SMOOTH",
"322 678 OFFCURVE",
"314 682 OFFCURVE",
"307 682 CURVE SMOOTH",
"295 682 OFFCURVE",
"283 673 OFFCURVE",
"284 674 CURVE",
"105 563 LINE",
"116 551 LINE"
);
}
);
width = 534;
}
);
leftKerningGroup = a;
note = aacute;
rightKerningGroup = d;
unicode = 00E1;
},
{
glyphname = ograve;
lastChange = "2020-03-09 09:05:17 +0000";
layers = (
{
layerId = "543A10D7-AEBA-4506-A699-AAC0E38B8B94";
paths = (
{
closed = 1;
nodes = (
"335 -7 OFFCURVE",
"381 6 OFFCURVE",
"421 35 CURVE SMOOTH",
"483 79 OFFCURVE",
"518 153 OFFCURVE",
"518 229 CURVE SMOOTH",
"518 275 OFFCURVE",
"505 322 OFFCURVE",
"476 362 CURVE SMOOTH",
"432 424 OFFCURVE",
"360 459 OFFCURVE",
"287 459 CURVE SMOOTH",
"241 459 OFFCURVE",
"195 446 OFFCURVE",
"154 417 CURVE SMOOTH",
"92 373 OFFCURVE",
"56 299 OFFCURVE",
"56 224 CURVE SMOOTH",
"56 177 OFFCURVE",
"70 130 OFFCURVE",
"99 90 CURVE SMOOTH",
"142 28 OFFCURVE",
"215 -7 OFFCURVE",
"289 -7 CURVE SMOOTH"
);
},
{
closed = 1;
nodes = (
"269 34 OFFCURVE",
"196 80 OFFCURVE",
"158 136 CURVE SMOOTH",
"130 175 OFFCURVE",
"112 231 OFFCURVE",
"112 282 CURVE SMOOTH",
"112 330 OFFCURVE",
"127 375 OFFCURVE",
"163 402 CURVE SMOOTH",
"183 417 OFFCURVE",
"207 423 OFFCURVE",
"231 423 CURVE SMOOTH",
"297 423 OFFCURVE",
"370 377 OFFCURVE",
"409 321 CURVE SMOOTH",
"436 280 OFFCURVE",
"454 225 OFFCURVE",
"454 174 CURVE SMOOTH",
"454 126 OFFCURVE",
"439 82 OFFCURVE",
"402 55 CURVE SMOOTH",
"382 40 OFFCURVE",
"359 34 OFFCURVE",
"335 34 CURVE SMOOTH"
);
},
{
closed = 1;
nodes = (
"409 563 LINE",
"230 674 LINE",
"231 673 OFFCURVE",
"219 682 OFFCURVE",
"207 682 CURVE SMOOTH",
"200 682 OFFCURVE",
"192 678 OFFCURVE",
"187 667 CURVE SMOOTH",
"185 663 OFFCURVE",
"184 659 OFFCURVE",
"184 655 CURVE SMOOTH",
"184 633 OFFCURVE",
"214 626 OFFCURVE",
"214 626 CURVE",
"398 551 LINE"
);
}
);
width = 574;
}
);
leftKerningGroup = o;
note = ograve;
rightKerningGroup = o;
unicode = 00F2;
},
{
glyphname = oacute;
lastChange = "2020-03-09 09:05:17 +0000";
layers = (
{
layerId = "543A10D7-AEBA-4506-A699-AAC0E38B8B94";
paths = (
{
closed = 1;
nodes = (
"335 -7 OFFCURVE",
"381 6 OFFCURVE",
"421 35 CURVE SMOOTH",
"483 79 OFFCURVE",
"518 153 OFFCURVE",
"518 229 CURVE SMOOTH",
"518 275 OFFCURVE",
"505 322 OFFCURVE",
"476 362 CURVE SMOOTH",
"432 424 OFFCURVE",
"360 459 OFFCURVE",
"287 459 CURVE SMOOTH",
"241 459 OFFCURVE",
"195 446 OFFCURVE",
"154 417 CURVE SMOOTH",
"92 373 OFFCURVE",
"56 299 OFFCURVE",
"56 224 CURVE SMOOTH",
"56 177 OFFCURVE",
"70 130 OFFCURVE",
"99 90 CURVE SMOOTH",
"142 28 OFFCURVE",
"215 -7 OFFCURVE",
"289 -7 CURVE SMOOTH"
);
},
{
closed = 1;
nodes = (
"269 34 OFFCURVE",
"196 80 OFFCURVE",
"158 136 CURVE SMOOTH",
"130 175 OFFCURVE",
"112 231 OFFCURVE",
"112 282 CURVE SMOOTH",
"112 330 OFFCURVE",
"127 375 OFFCURVE",
"163 402 CURVE SMOOTH",
"183 417 OFFCURVE",
"207 423 OFFCURVE",
"231 423 CURVE SMOOTH",
"297 423 OFFCURVE",
"370 377 OFFCURVE",
"409 321 CURVE SMOOTH",
"436 280 OFFCURVE",
"454 225 OFFCURVE",
"454 174 CURVE SMOOTH",
"454 126 OFFCURVE",
"439 82 OFFCURVE",
"402 55 CURVE SMOOTH",
"382 40 OFFCURVE",
"359 34 OFFCURVE",
"335 34 CURVE SMOOTH"
);
},
{
closed = 1;
nodes = (
"369 626 LINE",
"369 626 OFFCURVE",
"399 633 OFFCURVE",
"399 655 CURVE SMOOTH",
"399 659 OFFCURVE",
"398 663 OFFCURVE",
"396 667 CURVE SMOOTH",
"391 678 OFFCURVE",
"383 682 OFFCURVE",
"376 682 CURVE SMOOTH",
"364 682 OFFCURVE",
"352 673 OFFCURVE",
"353 674 CURVE",
"174 563 LINE",
"185 551 LINE"
);
}
);
width = 587;
}
);
leftKerningGroup = o;
note = oacute;
rightKerningGroup = o;
unicode = 00F3;
},
{
glyphname = ugrave;
lastChange = "2020-03-09 09:03:56 +0000";
layers = (
{
layerId = "543A10D7-AEBA-4506-A699-AAC0E38B8B94";
paths = (
{
closed = 1;
nodes = (
"485 -3 LINE",
"530 31 OFFCURVE",
"578 49 OFFCURVE",
"645 49 CURVE",
"645 61 LINE",
"536 78 OFFCURVE",
"533 77 OFFCURVE",
"533 203 CURVE SMOOTH",
"533 454 LINE",
"393 414 LINE",
"393 402 LINE",
"464 388 OFFCURVE",
"465 376 OFFCURVE",
"465 247 CURVE SMOOTH",
"465 214 OFFCURVE",
"458 31 OFFCURVE",
"282 31 CURVE SMOOTH",
"249 31 OFFCURVE",
"203 80 OFFCURVE",
"203 164 CURVE SMOOTH",
"203 454 LINE",
"135 436 OFFCURVE",
"56 424 OFFCURVE",
"53 424 CURVE",
"53 412 LINE",
"135 399 OFFCURVE",
"135 356 OFFCURVE",
"135 232 CURVE SMOOTH",
"135 146 LINE SMOOTH",
"135 29 OFFCURVE",
"210 3 OFFCURVE",
"278 3 CURVE SMOOTH",
"391 3 OFFCURVE",
"443 83 OFFCURVE",
"466 153 CURVE",
"466 -3 LINE"
);
},
{
closed = 1;
nodes = (
"443 563 LINE",
"264 674 LINE",
"265 673 OFFCURVE",
"253 682 OFFCURVE",
"241 682 CURVE SMOOTH",
"234 682 OFFCURVE",
"226 678 OFFCURVE",
"221 667 CURVE SMOOTH",
"219 663 OFFCURVE",
"218 659 OFFCURVE",
"218 655 CURVE SMOOTH",
"218 633 OFFCURVE",
"248 626 OFFCURVE",
"248 626 CURVE",
"432 551 LINE"
);
}
);
width = 698;
}
);
leftKerningGroup = u;
note = ugrave;
rightKerningGroup = u;
unicode = 00F9;
},
{
glyphname = uacute;
lastChange = "2020-03-09 09:03:56 +0000";
layers = (
{
layerId = "543A10D7-AEBA-4506-A699-AAC0E38B8B94";
paths = (
{
closed = 1;
nodes = (
"483 -3 LINE",
"528 31 OFFCURVE",
"576 49 OFFCURVE",
"643 49 CURVE",
"643 61 LINE",
"534 78 OFFCURVE",
"531 77 OFFCURVE",
"531 203 CURVE SMOOTH",
"531 454 LINE",
"391 414 LINE",
"391 402 LINE",
"462 388 OFFCURVE",
"463 376 OFFCURVE",
"463 247 CURVE SMOOTH",
"463 214 OFFCURVE",
"456 31 OFFCURVE",
"280 31 CURVE SMOOTH",
"247 31 OFFCURVE",
"201 80 OFFCURVE",
"201 164 CURVE SMOOTH",
"201 454 LINE",
"133 436 OFFCURVE",
"54 424 OFFCURVE",
"51 424 CURVE",
"51 412 LINE",
"133 399 OFFCURVE",
"133 356 OFFCURVE",
"133 232 CURVE SMOOTH",
"133 146 LINE SMOOTH",
"133 29 OFFCURVE",
"208 3 OFFCURVE",
"276 3 CURVE SMOOTH",
"389 3 OFFCURVE",
"441 83 OFFCURVE",
"464 153 CURVE",
"464 -3 LINE"
);
},
{
closed = 1;
nodes = (
"401 626 LINE",
"401 626 OFFCURVE",
"431 633 OFFCURVE",
"431 655 CURVE SMOOTH",
"431 659 OFFCURVE",
"430 663 OFFCURVE",
"428 667 CURVE SMOOTH",
"423 678 OFFCURVE",
"415 682 OFFCURVE",
"408 682 CURVE SMOOTH",
"396 682 OFFCURVE",
"384 673 OFFCURVE",
"385 674 CURVE",
"206 563 LINE",
"217 551 LINE"
);
}
);
width = 696;
}
);
leftKerningGroup = u;
note = uacute;
rightKerningGroup = u;
unicode = 00FA;
},
{
glyphname = yacute;
lastChange = "2020-03-09 09:03:56 +0000";
layers = (
{
layerId = "543A10D7-AEBA-4506-A699-AAC0E38B8B94";
paths = (
{
closed = 1;
nodes = (
"-133 -796 OFFCURVE",
"-89 -784 OFFCURVE",
"103 -442 CURVE",
"557 441 LINE",
"64 441 LINE",
"314 23 LINE",
"67 -450 LINE",
"9 -575 OFFCURVE",
"-101 -785 OFFCURVE",
"-212 -802 CURVE",
"-212 -814 LINE"
);
},
{
closed = 1;
nodes = (
"155 428 LINE",
"529 427 LINE",
"354 99 LINE"
);
},
{
closed = 1;
nodes = (
"392 626 LINE",
"392 626 OFFCURVE",
"422 633 OFFCURVE",
"422 655 CURVE SMOOTH",
"422 659 OFFCURVE",
"421 663 OFFCURVE",
"419 667 CURVE SMOOTH",
"414 678 OFFCURVE",
"406 682 OFFCURVE",
"399 682 CURVE SMOOTH",
"387 682 OFFCURVE",
"375 673 OFFCURVE",
"376 674 CURVE",
"197 563 LINE",
"208 551 LINE"
);
}
);
width = 622;
}
);
leftKerningGroup = y;
note = yacute;
rightKerningGroup = v;
unicode = 00FD;
},
{
glyphname = asciicircum;
lastChange = "2019-05-31 17:34:00 +0000";
layers = (
{
layerId = "543A10D7-AEBA-4506-A699-AAC0E38B8B94";
paths = (
{
closed = 1;
nodes = (
"312 633 LINE",
"496 558 LINE",
"507 570 LINE",
"310 694 LINE",
"112 570 LINE",
"123 558 LINE"
);
}
);
width = 633;
}
);
note = asciicircum;
unicode = 005E;
},
{
glyphname = circumflex;
lastChange = "2019-06-01 07:09:47 +0000";
layers = (
{
layerId = "543A10D7-AEBA-4506-A699-AAC0E38B8B94";
paths = (
{
closed = 1;
nodes = (
"300 633 LINE",
"484 558 LINE",
"495 570 LINE",
"298 694 LINE",
"100 570 LINE",
"111 558 LINE"
);
}
);
width = 595;
}
);
note = circumflex;
unicode = 02C6;
},
{
glyphname = caron;
lastChange = "2020-03-08 13:28:25 +0000";
layers = (
{
layerId = "543A10D7-AEBA-4506-A699-AAC0E38B8B94";
paths = (
{
closed = 1;
nodes = (
"495 682 LINE",
"484 694 LINE",
"300 619 LINE",
"111 694 LINE",
"100 682 LINE",
"298 558 LINE"
);
}
);
width = 595;
}
);
note = caron;
unicode = 02C7;
},
{
glyphname = Ecircumflex;
lastChange = "2020-03-09 09:05:17 +0000";
layers = (
{
layerId = "543A10D7-AEBA-4506-A699-AAC0E38B8B94";
paths = (
{
closed = 1;
nodes = (
"558 -6 OFFCURVE",
"638 17 OFFCURVE",
"707 66 CURVE",
"696 82 LINE",
"648 48 OFFCURVE",
"590 33 OFFCURVE",
"531 33 CURVE SMOOTH",
"407 33 OFFCURVE",
"276 99 OFFCURVE",
"204 200 CURVE SMOOTH",
"165 254 OFFCURVE",
"141 335 OFFCURVE",
"134 404 CURVE",
"926 404 LINE",
"926 418 LINE",
"133 418 LINE",
"132 429 OFFCURVE",
"132 440 OFFCURVE",
"132 452 CURVE SMOOTH",
"132 556 OFFCURVE",
"170 658 OFFCURVE",
"254 719 CURVE SMOOTH",
"304 754 OFFCURVE",
"361 770 OFFCURVE",
"421 770 CURVE SMOOTH",
"585 770 OFFCURVE",
"760 649 OFFCURVE",
"809 488 CURVE",
"821 488 LINE",
"821 491 OFFCURVE",
"803 600 OFFCURVE",
"803 637 CURVE SMOOTH",
"803 679 OFFCURVE",
"803 701 OFFCURVE",
"821 780 CURVE",
"809 780 LINE",
"802 737 OFFCURVE",
"788 705 OFFCURVE",
"764 683 CURVE",
"688 762 OFFCURVE",
"582 805 OFFCURVE",
"473 805 CURVE SMOOTH",
"395 805 OFFCURVE",
"315 782 OFFCURVE",
"245 733 CURVE SMOOTH",
"138 658 OFFCURVE",
"77 527 OFFCURVE",
"77 394 CURVE SMOOTH",
"77 313 OFFCURVE",
"100 231 OFFCURVE",
"150 161 CURVE SMOOTH",
"225 54 OFFCURVE",
"351 -6 OFFCURVE",
"479 -6 CURVE SMOOTH"
);
},
{
closed = 1;
nodes = (
"472 917 LINE",
"656 842 LINE",
"667 854 LINE",
"470 978 LINE",
"272 854 LINE",
"283 842 LINE"
);
}
);
width = 898;
}
);
leftKerningGroup = O;
note = Ecircumflex;
rightKerningGroup = OE;
unicode = 00CA;
},
{
glyphname = Icircumflex;
lastChange = "2020-03-08 13:28:25 +0000";
layers = (
{
layerId = "543A10D7-AEBA-4506-A699-AAC0E38B8B94";
paths = (
{
closed = 1;
nodes = (
"165 21 OFFCURVE",
"187 21 OFFCURVE",
"229 21 CURVE SMOOTH",
"266 21 OFFCURVE",
"375 3 OFFCURVE",
"378 3 CURVE",
"378 15 LINE",
"267 32 OFFCURVE",
"266 105 OFFCURVE",
"266 236 CURVE SMOOTH",
"266 532 LINE SMOOTH",
"266 663 OFFCURVE",
"267 736 OFFCURVE",
"378 753 CURVE",
"378 765 LINE",
"375 765 OFFCURVE",
"266 747 OFFCURVE",
"229 747 CURVE SMOOTH",
"187 747 OFFCURVE",
"165 747 OFFCURVE",
"86 765 CURVE",
"86 753 LINE",
"197 736 OFFCURVE",
"198 665 OFFCURVE",
"198 534 CURVE SMOOTH",
"198 234 LINE SMOOTH",
"198 103 OFFCURVE",
"197 32 OFFCURVE",
"86 15 CURVE",
"86 3 LINE"
);
},
{
closed = 1;
nodes = (
"237 917 LINE",
"421 842 LINE",
"432 854 LINE",
"235 978 LINE",
"37 854 LINE",
"48 842 LINE"
);
}
);
width = 469;
}
);
leftKerningGroup = K;
note = Icircumflex;
rightKerningGroup = I;
unicode = 00CE;
},
{
glyphname = Ocircumflex;
lastChange = "2020-03-09 09:05:17 +0000";
layers = (
{
layerId = "543A10D7-AEBA-4506-A699-AAC0E38B8B94";
paths = (
{
closed = 1;
nodes = (
"563 -6 OFFCURVE",
"643 17 OFFCURVE",
"712 66 CURVE SMOOTH",
"819 142 OFFCURVE",
"880 273 OFFCURVE",
"880 405 CURVE SMOOTH",
"880 486 OFFCURVE",
"857 568 OFFCURVE",
"807 638 CURVE SMOOTH",
"732 745 OFFCURVE",
"606 805 OFFCURVE",
"479 805 CURVE SMOOTH",
"400 805 OFFCURVE",
"320 782 OFFCURVE",
"250 733 CURVE SMOOTH",
"143 658 OFFCURVE",
"82 527 OFFCURVE",
"82 394 CURVE SMOOTH",
"82 313 OFFCURVE",
"105 231 OFFCURVE",
"155 161 CURVE SMOOTH",
"230 54 OFFCURVE",
"356 -6 OFFCURVE",
"484 -6 CURVE SMOOTH"
);
},
{
closed = 1;
nodes = (
"412 33 OFFCURVE",
"281 99 OFFCURVE",
"209 200 CURVE SMOOTH",
"162 266 OFFCURVE",
"137 355 OFFCURVE",
"137 442 CURVE SMOOTH",
"137 552 OFFCURVE",
"176 660 OFFCURVE",
"259 719 CURVE SMOOTH",
"307 753 OFFCURVE",
"365 768 OFFCURVE",
"424 768 CURVE SMOOTH",
"549 768 OFFCURVE",
"682 701 OFFCURVE",
"753 600 CURVE SMOOTH",
"800 534 OFFCURVE",
"824 446 OFFCURVE",
"824 360 CURVE SMOOTH",
"824 250 OFFCURVE",
"785 142 OFFCURVE",
"701 82 CURVE SMOOTH",
"653 48 OFFCURVE",
"595 33 OFFCURVE",
"536 33 CURVE SMOOTH"
);
},
{
closed = 1;
nodes = (
"477 917 LINE",
"661 842 LINE",
"672 854 LINE",
"475 978 LINE",
"277 854 LINE",
"288 842 LINE"
);
}
);
width = 962;
}
);
leftKerningGroup = O;
note = Ocircumflex;
rightKerningGroup = O;
unicode = 00D4;
},
{
glyphname = Ucircumflex;
lastChange = "2020-03-08 13:28:25 +0000";
layers = (
{
layerId = "543A10D7-AEBA-4506-A699-AAC0E38B8B94";
paths = (
{
closed = 1;
nodes = (
"796 -12 OFFCURVE",
"949 123 OFFCURVE",
"949 400 CURVE SMOOTH",
"949 536 LINE SMOOTH",
"949 667 OFFCURVE",
"961 736 OFFCURVE",
"1072 753 CURVE",
"1072 765 LINE",
"1069 765 OFFCURVE",
"977 747 OFFCURVE",
"940 747 CURVE SMOOTH",
"898 747 OFFCURVE",
"896 747 OFFCURVE",
"817 765 CURVE",
"817 753 LINE",
"928 736 OFFCURVE",
"936 666 OFFCURVE",
"935 535 CURVE SMOOTH",
"935 400 LINE SMOOTH",
"935 157 OFFCURVE",
"813 0 OFFCURVE",
"561 0 CURVE SMOOTH",
"379 0 OFFCURVE",
"257 127 OFFCURVE",
"257 396 CURVE SMOOTH",
"257 532 LINE SMOOTH",
"257 663 OFFCURVE",
"258 736 OFFCURVE",
"369 753 CURVE",
"369 765 LINE",
"366 765 OFFCURVE",
"257 747 OFFCURVE",
"220 747 CURVE SMOOTH",
"178 747 OFFCURVE",
"156 747 OFFCURVE",
"77 765 CURVE",
"77 753 LINE",
"188 736 OFFCURVE",
"190 665 OFFCURVE",
"189 534 CURVE SMOOTH",
"188 395 LINE SMOOTH",
"188 103 OFFCURVE",
"351 -12 OFFCURVE",
"562 -12 CURVE SMOOTH"
);
},
{
closed = 1;
nodes = (
"598 917 LINE",
"782 842 LINE",
"793 854 LINE",
"596 978 LINE",
"398 854 LINE",
"409 842 LINE"
);
}
);
width = 1149;
}
);
leftKerningGroup = U;
note = Ucircumflex;
rightKerningGroup = U;
unicode = 00DB;
},
{
glyphname = acircumflex;
lastChange = "2020-03-09 09:03:56 +0000";
layers = (
{
layerId = "543A10D7-AEBA-4506-A699-AAC0E38B8B94";
paths = (
{
closed = 1;
nodes = (
"218 -7 OFFCURVE",
"322 67 OFFCURVE",
"327 81 CURVE",
"327 59 OFFCURVE",
"327 0 OFFCURVE",
"384 0 CURVE SMOOTH",
"477 0 OFFCURVE",
"521 65 OFFCURVE",
"524 65 CURVE",
"508 83 LINE",
"500 74 OFFCURVE",
"450 49 OFFCURVE",
"432 49 CURVE SMOOTH",
"408 49 OFFCURVE",
"392 72 OFFCURVE",
"392 175 CURVE SMOOTH",
"392 325 LINE SMOOTH",
"392 429 OFFCURVE",
"323 460 OFFCURVE",
"244 460 CURVE SMOOTH",
"137 460 OFFCURVE",
"52 410 OFFCURVE",
"52 351 CURVE",
"120 306 LINE",
"120 392 OFFCURVE",
"168 441 OFFCURVE",
"213 441 CURVE SMOOTH",
"272 441 OFFCURVE",
"327 390 OFFCURVE",
"327 298 CURVE",
"239 273 LINE SMOOTH",
"92 231 OFFCURVE",
"49 183 OFFCURVE",
"49 104 CURVE SMOOTH",
"49 24 OFFCURVE",
"99 -7 OFFCURVE",
"159 -7 CURVE SMOOTH"
);
},
{
closed = 1;
nodes = (
"155 47 OFFCURVE",
"108 70 OFFCURVE",
"108 147 CURVE SMOOTH",
"108 207 OFFCURVE",
"164 233 OFFCURVE",
"226 250 CURVE SMOOTH",
"327 278 LINE",
"327 278 OFFCURVE",
"327 260 OFFCURVE",
"327 236 CURVE SMOOTH",
"327 187 OFFCURVE",
"327 115 OFFCURVE",
"327 115 CURVE",
"327 97 OFFCURVE",
"252 50 OFFCURVE",
"216 49 CURVE SMOOTH"
);
},
{
closed = 1;
nodes = (
"232 633 LINE",
"416 558 LINE",
"427 570 LINE",
"230 694 LINE",
"32 570 LINE",
"43 558 LINE"
);
}
);
width = 535;
}
);
leftKerningGroup = a;
note = acircumflex;
rightKerningGroup = d;
unicode = 00E2;
},
{
glyphname = ocircumflex;
lastChange = "2020-03-09 09:05:17 +0000";
layers = (
{
layerId = "543A10D7-AEBA-4506-A699-AAC0E38B8B94";
paths = (
{
closed = 1;
nodes = (
"335 -7 OFFCURVE",
"381 6 OFFCURVE",
"421 35 CURVE SMOOTH",
"483 79 OFFCURVE",
"518 153 OFFCURVE",
"518 229 CURVE SMOOTH",
"518 275 OFFCURVE",
"505 322 OFFCURVE",
"476 362 CURVE SMOOTH",
"432 424 OFFCURVE",
"360 459 OFFCURVE",
"287 459 CURVE SMOOTH",
"241 459 OFFCURVE",
"195 446 OFFCURVE",
"154 417 CURVE SMOOTH",
"92 373 OFFCURVE",
"56 299 OFFCURVE",
"56 224 CURVE SMOOTH",
"56 177 OFFCURVE",
"70 130 OFFCURVE",
"99 90 CURVE SMOOTH",
"142 28 OFFCURVE",
"215 -7 OFFCURVE",
"289 -7 CURVE SMOOTH"
);
},
{
closed = 1;
nodes = (
"269 34 OFFCURVE",
"196 80 OFFCURVE",
"158 136 CURVE SMOOTH",
"130 175 OFFCURVE",
"112 231 OFFCURVE",
"112 282 CURVE SMOOTH",
"112 330 OFFCURVE",
"127 375 OFFCURVE",
"163 402 CURVE SMOOTH",
"183 417 OFFCURVE",
"207 423 OFFCURVE",
"231 423 CURVE SMOOTH",
"297 423 OFFCURVE",
"370 377 OFFCURVE",
"409 321 CURVE SMOOTH",
"436 280 OFFCURVE",
"454 225 OFFCURVE",
"454 174 CURVE SMOOTH",
"454 126 OFFCURVE",
"439 82 OFFCURVE",
"402 55 CURVE SMOOTH",
"382 40 OFFCURVE",
"359 34 OFFCURVE",
"335 34 CURVE SMOOTH"
);
},
{
closed = 1;
nodes = (
"290 633 LINE",
"474 558 LINE",
"485 570 LINE",
"288 694 LINE",
"90 570 LINE",
"101 558 LINE"
);
}
);
width = 574;
}
);
leftKerningGroup = o;
note = ocircumflex;
rightKerningGroup = o;
unicode = 00F4;
},
{
glyphname = ucircumflex;
lastChange = "2020-03-09 09:03:56 +0000";
layers = (
{
layerId = "543A10D7-AEBA-4506-A699-AAC0E38B8B94";
paths = (
{
closed = 1;
nodes = (
"485 -3 LINE",
"530 31 OFFCURVE",
"578 49 OFFCURVE",
"645 49 CURVE",
"645 61 LINE",
"536 78 OFFCURVE",
"533 77 OFFCURVE",
"533 203 CURVE SMOOTH",
"533 454 LINE",
"393 414 LINE",
"393 402 LINE",
"464 388 OFFCURVE",
"465 376 OFFCURVE",
"465 247 CURVE SMOOTH",
"465 214 OFFCURVE",
"458 31 OFFCURVE",
"282 31 CURVE SMOOTH",
"249 31 OFFCURVE",
"203 80 OFFCURVE",
"203 164 CURVE SMOOTH",
"203 454 LINE",
"135 436 OFFCURVE",
"56 424 OFFCURVE",
"53 424 CURVE",
"53 412 LINE",
"135 399 OFFCURVE",
"135 356 OFFCURVE",
"135 232 CURVE SMOOTH",
"135 146 LINE SMOOTH",
"135 29 OFFCURVE",
"210 3 OFFCURVE",
"278 3 CURVE SMOOTH",
"391 3 OFFCURVE",
"443 83 OFFCURVE",
"466 153 CURVE",
"466 -3 LINE"
);
},
{
closed = 1;
nodes = (
"324 633 LINE",
"508 558 LINE",
"519 570 LINE",
"322 694 LINE",
"124 570 LINE",
"135 558 LINE"
);
}
);
width = 698;
}
);
leftKerningGroup = u;
note = ucircumflex;
rightKerningGroup = u;
unicode = 00FB;
},
{
glyphname = less;
lastChange = "2020-03-08 13:28:25 +0000";
layers = (
{
layerId = "543A10D7-AEBA-4506-A699-AAC0E38B8B94";
paths = (
{
closed = 1;
nodes = (
"253 40 LINE",
"178 229 LINE",
"253 413 LINE",
"241 424 LINE",
"117 227 LINE",
"241 29 LINE"
);
}
);
width = 389;
}
);
note = less;
unicode = 003C;
},
{
glyphname = greater;
lastChange = "2020-03-08 13:28:25 +0000";
layers = (
{
layerId = "543A10D7-AEBA-4506-A699-AAC0E38B8B94";
paths = (
{
closed = 1;
nodes = (
"253 227 LINE",
"129 424 LINE",
"117 413 LINE",
"192 229 LINE",
"117 40 LINE",
"129 29 LINE"
);
}
);
width = 386;
}
);
note = greater;
unicode = 003E;
},
{
glyphname = guilsinglright;
lastChange = "2020-03-08 13:28:25 +0000";
layers = (
{
layerId = "543A10D7-AEBA-4506-A699-AAC0E38B8B94";
paths = (
{
closed = 1;
nodes = (
"253 227 LINE",
"129 424 LINE",
"117 413 LINE",
"192 229 LINE",
"117 40 LINE",
"129 29 LINE"
);
}
);
width = 380;
}
);
note = guilsinglright;
unicode = 203A;
},
{
glyphname = guilsinglleft;
lastChange = "2020-03-08 13:28:25 +0000";
layers = (
{
layerId = "543A10D7-AEBA-4506-A699-AAC0E38B8B94";
paths = (
{
closed = 1;
nodes = (
"253 40 LINE",
"178 229 LINE",
"253 413 LINE",
"241 424 LINE",
"117 227 LINE",
"241 29 LINE"
);
}
);
width = 395;
}
);
note = guilsinglleft;
unicode = 2039;
},
{
glyphname = trademark;
lastChange = "2020-03-08 13:54:14 +0000";
layers = (
{
layerId = "543A10D7-AEBA-4506-A699-AAC0E38B8B94";
paths = (
{
closed = 1;
nodes = (
"1202 305 LINE",
"923 773 LINE",
"828 594 LINE",
"722 773 LINE",
"476 305 LINE"
);
},
{
closed = 1;
nodes = (
"268 316 OFFCURVE",
"281 316 OFFCURVE",
"307 316 CURVE SMOOTH",
"329 316 OFFCURVE",
"396 305 OFFCURVE",
"398 305 CURVE",
"398 312 LINE",
"330 323 OFFCURVE",
"329 367 OFFCURVE",
"329 447 CURVE SMOOTH",
"329 752 LINE",
"479 752 LINE SMOOTH",
"555 750 OFFCURVE",
"564 698 OFFCURVE",
"566 689 CURVE",
"567 686 OFFCURVE",
"579 602 OFFCURVE",
"579 602 CURVE",
"586 602 LINE",
"586 604 OFFCURVE",
"575 670 OFFCURVE",
"575 693 CURVE SMOOTH",
"575 718 OFFCURVE",
"575 732 OFFCURVE",
"586 780 CURVE",
"579 780 LINE",
"575 764 OFFCURVE",
"565 761 OFFCURVE",
"551 761 CURVE SMOOTH",
"75 761 LINE SMOOTH",
"61 761 OFFCURVE",
"51 764 OFFCURVE",
"47 780 CURVE",
"40 780 LINE",
"51 732 OFFCURVE",
"51 718 OFFCURVE",
"51 693 CURVE SMOOTH",
"51 670 OFFCURVE",
"40 604 OFFCURVE",
"40 602 CURVE",
"47 602 LINE",
"47 602 OFFCURVE",
"59 686 OFFCURVE",
"60 689 CURVE",
"62 698 OFFCURVE",
"71 750 OFFCURVE",
"148 752 CURVE SMOOTH",
"288 752 LINE",
"288 446 LINE SMOOTH",
"288 366 OFFCURVE",
"287 323 OFFCURVE",
"220 312 CURVE",
"220 305 LINE"
);
},
{
closed = 1;
nodes = (
"494 319 LINE",
"705 712 LINE",
"803 546 LINE",
"684 318 LINE"
);
},
{
closed = 1;
nodes = (
"695 319 LINE",
"810 534 LINE",
"938 318 LINE"
);
},
{
closed = 1;
nodes = (
"836 581 LINE",
"906 712 LINE",
"1140 318 LINE",
"993 318 LINE"
);
}
);
width = 1242;
}
);
note = trademark;
unicode = 2122;
},
{
glyphname = bracketleft;
lastChange = "2020-03-08 13:28:25 +0000";
layers = (
{
layerId = "543A10D7-AEBA-4506-A699-AAC0E38B8B94";
paths = (
{
closed = 1;
nodes = (
"280 -155 LINE",
"169 -138 OFFCURVE",
"168 -67 OFFCURVE",
"168 64 CURVE SMOOTH",
"168 364 LINE SMOOTH",
"168 495 OFFCURVE",
"169 566 OFFCURVE",
"280 583 CURVE",
"280 595 LINE",
"201 577 OFFCURVE",
"179 577 OFFCURVE",
"137 577 CURVE SMOOTH",
"100 577 OFFCURVE",
"100 449 OFFCURVE",
"100 362 CURVE SMOOTH",
"100 66 LINE SMOOTH",
"100 -65 OFFCURVE",
"99 -138 OFFCURVE",
"137 -149 CURVE",
"179 -149 OFFCURVE",
"201 -149 OFFCURVE",
"280 -167 CURVE"
);
}
);
width = 320;
}
);
note = bracketleft;
unicode = 005B;
},
{
glyphname = Zcaron;
lastChange = "2020-03-09 09:03:56 +0000";
layers = (
{
layerId = "543A10D7-AEBA-4506-A699-AAC0E38B8B94";
paths = (
{
closed = 1;
nodes = (
"989 -92 LINE",
"971 -13 OFFCURVE",
"971 9 OFFCURVE",
"971 51 CURVE SMOOTH",
"971 88 OFFCURVE",
"989 197 OFFCURVE",
"989 200 CURVE",
"977 200 LINE",
"969 78 OFFCURVE",
"838 14 OFFCURVE",
"762 14 CURVE SMOOTH",
"369 13 LINE SMOOTH",
"328 13 OFFCURVE",
"310 24 OFFCURVE",
"310 45 CURVE SMOOTH",
"310 81 OFFCURVE",
"368 148 OFFCURVE",
"457 233 CURVE",
"745 534 LINE",
"748 538 OFFCURVE",
"946 736 OFFCURVE",
"1057 753 CURVE",
"1057 765 LINE",
"1009 754 OFFCURVE",
"1000 748 OFFCURVE",
"943 748 CURVE SMOOTH",
"293 748 LINE SMOOTH",
"256 749 OFFCURVE",
"244 793 OFFCURVE",
"232 843 CURVE",
"220 843 LINE",
"238 764 OFFCURVE",
"238 742 OFFCURVE",
"238 700 CURVE SMOOTH",
"238 663 OFFCURVE",
"220 554 OFFCURVE",
"220 551 CURVE",
"232 551 LINE",
"239 660 OFFCURVE",
"335 734 OFFCURVE",
"412 734 CURVE SMOOTH",
"775 734 LINE SMOOTH",
"822 734 OFFCURVE",
"846 728 OFFCURVE",
"846 710 CURVE SMOOTH",
"846 665 OFFCURVE",
"693 540 OFFCURVE",
"389 231 CURVE",
"384 231 OFFCURVE",
"188 29 OFFCURVE",
"77 12 CURVE",
"77 0 LINE",
"911 0 LINE SMOOTH",
"940 0 OFFCURVE",
"966 -45 OFFCURVE",
"977 -92 CURVE"
);
},
{
closed = 1;
nodes = (
"774 965 LINE",
"763 977 LINE",
"579 902 LINE",
"390 977 LINE",
"379 965 LINE",
"577 841 LINE"
);
}
);
width = 1134;
}
);
leftKerningGroup = Z;
note = Zcaron;
rightKerningGroup = Z;
unicode = 017D;
},
{
glyphname = zcaron;
lastChange = "2020-03-09 09:03:56 +0000";
layers = (
{
layerId = "543A10D7-AEBA-4506-A699-AAC0E38B8B94";
paths = (
{
closed = 1;
nodes = (
"455 0 LINE",
"455 43 OFFCURVE",
"523 135 OFFCURVE",
"533 200 CURVE",
"512 200 LINE",
"512 76 OFFCURVE",
"382 14 OFFCURVE",
"306 14 CURVE SMOOTH",
"135 13 LINE",
"483 441 LINE",
"101 441 LINE",
"101 431 OFFCURVE",
"102 420 OFFCURVE",
"102 405 CURVE SMOOTH",
"102 368 OFFCURVE",
"96 315 OFFCURVE",
"56 240 CURVE",
"68 240 LINE",
"118 358 OFFCURVE",
"168 427 OFFCURVE",
"244 427 CURVE SMOOTH",
"392 428 LINE",
"58 15 LINE",
"58 0 LINE"
);
},
{
closed = 1;
nodes = (
"524 682 LINE",
"513 694 LINE",
"329 619 LINE",
"140 694 LINE",
"129 682 LINE",
"327 558 LINE"
);
}
);
width = 549;
}
);
leftKerningGroup = z;
note = zcaron;
rightKerningGroup = z;
unicode = 017E;
},
{
glyphname = Scaron;
lastChange = "2020-03-09 09:03:56 +0000";
layers = (
{
layerId = "543A10D7-AEBA-4506-A699-AAC0E38B8B94";
paths = (
{
closed = 1;
nodes = (
"709 -814 OFFCURVE",
"804 -544 OFFCURVE",
"803 -366 CURVE SMOOTH",
"803 61 OFFCURVE",
"128 240 OFFCURVE",
"128 538 CURVE",
"135 654 OFFCURVE",
"191 760 OFFCURVE",
"310 769 CURVE SMOOTH",
"481 782 OFFCURVE",
"671 657 OFFCURVE",
"723 488 CURVE",
"735 488 LINE",
"735 491 OFFCURVE",
"717 600 OFFCURVE",
"717 637 CURVE SMOOTH",
"717 679 OFFCURVE",
"717 701 OFFCURVE",
"735 780 CURVE",
"723 780 LINE",
"716 737 OFFCURVE",
"702 705 OFFCURVE",
"678 683 CURVE",
"602 762 OFFCURVE",
"496 805 OFFCURVE",
"387 805 CURVE SMOOTH",
"206 805 OFFCURVE",
"71 677 OFFCURVE",
"71 470 CURVE SMOOTH",
"71 230 OFFCURVE",
"758 -46 OFFCURVE",
"758 -443 CURVE SMOOTH",
"758 -687 OFFCURVE",
"591 -765 OFFCURVE",
"369 -772 CURVE SMOOTH",
"244 -772 OFFCURVE",
"91 -636 OFFCURVE",
"49 -497 CURVE",
"37 -497 LINE",
"37 -500 OFFCURVE",
"55 -609 OFFCURVE",
"55 -646 CURVE SMOOTH",
"55 -688 OFFCURVE",
"55 -710 OFFCURVE",
"37 -789 CURVE",
"49 -789 LINE",
"56 -746 OFFCURVE",
"70 -714 OFFCURVE",
"94 -692 CURVE",
"168 -769 OFFCURVE",
"271 -812 OFFCURVE",
"377 -814 CURVE SMOOTH"
);
},
{
closed = 1;
nodes = (
"594 963 LINE",
"583 975 LINE",
"399 900 LINE",
"210 975 LINE",
"199 963 LINE",
"397 839 LINE"
);
}
);
width = 850;
}
);
leftKerningGroup = S;
note = Scaron;
rightKerningGroup = S;
unicode = 0160;
},
{
glyphname = scaron;
lastChange = "2020-03-08 13:28:25 +0000";
layers = (
{
layerId = "543A10D7-AEBA-4506-A699-AAC0E38B8B94";
paths = (
{
closed = 1;
nodes = (
"333 -8 OFFCURVE",
"441 42 OFFCURVE",
"441 140 CURVE SMOOTH",
"441 249 OFFCURVE",
"341 257 OFFCURVE",
"269 285 CURVE SMOOTH",
"169 322 OFFCURVE",
"150 336 OFFCURVE",
"150 373 CURVE SMOOTH",
"150 399 OFFCURVE",
"177 443 OFFCURVE",
"254 443 CURVE SMOOTH",
"299 443 OFFCURVE",
"360 404 OFFCURVE",
"360 318 CURVE",
"428 363 LINE",
"402 431 OFFCURVE",
"324 460 OFFCURVE",
"256 460 CURVE SMOOTH",
"182 460 OFFCURVE",
"100 416 OFFCURVE",
"100 334 CURVE SMOOTH",
"100 242 OFFCURVE",
"185 222 OFFCURVE",
"248 202 CURVE SMOOTH",
"268 196 OFFCURVE",
"377 179 OFFCURVE",
"377 114 CURVE SMOOTH",
"377 38 OFFCURVE",
"298 9 OFFCURVE",
"253 9 CURVE SMOOTH",
"186 9 OFFCURVE",
"86 74 OFFCURVE",
"80 109 CURVE",
"80 12 LINE",
"120 12 OFFCURVE",
"182 -8 OFFCURVE",
"230 -8 CURVE SMOOTH"
);
},
{
closed = 1;
nodes = (
"461 682 LINE",
"450 694 LINE",
"266 619 LINE",
"77 694 LINE",
"66 682 LINE",
"264 558 LINE"
);
}
);
width = 527;
}
);
leftKerningGroup = s;
note = scaron;
rightKerningGroup = s;
unicode = 0161;
},
{
glyphname = exclam;
lastChange = "2020-03-08 13:28:25 +0000";
layers = (
{
layerId = "543A10D7-AEBA-4506-A699-AAC0E38B8B94";
paths = (
{
closed = 1;
nodes = (
"312 532 LINE SMOOTH",
"312 663 OFFCURVE",
"313 736 OFFCURVE",
"424 753 CURVE",
"424 765 LINE",
"421 765 OFFCURVE",
"312 747 OFFCURVE",
"275 747 CURVE SMOOTH",
"233 747 OFFCURVE",
"211 747 OFFCURVE",
"132 765 CURVE",
"132 753 LINE",
"243 736 OFFCURVE",
"244 665 OFFCURVE",
"244 534 CURVE SMOOTH",
"243 176 LINE",
"312 174 LINE"
);
},
{
closed = 1;
nodes = (
"306 -1 OFFCURVE",
"329 22 OFFCURVE",
"329 50 CURVE SMOOTH",
"329 78 OFFCURVE",
"306 100 OFFCURVE",
"278 100 CURVE SMOOTH",
"250 100 OFFCURVE",
"228 78 OFFCURVE",
"228 50 CURVE SMOOTH",
"228 22 OFFCURVE",
"250 -1 OFFCURVE",
"278 -1 CURVE SMOOTH"
);
}
);
width = 556;
}
);
note = exclam;
unicode = 0021;
},
{
glyphname = asterisk;
lastChange = "2019-05-31 17:34:00 +0000";
layers = (
{
layerId = "543A10D7-AEBA-4506-A699-AAC0E38B8B94";
paths = (
{
closed = 1;
nodes = (
"206 302 LINE",
"206 452 LINE",
"308 350 LINE",
"318 360 LINE",
"211 467 LINE",
"323 579 LINE",
"313 589 LINE",
"206 482 LINE",
"206 625 LINE",
"192 625 LINE",
"192 482 LINE",
"85 589 LINE",
"75 579 LINE",
"187 467 LINE",
"80 360 LINE",
"90 350 LINE",
"192 452 LINE",
"192 302 LINE"
);
}
);
width = 398;
}
);
note = asterisk;
unicode = 002A;
},
{
glyphname = zero;
lastChange = "2020-03-09 09:03:56 +0000";
layers = (
{
layerId = "543A10D7-AEBA-4506-A699-AAC0E38B8B94";
paths = (
{
closed = 1;
nodes = (
"431 -7 OFFCURVE",
"534 142 OFFCURVE",
"534 379 CURVE SMOOTH",
"534 620 OFFCURVE",
"434 759 OFFCURVE",
"303 759 CURVE SMOOTH",
"174 759 OFFCURVE",
"72 616 OFFCURVE",
"72 382 CURVE SMOOTH",
"72 144 OFFCURVE",
"184 -9 OFFCURVE",
"307 -7 CURVE SMOOTH"
);
},
{
closed = 1;
nodes = (
"228 34 OFFCURVE",
"129 276 OFFCURVE",
"129 433 CURVE SMOOTH",
"129 590 OFFCURVE",
"161 723 OFFCURVE",
"248 723 CURVE SMOOTH",
"371 723 OFFCURVE",
"469 509 OFFCURVE",
"469 346 CURVE SMOOTH",
"469 183 OFFCURVE",
"433 34 OFFCURVE",
"350 34 CURVE SMOOTH"
);
}
);
width = 606;
}
);
note = zero;
unicode = 0030;
},
{
glyphname = bracketright;
lastChange = "2020-03-08 13:28:25 +0000";
layers = (
{
layerId = "543A10D7-AEBA-4506-A699-AAC0E38B8B94";
paths = (
{
closed = 1;
nodes = (
"119 -149 OFFCURVE",
"141 -149 OFFCURVE",
"183 -149 CURVE",
"221 -138 OFFCURVE",
"220 -65 OFFCURVE",
"220 66 CURVE SMOOTH",
"220 362 LINE SMOOTH",
"220 449 OFFCURVE",
"220 577 OFFCURVE",
"183 577 CURVE SMOOTH",
"141 577 OFFCURVE",
"119 577 OFFCURVE",
"40 595 CURVE",
"40 583 LINE",
"151 566 OFFCURVE",
"152 495 OFFCURVE",
"152 364 CURVE SMOOTH",
"152 64 LINE SMOOTH",
"152 -67 OFFCURVE",
"151 -138 OFFCURVE",
"40 -155 CURVE",
"40 -167 LINE"
);
}
);
width = 320;
}
);
note = bracketright;
unicode = 005D;
},
{
glyphname = parenleft;
lastChange = "2020-03-08 13:28:25 +0000";
layers = (
{
layerId = "543A10D7-AEBA-4506-A699-AAC0E38B8B94";
paths = (
{
closed = 1;
nodes = (
"413 -174 OFFCURVE",
"410 -152 OFFCURVE",
"410 -152 CURVE SMOOTH",
"298 -152 OFFCURVE",
"207 1 OFFCURVE",
"207 214 CURVE SMOOTH",
"207 427 OFFCURVE",
"298 590 OFFCURVE",
"410 590 CURVE",
"411 610 LINE",
"257 610 OFFCURVE",
"132 427 OFFCURVE",
"132 214 CURVE SMOOTH",
"132 1 OFFCURVE",
"257 -172 OFFCURVE",
"411 -172 CURVE"
);
}
);
width = 464;
}
);
note = parenleft;
rightKerningGroup = parenleft;
unicode = 0028;
},
{
glyphname = parenright;
lastChange = "2020-03-09 09:03:56 +0000";
layers = (
{
layerId = "543A10D7-AEBA-4506-A699-AAC0E38B8B94";
paths = (
{
closed = 1;
nodes = (
"207 -172 OFFCURVE",
"332 1 OFFCURVE",
"332 214 CURVE SMOOTH",
"332 427 OFFCURVE",
"207 610 OFFCURVE",
"53 610 CURVE",
"54 590 LINE",
"166 590 OFFCURVE",
"257 427 OFFCURVE",
"257 214 CURVE SMOOTH",
"257 1 OFFCURVE",
"166 -152 OFFCURVE",
"54 -152 CURVE SMOOTH",
"54 -152 OFFCURVE",
"52 -164 OFFCURVE",
"52 -170 CURVE SMOOTH",
"52 -172 OFFCURVE",
"53 -173 OFFCURVE",
"53 -172 CURVE"
);
}
);
width = 464;
}
);
leftKerningGroup = parenright;
note = parenright;
unicode = 0029;
},
{
glyphname = braceleft;
lastChange = "2020-03-09 09:03:56 +0000";
layers = (
{
layerId = "543A10D7-AEBA-4506-A699-AAC0E38B8B94";
paths = (
{
closed = 1;
nodes = (
"301 -174 OFFCURVE",
"298 -152 OFFCURVE",
"298 -152 CURVE SMOOTH",
"241 -152 OFFCURVE",
"232 -114 OFFCURVE",
"232 -48 CURVE SMOOTH",
"232 -18 OFFCURVE",
"234 16 OFFCURVE",
"234 56 CURVE SMOOTH",
"234 148 OFFCURVE",
"119 156 OFFCURVE",
"119 214 CURVE SMOOTH",
"119 273 OFFCURVE",
"234 276 OFFCURVE",
"234 376 CURVE SMOOTH",
"234 415 OFFCURVE",
"233 450 OFFCURVE",
"233 479 CURVE SMOOTH",
"233 549 OFFCURVE",
"241 590 OFFCURVE",
"298 590 CURVE",
"299 610 LINE",
"186 610 OFFCURVE",
"165 519 OFFCURVE",
"165 376 CURVE SMOOTH",
"165 254 OFFCURVE",
"100 271 OFFCURVE",
"100 214 CURVE SMOOTH",
"100 154 OFFCURVE",
"167 172 OFFCURVE",
"167 47 CURVE SMOOTH",
"167 -90 OFFCURVE",
"188 -172 OFFCURVE",
"299 -172 CURVE"
);
}
);
width = 340;
}
);
note = braceleft;
unicode = 007B;
},
{
glyphname = braceright;
lastChange = "2020-03-09 09:03:56 +0000";
layers = (
{
layerId = "543A10D7-AEBA-4506-A699-AAC0E38B8B94";
paths = (
{
closed = 1;
nodes = (
"152 -172 OFFCURVE",
"173 -90 OFFCURVE",
"173 47 CURVE SMOOTH",
"173 172 OFFCURVE",
"240 154 OFFCURVE",
"240 214 CURVE SMOOTH",
"240 271 OFFCURVE",
"175 254 OFFCURVE",
"175 376 CURVE SMOOTH",
"175 519 OFFCURVE",
"154 610 OFFCURVE",
"41 610 CURVE",
"42 590 LINE",
"99 590 OFFCURVE",
"107 549 OFFCURVE",
"107 479 CURVE SMOOTH",
"107 450 OFFCURVE",
"106 415 OFFCURVE",
"106 376 CURVE SMOOTH",
"106 276 OFFCURVE",
"221 273 OFFCURVE",
"221 214 CURVE SMOOTH",
"221 156 OFFCURVE",
"106 148 OFFCURVE",
"106 56 CURVE SMOOTH",
"106 16 OFFCURVE",
"108 -18 OFFCURVE",
"108 -48 CURVE SMOOTH",
"108 -114 OFFCURVE",
"99 -152 OFFCURVE",
"42 -152 CURVE SMOOTH",
"42 -152 OFFCURVE",
"40 -164 OFFCURVE",
"40 -170 CURVE SMOOTH",
"40 -172 OFFCURVE",
"41 -173 OFFCURVE",
"41 -172 CURVE"
);
}
);
width = 340;
}
);
note = braceright;
unicode = 007D;
},
{
glyphname = quotesinglbase;
lastChange = "2020-03-09 09:03:56 +0000";
layers = (
{
layerId = "543A10D7-AEBA-4506-A699-AAC0E38B8B94";
paths = (
{
closed = 1;
nodes = (
"166 -170 OFFCURVE",
"245 -118 OFFCURVE",
"245 -33 CURVE SMOOTH",
"245 -19 OFFCURVE",
"244 -4 OFFCURVE",
"234 8 CURVE SMOOTH",
"224 19 OFFCURVE",
"210 25 OFFCURVE",
"196 25 CURVE SMOOTH",
"184 25 OFFCURVE",
"172 21 OFFCURVE",
"162 13 CURVE",
"153 5 OFFCURVE",
"144 -6 OFFCURVE",
"144 -26 CURVE SMOOTH",
"144 -60 OFFCURVE",
"177 -60 OFFCURVE",
"177 -95 CURVE SMOOTH",
"177 -122 OFFCURVE",
"132 -157 OFFCURVE",
"105 -157 CURVE",
"110 -170 LINE"
);
}
);
width = 379;
}
);
note = quotesinglbase;
unicode = 201A;
},
{
glyphname = quotedblbase;
lastChange = "2020-03-09 09:03:56 +0000";
layers = (
{
layerId = "543A10D7-AEBA-4506-A699-AAC0E38B8B94";
paths = (
{
closed = 1;
nodes = (
"366 -170 OFFCURVE",
"445 -118 OFFCURVE",
"445 -33 CURVE SMOOTH",
"445 -19 OFFCURVE",
"444 -4 OFFCURVE",
"434 8 CURVE SMOOTH",
"424 19 OFFCURVE",
"410 25 OFFCURVE",
"396 25 CURVE SMOOTH",
"384 25 OFFCURVE",
"372 21 OFFCURVE",
"362 13 CURVE",
"353 5 OFFCURVE",
"344 -6 OFFCURVE",
"344 -26 CURVE SMOOTH",
"344 -60 OFFCURVE",
"377 -60 OFFCURVE",
"377 -95 CURVE SMOOTH",
"377 -122 OFFCURVE",
"332 -157 OFFCURVE",
"305 -157 CURVE",
"310 -170 LINE"
);
},
{
closed = 1;
nodes = (
"166 -170 OFFCURVE",
"245 -118 OFFCURVE",
"245 -33 CURVE SMOOTH",
"245 -19 OFFCURVE",
"244 -4 OFFCURVE",
"234 8 CURVE SMOOTH",
"224 19 OFFCURVE",
"210 25 OFFCURVE",
"196 25 CURVE SMOOTH",
"184 25 OFFCURVE",
"172 21 OFFCURVE",
"162 13 CURVE",
"153 5 OFFCURVE",
"144 -6 OFFCURVE",
"144 -26 CURVE SMOOTH",
"144 -60 OFFCURVE",
"177 -60 OFFCURVE",
"177 -95 CURVE SMOOTH",
"177 -122 OFFCURVE",
"132 -157 OFFCURVE",
"105 -157 CURVE",
"110 -170 LINE"
);
}
);
width = 592;
}
);
note = quotedblbase;
unicode = 201E;
},
{
glyphname = ring;
lastChange = "2020-03-08 13:28:25 +0000";
layers = (
{
layerId = "543A10D7-AEBA-4506-A699-AAC0E38B8B94";
paths = (
{
closed = 1;
nodes = (
"209 484 OFFCURVE",
"242 515 OFFCURVE",
"242 554 CURVE SMOOTH",
"242 593 OFFCURVE",
"209 626 OFFCURVE",
"170 626 CURVE SMOOTH",
"131 626 OFFCURVE",
"100 593 OFFCURVE",
"100 554 CURVE SMOOTH",
"100 515 OFFCURVE",
"131 484 OFFCURVE",
"170 484 CURVE SMOOTH"
);
},
{
closed = 1;
nodes = (
"142 504 OFFCURVE",
"120 526 OFFCURVE",
"120 554 CURVE SMOOTH",
"120 582 OFFCURVE",
"142 605 OFFCURVE",
"170 605 CURVE SMOOTH",
"198 605 OFFCURVE",
"221 582 OFFCURVE",
"221 554 CURVE SMOOTH",
"221 526 OFFCURVE",
"198 504 OFFCURVE",
"170 504 CURVE SMOOTH"
);
}
);
width = 342;
}
);
note = ring;
unicode = 02DA;
},
{
glyphname = aring;
lastChange = "2020-03-09 09:03:56 +0000";
layers = (
{
layerId = "543A10D7-AEBA-4506-A699-AAC0E38B8B94";
paths = (
{
closed = 1;
nodes = (
"217 -7 OFFCURVE",
"321 67 OFFCURVE",
"326 81 CURVE",
"326 59 OFFCURVE",
"326 0 OFFCURVE",
"383 0 CURVE SMOOTH",
"476 0 OFFCURVE",
"520 65 OFFCURVE",
"523 65 CURVE",
"507 83 LINE",
"499 74 OFFCURVE",
"449 49 OFFCURVE",
"431 49 CURVE SMOOTH",
"407 49 OFFCURVE",
"391 72 OFFCURVE",
"391 175 CURVE SMOOTH",
"391 325 LINE SMOOTH",
"391 429 OFFCURVE",
"322 460 OFFCURVE",
"243 460 CURVE SMOOTH",
"136 460 OFFCURVE",
"51 410 OFFCURVE",
"51 351 CURVE",
"119 306 LINE",
"119 392 OFFCURVE",
"167 441 OFFCURVE",
"212 441 CURVE SMOOTH",
"271 441 OFFCURVE",
"326 390 OFFCURVE",
"326 298 CURVE",
"238 273 LINE SMOOTH",
"91 231 OFFCURVE",
"48 183 OFFCURVE",
"48 104 CURVE SMOOTH",
"48 24 OFFCURVE",
"98 -7 OFFCURVE",
"158 -7 CURVE SMOOTH"
);
},
{
closed = 1;
nodes = (
"154 47 OFFCURVE",
"107 70 OFFCURVE",
"107 147 CURVE SMOOTH",
"107 207 OFFCURVE",
"163 233 OFFCURVE",
"225 250 CURVE SMOOTH",
"326 278 LINE",
"326 278 OFFCURVE",
"326 260 OFFCURVE",
"326 236 CURVE SMOOTH",
"326 187 OFFCURVE",
"326 115 OFFCURVE",
"326 115 CURVE",
"326 97 OFFCURVE",
"251 50 OFFCURVE",
"215 49 CURVE SMOOTH"
);
},
{
closed = 1;
nodes = (
"277 555 OFFCURVE",
"310 586 OFFCURVE",
"310 625 CURVE SMOOTH",
"310 664 OFFCURVE",
"277 697 OFFCURVE",
"238 697 CURVE SMOOTH",
"199 697 OFFCURVE",
"168 664 OFFCURVE",
"168 625 CURVE SMOOTH",
"168 586 OFFCURVE",
"199 555 OFFCURVE",
"238 555 CURVE SMOOTH"
);
},
{
closed = 1;
nodes = (
"210 575 OFFCURVE",
"188 597 OFFCURVE",
"188 625 CURVE SMOOTH",
"188 653 OFFCURVE",
"210 676 OFFCURVE",
"238 676 CURVE SMOOTH",
"266 676 OFFCURVE",
"289 653 OFFCURVE",
"289 625 CURVE SMOOTH",
"289 597 OFFCURVE",
"266 575 OFFCURVE",
"238 575 CURVE SMOOTH"
);
}
);
width = 534;
}
);
leftKerningGroup = a;
note = aring;
rightKerningGroup = d;
unicode = 00E5;
},
{
glyphname = percent;
lastChange = "2020-03-08 13:28:25 +0000";
layers = (
{
layerId = "543A10D7-AEBA-4506-A699-AAC0E38B8B94";
paths = (
{
closed = 1;
nodes = (
"578 752 LINE",
"565 759 LINE",
"100 8 LINE",
"112 1 LINE"
);
},
{
closed = 1;
nodes = (
"510 -1 OFFCURVE",
"561 70 OFFCURVE",
"561 157 CURVE SMOOTH",
"561 245 OFFCURVE",
"510 320 OFFCURVE",
"446 320 CURVE SMOOTH",
"383 320 OFFCURVE",
"332 245 OFFCURVE",
"332 157 CURVE SMOOTH",
"332 70 OFFCURVE",
"383 -1 OFFCURVE",
"446 -1 CURVE SMOOTH"
);
},
{
closed = 1;
nodes = (
"400 17 OFFCURVE",
"393 70 OFFCURVE",
"393 157 CURVE SMOOTH",
"393 245 OFFCURVE",
"400 302 OFFCURVE",
"446 302 CURVE SMOOTH",
"492 302 OFFCURVE",
"499 245 OFFCURVE",
"499 157 CURVE SMOOTH",
"499 70 OFFCURVE",
"492 17 OFFCURVE",
"446 17 CURVE SMOOTH"
);
},
{
closed = 1;
nodes = (
"280 429 OFFCURVE",
"331 500 OFFCURVE",
"331 587 CURVE SMOOTH",
"331 675 OFFCURVE",
"280 750 OFFCURVE",
"216 750 CURVE SMOOTH",
"153 750 OFFCURVE",
"102 675 OFFCURVE",
"102 587 CURVE SMOOTH",
"102 500 OFFCURVE",
"153 429 OFFCURVE",
"216 429 CURVE SMOOTH"
);
},
{
closed = 1;
nodes = (
"170 447 OFFCURVE",
"163 500 OFFCURVE",
"163 587 CURVE SMOOTH",
"163 675 OFFCURVE",
"170 732 OFFCURVE",
"216 732 CURVE SMOOTH",
"262 732 OFFCURVE",
"269 675 OFFCURVE",
"269 587 CURVE SMOOTH",
"269 500 OFFCURVE",
"262 447 OFFCURVE",
"216 447 CURVE SMOOTH"
);
}
);
width = 678;
}
);
note = percent;
unicode = 0025;
},
{
glyphname = cedilla;
lastChange = "2020-03-09 09:03:56 +0000";
layers = (
{
layerId = "543A10D7-AEBA-4506-A699-AAC0E38B8B94";
paths = (
{
closed = 1;
nodes = (
"146 -266 LINE SMOOTH",
"232 -266 OFFCURVE",
"335 -157 OFFCURVE",
"335 -78 CURVE SMOOTH",
"335 -62 OFFCURVE",
"310 -49 OFFCURVE",
"276 -49 CURVE SMOOTH",
"185 -49 OFFCURVE",
"175 -61 OFFCURVE",
"175 -61 CURVE",
"222 0 LINE",
"149 0 LINE",
"100 -90 LINE",
"130 -79 OFFCURVE",
"185 -68 OFFCURVE",
"221 -68 CURVE SMOOTH",
"243 -68 OFFCURVE",
"259 -72 OFFCURVE",
"259 -83 CURVE SMOOTH",
"259 -193 OFFCURVE",
"156 -266 OFFCURVE",
"118 -266 CURVE"
);
}
);
width = 435;
}
);
note = cedilla;
unicode = 00B8;
},
{
glyphname = ccedilla;
lastChange = "2020-03-09 09:03:56 +0000";
layers = (
{
layerId = "543A10D7-AEBA-4506-A699-AAC0E38B8B94";
paths = (
{
closed = 1;
nodes = (
"223 -266 LINE SMOOTH",
"309 -266 OFFCURVE",
"412 -157 OFFCURVE",
"412 -78 CURVE SMOOTH",
"412 -62 OFFCURVE",
"387 -49 OFFCURVE",
"353 -49 CURVE SMOOTH",
"261 -49 OFFCURVE",
"252 -61 OFFCURVE",
"252 -61 CURVE",
"293 -7 LINE",
"340 -7 OFFCURVE",
"387 6 OFFCURVE",
"428 35 CURVE",
"464 65 OFFCURVE",
"468 72 OFFCURVE",
"477 90 CURVE",
"456 103 LINE",
"445 87 OFFCURVE",
"437 73 OFFCURVE",
"409 55 CURVE SMOOTH",
"389 41 OFFCURVE",
"366 35 OFFCURVE",
"341 35 CURVE SMOOTH",
"276 35 OFFCURVE",
"203 80 OFFCURVE",
"165 136 CURVE SMOOTH",
"137 175 OFFCURVE",
"119 229 OFFCURVE",
"119 280 CURVE SMOOTH",
"119 326 OFFCURVE",
"134 370 OFFCURVE",
"170 397 CURVE SMOOTH",
"190 412 OFFCURVE",
"214 418 OFFCURVE",
"238 418 CURVE SMOOTH",
"304 418 OFFCURVE",
"377 372 OFFCURVE",
"416 316 CURVE",
"475 355 LINE",
"439 428 OFFCURVE",
"373 459 OFFCURVE",
"305 459 CURVE SMOOTH",
"255 459 OFFCURVE",
"203 442 OFFCURVE",
"161 412 CURVE SMOOTH",
"99 368 OFFCURVE",
"63 296 OFFCURVE",
"63 222 CURVE SMOOTH",
"63 176 OFFCURVE",
"77 130 OFFCURVE",
"106 90 CURVE SMOOTH",
"136 47 OFFCURVE",
"179 17 OFFCURVE",
"227 3 CURVE",
"177 -90 LINE",
"207 -79 OFFCURVE",
"262 -68 OFFCURVE",
"298 -68 CURVE SMOOTH",
"320 -68 OFFCURVE",
"336 -72 OFFCURVE",
"336 -83 CURVE SMOOTH",
"336 -190 OFFCURVE",
"238 -262 OFFCURVE",
"198 -266 CURVE"
);
}
);
width = 536;
}
);
leftKerningGroup = o;
note = ccedilla;
rightKerningGroup = c;
unicode = 00E7;
},
{
glyphname = asciitilde;
lastChange = "2020-03-08 13:28:25 +0000";
layers = (
{
layerId = "543A10D7-AEBA-4506-A699-AAC0E38B8B94";
paths = (
{
closed = 1;
nodes = (
"92 189 OFFCURVE",
"146 244 OFFCURVE",
"196 244 CURVE SMOOTH",
"247 244 OFFCURVE",
"288 162 OFFCURVE",
"365 162 CURVE SMOOTH",
"433 162 OFFCURVE",
"492 274 OFFCURVE",
"492 274 CURVE",
"481 288 LINE",
"481 288 OFFCURVE",
"417 203 OFFCURVE",
"362 203 CURVE SMOOTH",
"306 203 OFFCURVE",
"279 292 OFFCURVE",
"197 292 CURVE SMOOTH",
"99 292 OFFCURVE",
"75 164 OFFCURVE",
"75 164 CURVE",
"92 162 LINE"
);
}
);
width = 567;
}
);
note = asciitilde;
unicode = 007E;
},
{
glyphname = tilde;
lastChange = "2020-03-08 13:28:25 +0000";
layers = (
{
layerId = "543A10D7-AEBA-4506-A699-AAC0E38B8B94";
paths = (
{
closed = 1;
nodes = (
"117 589 OFFCURVE",
"171 644 OFFCURVE",
"221 644 CURVE SMOOTH",
"272 644 OFFCURVE",
"313 562 OFFCURVE",
"390 562 CURVE SMOOTH",
"458 562 OFFCURVE",
"517 674 OFFCURVE",
"517 674 CURVE",
"506 688 LINE",
"506 688 OFFCURVE",
"442 603 OFFCURVE",
"387 603 CURVE SMOOTH",
"331 603 OFFCURVE",
"304 692 OFFCURVE",
"222 692 CURVE SMOOTH",
"124 692 OFFCURVE",
"100 564 OFFCURVE",
"100 564 CURVE",
"117 562 LINE"
);
}
);
width = 617;
}
);
note = tilde;
unicode = 02DC;
},
{
glyphname = Ccedilla;
lastChange = "2020-03-09 09:03:56 +0000";
layers = (
{
layerId = "543A10D7-AEBA-4506-A699-AAC0E38B8B94";
paths = (
{
closed = 1;
nodes = (
"392 -266 LINE SMOOTH",
"478 -266 OFFCURVE",
"581 -157 OFFCURVE",
"581 -78 CURVE SMOOTH",
"581 -62 OFFCURVE",
"556 -49 OFFCURVE",
"522 -49 CURVE SMOOTH",
"430 -49 OFFCURVE",
"421 -61 OFFCURVE",
"421 -61 CURVE",
"459 -6 LINE",
"546 -11 OFFCURVE",
"635 11 OFFCURVE",
"712 65 CURVE",
"701 81 LINE",
"653 47 OFFCURVE",
"595 32 OFFCURVE",
"536 32 CURVE SMOOTH",
"412 32 OFFCURVE",
"281 98 OFFCURVE",
"209 199 CURVE SMOOTH",
"162 265 OFFCURVE",
"137 355 OFFCURVE",
"137 443 CURVE SMOOTH",
"137 552 OFFCURVE",
"175 659 OFFCURVE",
"259 719 CURVE SMOOTH",
"309 754 OFFCURVE",
"366 770 OFFCURVE",
"426 770 CURVE SMOOTH",
"590 770 OFFCURVE",
"765 649 OFFCURVE",
"814 488 CURVE",
"826 488 LINE",
"826 491 OFFCURVE",
"808 600 OFFCURVE",
"808 637 CURVE SMOOTH",
"808 679 OFFCURVE",
"808 701 OFFCURVE",
"826 780 CURVE",
"814 780 LINE",
"807 737 OFFCURVE",
"793 705 OFFCURVE",
"769 683 CURVE",
"693 762 OFFCURVE",
"587 805 OFFCURVE",
"478 805 CURVE SMOOTH",
"400 805 OFFCURVE",
"320 782 OFFCURVE",
"250 733 CURVE SMOOTH",
"143 658 OFFCURVE",
"82 526 OFFCURVE",
"82 394 CURVE SMOOTH",
"82 312 OFFCURVE",
"105 230 OFFCURVE",
"155 160 CURVE SMOOTH",
"212 78 OFFCURVE",
"300 23 OFFCURVE",
"395 2 CURVE",
"346 -90 LINE",
"376 -79 OFFCURVE",
"431 -68 OFFCURVE",
"467 -68 CURVE SMOOTH",
"489 -68 OFFCURVE",
"505 -72 OFFCURVE",
"505 -83 CURVE SMOOTH",
"505 -190 OFFCURVE",
"407 -262 OFFCURVE",
"367 -266 CURVE"
);
}
);
width = 908;
}
);
leftKerningGroup = O;
note = Ccedilla;
rightKerningGroup = Ccedilla;
unicode = 00C7;
},
{
glyphname = Ntilde;
lastChange = "2020-03-09 09:03:56 +0000";
layers = (
{
layerId = "543A10D7-AEBA-4506-A699-AAC0E38B8B94";
paths = (
{
closed = 1;
nodes = (
"75 0 OFFCURVE",
"154 18 OFFCURVE",
"191 18 CURVE SMOOTH",
"233 18 OFFCURVE",
"225 18 OFFCURVE",
"304 0 CURVE",
"304 12 LINE",
"255 19 OFFCURVE",
"237 34 OFFCURVE",
"237 57 CURVE SMOOTH",
"237 87 OFFCURVE",
"267 131 OFFCURVE",
"299 191 CURVE SMOOTH",
"566 724 LINE",
"972 0 LINE",
"1022 0 LINE",
"1315 554 LINE SMOOTH",
"1369 652 OFFCURVE",
"1412 738 OFFCURVE",
"1523 755 CURVE",
"1523 767 LINE",
"1520 767 OFFCURVE",
"1441 749 OFFCURVE",
"1404 749 CURVE SMOOTH",
"1362 749 OFFCURVE",
"1370 749 OFFCURVE",
"1291 767 CURVE",
"1291 755 LINE",
"1340 748 OFFCURVE",
"1358 730 OFFCURVE",
"1358 703 CURVE SMOOTH",
"1358 669 OFFCURVE",
"1328 620 OFFCURVE",
"1296 560 CURVE SMOOTH",
"1017 31 LINE",
"586 806 LINE",
"280 197 LINE",
"226 99 OFFCURVE",
"183 29 OFFCURVE",
"72 12 CURVE",
"72 0 LINE"
);
},
{
closed = 1;
nodes = (
"796 840 OFFCURVE",
"850 895 OFFCURVE",
"900 895 CURVE SMOOTH",
"951 895 OFFCURVE",
"992 813 OFFCURVE",
"1069 813 CURVE SMOOTH",
"1137 813 OFFCURVE",
"1196 925 OFFCURVE",
"1196 925 CURVE",
"1185 939 LINE",
"1185 939 OFFCURVE",
"1121 854 OFFCURVE",
"1066 854 CURVE SMOOTH",
"1010 854 OFFCURVE",
"983 943 OFFCURVE",
"901 943 CURVE SMOOTH",
"803 943 OFFCURVE",
"779 815 OFFCURVE",
"779 815 CURVE",
"796 813 LINE"
);
}
);
width = 1595;
}
);
note = Ntilde;
unicode = 00D1;
},
{
glyphname = Otilde;
lastChange = "2020-03-09 09:05:17 +0000";
layers = (
{
layerId = "543A10D7-AEBA-4506-A699-AAC0E38B8B94";
paths = (
{
closed = 1;
nodes = (
"563 -6 OFFCURVE",
"643 17 OFFCURVE",
"712 66 CURVE SMOOTH",
"819 142 OFFCURVE",
"880 273 OFFCURVE",
"880 405 CURVE SMOOTH",
"880 486 OFFCURVE",
"857 568 OFFCURVE",
"807 638 CURVE SMOOTH",
"732 745 OFFCURVE",
"606 805 OFFCURVE",
"479 805 CURVE SMOOTH",
"400 805 OFFCURVE",
"320 782 OFFCURVE",
"250 733 CURVE SMOOTH",
"143 658 OFFCURVE",
"82 527 OFFCURVE",
"82 394 CURVE SMOOTH",
"82 313 OFFCURVE",
"105 231 OFFCURVE",
"155 161 CURVE SMOOTH",
"230 54 OFFCURVE",
"356 -6 OFFCURVE",
"484 -6 CURVE SMOOTH"
);
},
{
closed = 1;
nodes = (
"412 33 OFFCURVE",
"281 99 OFFCURVE",
"209 200 CURVE SMOOTH",
"162 266 OFFCURVE",
"137 355 OFFCURVE",
"137 442 CURVE SMOOTH",
"137 552 OFFCURVE",
"176 660 OFFCURVE",
"259 719 CURVE SMOOTH",
"307 753 OFFCURVE",
"365 768 OFFCURVE",
"424 768 CURVE SMOOTH",
"549 768 OFFCURVE",
"682 701 OFFCURVE",
"753 600 CURVE SMOOTH",
"800 534 OFFCURVE",
"824 446 OFFCURVE",
"824 360 CURVE SMOOTH",
"824 250 OFFCURVE",
"785 142 OFFCURVE",
"701 82 CURVE SMOOTH",
"653 48 OFFCURVE",
"595 33 OFFCURVE",
"536 33 CURVE SMOOTH"
);
},
{
closed = 1;
nodes = (
"283 868 OFFCURVE",
"337 923 OFFCURVE",
"387 923 CURVE SMOOTH",
"438 923 OFFCURVE",
"479 841 OFFCURVE",
"556 841 CURVE SMOOTH",
"624 841 OFFCURVE",
"683 953 OFFCURVE",
"683 953 CURVE",
"672 967 LINE",
"672 967 OFFCURVE",
"608 882 OFFCURVE",
"553 882 CURVE SMOOTH",
"497 882 OFFCURVE",
"470 971 OFFCURVE",
"388 971 CURVE SMOOTH",
"290 971 OFFCURVE",
"266 843 OFFCURVE",
"266 843 CURVE",
"283 841 LINE"
);
}
);
width = 962;
}
);
leftKerningGroup = O;
note = Otilde;
rightKerningGroup = O;
unicode = 00D5;
},
{
glyphname = atilde;
lastChange = "2020-03-09 09:03:56 +0000";
layers = (
{
layerId = "543A10D7-AEBA-4506-A699-AAC0E38B8B94";
paths = (
{
closed = 1;
nodes = (
"221 -7 OFFCURVE",
"325 67 OFFCURVE",
"330 81 CURVE",
"330 59 OFFCURVE",
"330 0 OFFCURVE",
"387 0 CURVE SMOOTH",
"480 0 OFFCURVE",
"524 65 OFFCURVE",
"527 65 CURVE",
"511 83 LINE",
"503 74 OFFCURVE",
"453 49 OFFCURVE",
"435 49 CURVE SMOOTH",
"411 49 OFFCURVE",
"395 72 OFFCURVE",
"395 175 CURVE SMOOTH",
"395 325 LINE SMOOTH",
"395 429 OFFCURVE",
"326 460 OFFCURVE",
"247 460 CURVE SMOOTH",
"140 460 OFFCURVE",
"55 410 OFFCURVE",
"55 351 CURVE",
"123 306 LINE",
"123 392 OFFCURVE",
"171 441 OFFCURVE",
"216 441 CURVE SMOOTH",
"275 441 OFFCURVE",
"330 390 OFFCURVE",
"330 298 CURVE",
"242 273 LINE SMOOTH",
"95 231 OFFCURVE",
"52 183 OFFCURVE",
"52 104 CURVE SMOOTH",
"52 24 OFFCURVE",
"102 -7 OFFCURVE",
"162 -7 CURVE SMOOTH"
);
},
{
closed = 1;
nodes = (
"158 47 OFFCURVE",
"111 70 OFFCURVE",
"111 147 CURVE SMOOTH",
"111 207 OFFCURVE",
"167 233 OFFCURVE",
"229 250 CURVE SMOOTH",
"330 278 LINE",
"330 278 OFFCURVE",
"330 260 OFFCURVE",
"330 236 CURVE SMOOTH",
"330 187 OFFCURVE",
"330 115 OFFCURVE",
"330 115 CURVE",
"330 97 OFFCURVE",
"255 50 OFFCURVE",
"219 49 CURVE SMOOTH"
);
},
{
closed = 1;
nodes = (
"41 572 OFFCURVE",
"95 627 OFFCURVE",
"145 627 CURVE SMOOTH",
"196 627 OFFCURVE",
"237 545 OFFCURVE",
"314 545 CURVE SMOOTH",
"382 545 OFFCURVE",
"441 657 OFFCURVE",
"441 657 CURVE",
"430 671 LINE",
"430 671 OFFCURVE",
"366 586 OFFCURVE",
"311 586 CURVE SMOOTH",
"255 586 OFFCURVE",
"228 675 OFFCURVE",
"146 675 CURVE SMOOTH",
"48 675 OFFCURVE",
"24 547 OFFCURVE",
"24 547 CURVE",
"41 545 LINE"
);
}
);
width = 538;
}
);
leftKerningGroup = a;
note = atilde;
unicode = 00E3;
},
{
glyphname = ntilde;
lastChange = "2020-03-09 09:03:56 +0000";
layers = (
{
layerId = "543A10D7-AEBA-4506-A699-AAC0E38B8B94";
paths = (
{
closed = 1;
nodes = (
"92 16 OFFCURVE",
"130 21 OFFCURVE",
"165 21 CURVE SMOOTH",
"211 21 OFFCURVE",
"252 13 OFFCURVE",
"298 3 CURVE",
"298 15 LINE",
"228 29 OFFCURVE",
"226 81 OFFCURVE",
"226 205 CURVE SMOOTH",
"226 207 OFFCURVE",
"225 432 OFFCURVE",
"394 432 CURVE SMOOTH",
"450 432 OFFCURVE",
"488 377 OFFCURVE",
"488 293 CURVE SMOOTH",
"488 234 LINE SMOOTH",
"488 103 OFFCURVE",
"490 29 OFFCURVE",
"416 15 CURVE",
"416 3 LINE",
"450 18 OFFCURVE",
"489 23 OFFCURVE",
"526 23 CURVE SMOOTH",
"600 23 OFFCURVE",
"666 3 OFFCURVE",
"668 3 CURVE",
"668 15 LINE",
"560 31 OFFCURVE",
"556 101 OFFCURVE",
"556 225 CURVE SMOOTH",
"556 311 LINE SMOOTH",
"556 428 OFFCURVE",
"481 460 OFFCURVE",
"413 460 CURVE SMOOTH",
"300 460 OFFCURVE",
"248 374 OFFCURVE",
"225 304 CURVE",
"225 440 LINE",
"206 440 LINE",
"161 406 OFFCURVE",
"113 388 OFFCURVE",
"46 388 CURVE",
"46 376 LINE",
"155 359 OFFCURVE",
"158 360 OFFCURVE",
"158 234 CURVE SMOOTH",
"158 103 OFFCURVE",
"157 32 OFFCURVE",
"46 15 CURVE",
"46 3 LINE"
);
},
{
closed = 1;
nodes = (
"135 572 OFFCURVE",
"189 627 OFFCURVE",
"239 627 CURVE SMOOTH",
"290 627 OFFCURVE",
"331 545 OFFCURVE",
"408 545 CURVE SMOOTH",
"476 545 OFFCURVE",
"535 657 OFFCURVE",
"535 657 CURVE",
"524 671 LINE",
"524 671 OFFCURVE",
"460 586 OFFCURVE",
"405 586 CURVE SMOOTH",
"349 586 OFFCURVE",
"322 675 OFFCURVE",
"240 675 CURVE SMOOTH",
"142 675 OFFCURVE",
"118 547 OFFCURVE",
"118 547 CURVE",
"135 545 LINE"
);
}
);
width = 712;
}
);
leftKerningGroup = i;
note = ntilde;
rightKerningGroup = i;
unicode = 00F1;
},
{
glyphname = otilde;
lastChange = "2020-03-09 09:05:17 +0000";
layers = (
{
layerId = "543A10D7-AEBA-4506-A699-AAC0E38B8B94";
paths = (
{
closed = 1;
nodes = (
"335 -7 OFFCURVE",
"381 6 OFFCURVE",
"421 35 CURVE SMOOTH",
"483 79 OFFCURVE",
"518 153 OFFCURVE",
"518 229 CURVE SMOOTH",
"518 275 OFFCURVE",
"505 322 OFFCURVE",
"476 362 CURVE SMOOTH",
"432 424 OFFCURVE",
"360 459 OFFCURVE",
"287 459 CURVE SMOOTH",
"241 459 OFFCURVE",
"195 446 OFFCURVE",
"154 417 CURVE SMOOTH",
"92 373 OFFCURVE",
"56 299 OFFCURVE",
"56 224 CURVE SMOOTH",
"56 177 OFFCURVE",
"70 130 OFFCURVE",
"99 90 CURVE SMOOTH",
"142 28 OFFCURVE",
"215 -7 OFFCURVE",
"289 -7 CURVE SMOOTH"
);
},
{
closed = 1;
nodes = (
"269 34 OFFCURVE",
"196 80 OFFCURVE",
"158 136 CURVE SMOOTH",
"130 175 OFFCURVE",
"112 231 OFFCURVE",
"112 282 CURVE SMOOTH",
"112 330 OFFCURVE",
"127 375 OFFCURVE",
"163 402 CURVE SMOOTH",
"183 417 OFFCURVE",
"207 423 OFFCURVE",
"231 423 CURVE SMOOTH",
"297 423 OFFCURVE",
"370 377 OFFCURVE",
"409 321 CURVE SMOOTH",
"436 280 OFFCURVE",
"454 225 OFFCURVE",
"454 174 CURVE SMOOTH",
"454 126 OFFCURVE",
"439 82 OFFCURVE",
"402 55 CURVE SMOOTH",
"382 40 OFFCURVE",
"359 34 OFFCURVE",
"335 34 CURVE SMOOTH"
);
},
{
closed = 1;
nodes = (
"96 572 OFFCURVE",
"150 627 OFFCURVE",
"200 627 CURVE SMOOTH",
"251 627 OFFCURVE",
"292 545 OFFCURVE",
"369 545 CURVE SMOOTH",
"437 545 OFFCURVE",
"496 657 OFFCURVE",
"496 657 CURVE",
"485 671 LINE",
"485 671 OFFCURVE",
"421 586 OFFCURVE",
"366 586 CURVE SMOOTH",
"310 586 OFFCURVE",
"283 675 OFFCURVE",
"201 675 CURVE SMOOTH",
"103 675 OFFCURVE",
"79 547 OFFCURVE",
"79 547 CURVE",
"96 545 LINE"
);
}
);
width = 574;
}
);
leftKerningGroup = o;
note = otilde;
rightKerningGroup = o;
unicode = 00F5;
},
{
glyphname = sterling;
lastChange = "2020-03-09 09:03:56 +0000";
layers = (
{
layerId = "543A10D7-AEBA-4506-A699-AAC0E38B8B94";
paths = (
{
closed = 1;
nodes = (
"195 -3 OFFCURVE",
"236 51 OFFCURVE",
"302 51 CURVE SMOOTH",
"354 51 OFFCURVE",
"375 0 OFFCURVE",
"450 0 CURVE SMOOTH",
"480 0 OFFCURVE",
"593 3 OFFCURVE",
"593 129 CURVE",
"581 129 LINE",
"581 69 OFFCURVE",
"506 68 OFFCURVE",
"471 68 CURVE SMOOTH",
"399 68 OFFCURVE",
"393 117 OFFCURVE",
"317 117 CURVE SMOOTH",
"295 117 OFFCURVE",
"280 109 OFFCURVE",
"263 91 CURVE",
"294 154 OFFCURVE",
"305 235 OFFCURVE",
"309 293 CURVE",
"498 293 LINE",
"498 307 LINE",
"310 307 LINE",
"311 321 OFFCURVE",
"312 333 OFFCURVE",
"312 343 CURVE",
"496 343 LINE",
"496 356 LINE",
"312 356 LINE",
"312 364 LINE SMOOTH",
"314 555 OFFCURVE",
"315 578 OFFCURVE",
"316 579 CURVE",
"316 585 LINE SMOOTH",
"316 647 OFFCURVE",
"324 692 OFFCURVE",
"346 718 CURVE SMOOTH",
"361 736 OFFCURVE",
"393 746 OFFCURVE",
"426 746 CURVE SMOOTH",
"478 746 OFFCURVE",
"534 721 OFFCURVE",
"534 666 CURVE SMOOTH",
"534 654 OFFCURVE",
"531 640 OFFCURVE",
"525 625 CURVE",
"525 625 OFFCURVE",
"581 646 OFFCURVE",
"581 681 CURVE SMOOTH",
"581 757 OFFCURVE",
"539 781 OFFCURVE",
"489 781 CURVE SMOOTH",
"432 781 OFFCURVE",
"364 749 OFFCURVE",
"335 726 CURVE SMOOTH",
"278 680 OFFCURVE",
"246 602 OFFCURVE",
"246 497 CURVE",
"244 449 OFFCURVE",
"244 409 OFFCURVE",
"244 356 CURVE",
"174 356 LINE",
"174 343 LINE",
"244 343 LINE",
"244 307 LINE",
"175 307 LINE",
"175 293 LINE",
"244 293 LINE",
"244 223 LINE SMOOTH",
"244 92 OFFCURVE",
"244 26 OFFCURVE",
"133 9 CURVE",
"133 -3 LINE"
);
}
);
width = 696;
}
);
note = sterling;
unicode = 00A3;
},
{
glyphname = exclamdown;
lastChange = "2020-03-08 13:28:25 +0000";
layers = (
{
layerId = "543A10D7-AEBA-4506-A699-AAC0E38B8B94";
paths = (
{
closed = 1;
nodes = (
"211 -285 OFFCURVE",
"233 -285 OFFCURVE",
"275 -285 CURVE SMOOTH",
"312 -285 OFFCURVE",
"421 -303 OFFCURVE",
"424 -303 CURVE",
"424 -291 LINE",
"313 -274 OFFCURVE",
"312 -201 OFFCURVE",
"312 -70 CURVE SMOOTH",
"312 288 LINE",
"243 286 LINE",
"244 -72 LINE SMOOTH",
"244 -203 OFFCURVE",
"243 -274 OFFCURVE",
"132 -291 CURVE",
"132 -303 LINE"
);
},
{
closed = 1;
nodes = (
"306 362 OFFCURVE",
"329 384 OFFCURVE",
"329 412 CURVE SMOOTH",
"329 440 OFFCURVE",
"306 463 OFFCURVE",
"278 463 CURVE SMOOTH",
"250 463 OFFCURVE",
"228 440 OFFCURVE",
"228 412 CURVE SMOOTH",
"228 384 OFFCURVE",
"250 362 OFFCURVE",
"278 362 CURVE SMOOTH"
);
}
);
width = 556;
}
);
note = exclamdown;
unicode = 00A1;
},
{
glyphname = question;
lastChange = "2020-03-08 13:28:25 +0000";
layers = (
{
layerId = "543A10D7-AEBA-4506-A699-AAC0E38B8B94";
paths = (
{
closed = 1;
nodes = (
"242 176 OFFCURVE",
"242 201 OFFCURVE",
"242 201 CURVE",
"242 444 OFFCURVE",
"399 467 OFFCURVE",
"399 601 CURVE SMOOTH",
"399 700 OFFCURVE",
"352 761 OFFCURVE",
"230 761 CURVE SMOOTH",
"150 761 OFFCURVE",
"121 704 OFFCURVE",
"106 704 CURVE SMOOTH",
"91 704 OFFCURVE",
"83 736 OFFCURVE",
"83 772 CURVE",
"70 771 LINE",
"71 770 OFFCURVE",
"81 728 OFFCURVE",
"81 691 CURVE SMOOTH",
"81 644 OFFCURVE",
"60 574 OFFCURVE",
"60 574 CURVE",
"75 574 LINE",
"75 632 OFFCURVE",
"115 744 OFFCURVE",
"215 744 CURVE SMOOTH",
"292 744 OFFCURVE",
"329 670 OFFCURVE",
"329 601 CURVE SMOOTH",
"329 431 OFFCURVE",
"198 442 OFFCURVE",
"198 201 CURVE",
"198 201 OFFCURVE",
"198 176 OFFCURVE",
"220 176 CURVE SMOOTH"
);
},
{
closed = 1;
nodes = (
"248 -1 OFFCURVE",
"271 22 OFFCURVE",
"271 50 CURVE SMOOTH",
"271 78 OFFCURVE",
"248 100 OFFCURVE",
"220 100 CURVE SMOOTH",
"192 100 OFFCURVE",
"170 78 OFFCURVE",
"170 50 CURVE SMOOTH",
"170 22 OFFCURVE",
"192 -1 OFFCURVE",
"220 -1 CURVE SMOOTH"
);
}
);
width = 489;
}
);
note = question;
unicode = 003F;
},
{
glyphname = questiondown;
lastChange = "2020-03-08 13:28:25 +0000";
layers = (
{
layerId = "543A10D7-AEBA-4506-A699-AAC0E38B8B94";
paths = (
{
closed = 1;
nodes = (
"421 -311 LINE",
"420 -310 OFFCURVE",
"410 -268 OFFCURVE",
"410 -231 CURVE SMOOTH",
"410 -184 OFFCURVE",
"431 -114 OFFCURVE",
"431 -114 CURVE SMOOTH",
"416 -114 LINE",
"416 -172 OFFCURVE",
"376 -284 OFFCURVE",
"276 -284 CURVE SMOOTH",
"199 -284 OFFCURVE",
"162 -210 OFFCURVE",
"162 -141 CURVE SMOOTH",
"162 29 OFFCURVE",
"293 18 OFFCURVE",
"293 259 CURVE",
"293 259 OFFCURVE",
"293 284 OFFCURVE",
"271 284 CURVE SMOOTH",
"249 284 OFFCURVE",
"249 259 OFFCURVE",
"249 259 CURVE",
"249 16 OFFCURVE",
"92 -7 OFFCURVE",
"92 -141 CURVE SMOOTH",
"92 -240 OFFCURVE",
"139 -301 OFFCURVE",
"261 -301 CURVE SMOOTH",
"341 -301 OFFCURVE",
"370 -244 OFFCURVE",
"385 -244 CURVE SMOOTH",
"400 -244 OFFCURVE",
"408 -276 OFFCURVE",
"408 -312 CURVE"
);
},
{
closed = 1;
nodes = (
"299 360 OFFCURVE",
"321 382 OFFCURVE",
"321 410 CURVE SMOOTH",
"321 438 OFFCURVE",
"299 461 OFFCURVE",
"271 461 CURVE SMOOTH",
"243 461 OFFCURVE",
"220 438 OFFCURVE",
"220 410 CURVE SMOOTH",
"220 382 OFFCURVE",
"243 360 OFFCURVE",
"271 360 CURVE SMOOTH"
);
}
);
width = 513;
}
);
note = questiondown;
unicode = 00BF;
},
{
glyphname = lslash;
lastChange = "2020-03-08 13:28:25 +0000";
layers = (
{
layerId = "543A10D7-AEBA-4506-A699-AAC0E38B8B94";
paths = (
{
closed = 1;
nodes = (
"121 21 OFFCURVE",
"143 21 OFFCURVE",
"185 21 CURVE SMOOTH",
"222 21 OFFCURVE",
"331 3 OFFCURVE",
"334 3 CURVE",
"334 15 LINE",
"226 31 OFFCURVE",
"221 92 OFFCURVE",
"221 232 CURVE SMOOTH",
"221 345 LINE",
"319 415 LINE",
"311 426 LINE",
"221 362 LINE",
"221 613 LINE SMOOTH",
"221 630 OFFCURVE",
"221 712 OFFCURVE",
"231 750 CURVE",
"202 750 LINE",
"157 716 OFFCURVE",
"109 698 OFFCURVE",
"42 698 CURVE",
"42 686 LINE",
"151 669 OFFCURVE",
"153 655 OFFCURVE",
"153 529 CURVE SMOOTH",
"153 314 LINE",
"47 240 LINE",
"55 228 LINE",
"153 297 LINE",
"153 229 LINE SMOOTH",
"153 98 OFFCURVE",
"153 32 OFFCURVE",
"42 15 CURVE",
"42 3 LINE"
);
}
);
width = 376;
}
);
leftKerningGroup = l;
note = lslash;
unicode = 0142;
},
{
glyphname = dagger;
lastChange = "2020-03-08 13:28:25 +0000";
layers = (
{
layerId = "543A10D7-AEBA-4506-A699-AAC0E38B8B94";
paths = (
{
closed = 1;
nodes = (
"248 -317 LINE",
"248 -287 OFFCURVE",
"280 -153 OFFCURVE",
"280 257 CURVE SMOOTH",
"280 388 OFFCURVE",
"281 398 OFFCURVE",
"392 415 CURVE",
"392 427 LINE",
"389 427 OFFCURVE",
"326 412 OFFCURVE",
"280 407 CURVE",
"281 618 LINE",
"305 618 LINE",
"305 640 LINE",
"185 640 LINE",
"185 618 LINE",
"210 618 LINE",
"212 409 LINE",
"185 410 OFFCURVE",
"158 414 OFFCURVE",
"100 427 CURVE",
"100 415 LINE",
"211 398 OFFCURVE",
"212 387 OFFCURVE",
"212 256 CURVE SMOOTH",
"212 -194 OFFCURVE",
"240 -287 OFFCURVE",
"240 -317 CURVE"
);
}
);
width = 492;
}
);
note = dagger;
unicode = 2020;
},
{
glyphname = daggerdbl;
lastChange = "2020-03-08 13:28:25 +0000";
layers = (
{
layerId = "543A10D7-AEBA-4506-A699-AAC0E38B8B94";
paths = (
{
closed = 1;
nodes = (
"244 -294 OFFCURVE",
"257 -252 OFFCURVE",
"267 -130 CURVE",
"307 -130 LINE",
"307 -108 LINE",
"282 -108 LINE",
"280 101 LINE",
"307 100 OFFCURVE",
"334 96 OFFCURVE",
"392 83 CURVE",
"392 95 LINE",
"281 112 OFFCURVE",
"280 123 OFFCURVE",
"280 254 CURVE SMOOTH",
"280 293 LINE SMOOTH",
"281 390 OFFCURVE",
"292 399 OFFCURVE",
"392 415 CURVE",
"392 427 LINE",
"389 427 OFFCURVE",
"326 412 OFFCURVE",
"280 407 CURVE",
"281 618 LINE",
"313 618 LINE",
"313 640 LINE",
"269 640 LINE",
"260 762 OFFCURVE",
"250 805 OFFCURVE",
"249 824 CURVE",
"248 804 OFFCURVE",
"235 762 OFFCURVE",
"225 640 CURVE",
"185 640 LINE",
"185 618 LINE",
"210 618 LINE",
"212 409 LINE",
"185 410 OFFCURVE",
"158 414 OFFCURVE",
"100 427 CURVE",
"100 415 LINE",
"201 399 OFFCURVE",
"211 388 OFFCURVE",
"212 286 CURVE SMOOTH",
"212 253 LINE SMOOTH",
"212 122 OFFCURVE",
"211 112 OFFCURVE",
"100 95 CURVE",
"100 83 LINE",
"103 83 OFFCURVE",
"166 98 OFFCURVE",
"212 103 CURVE",
"211 -108 LINE",
"179 -108 LINE",
"179 -130 LINE",
"223 -130 LINE",
"231 -252 OFFCURVE",
"242 -295 OFFCURVE",
"243 -314 CURVE"
);
}
);
width = 492;
}
);
note = daggerdbl;
unicode = 2021;
},
{
glyphname = germandbls;
lastChange = "2020-03-09 09:03:56 +0000";
layers = (
{
layerId = "543A10D7-AEBA-4506-A699-AAC0E38B8B94";
paths = (
{
closed = 1;
nodes = (
"61 -796 OFFCURVE",
"125 -798 OFFCURVE",
"125 -436 CURVE SMOOTH",
"125 -394 OFFCURVE",
"161 224 OFFCURVE",
"161 364 CURVE SMOOTH",
"165 658 OFFCURVE",
"165 553 OFFCURVE",
"165 585 CURVE SMOOTH",
"165 647 OFFCURVE",
"173 692 OFFCURVE",
"195 718 CURVE SMOOTH",
"210 736 OFFCURVE",
"243 746 OFFCURVE",
"277 746 CURVE SMOOTH",
"328 746 OFFCURVE",
"382 723 OFFCURVE",
"382 671 CURVE SMOOTH",
"382 559 OFFCURVE",
"228 435 OFFCURVE",
"228 334 CURVE SMOOTH",
"228 303 OFFCURVE",
"243 263 OFFCURVE",
"269 247 CURVE SMOOTH",
"282 239 OFFCURVE",
"284 231 OFFCURVE",
"461 175 CURVE",
"509 153 OFFCURVE",
"504 114 OFFCURVE",
"505 114 CURVE",
"505 38 OFFCURVE",
"426 9 OFFCURVE",
"381 9 CURVE SMOOTH",
"314 9 OFFCURVE",
"214 74 OFFCURVE",
"208 109 CURVE",
"208 12 LINE",
"248 12 OFFCURVE",
"310 -8 OFFCURVE",
"358 -8 CURVE SMOOTH",
"461 -8 OFFCURVE",
"569 42 OFFCURVE",
"569 140 CURVE SMOOTH",
"569 201 OFFCURVE",
"537 241 OFFCURVE",
"480 257 CURVE SMOOTH",
"345 299 LINE SMOOTH",
"306 312 OFFCURVE",
"278 323 OFFCURVE",
"278 347 CURVE SMOOTH",
"278 403 OFFCURVE",
"430 559 OFFCURVE",
"430 681 CURVE SMOOTH",
"430 757 OFFCURVE",
"388 781 OFFCURVE",
"338 781 CURVE SMOOTH",
"281 781 OFFCURVE",
"213 749 OFFCURVE",
"184 726 CURVE SMOOTH",
"127 680 OFFCURVE",
"95 602 OFFCURVE",
"95 497 CURVE SMOOTH",
"93 416 OFFCURVE",
"93 -402 OFFCURVE",
"93 -588 CURVE SMOOTH",
"93 -719 OFFCURVE",
"93 -785 OFFCURVE",
"-18 -802 CURVE",
"-18 -814 LINE"
);
}
);
width = 621;
}
);
note = germandbls;
rightKerningGroup = germandbls;
unicode = 00DF;
},
{
glyphname = one;
lastChange = "2020-03-08 13:28:25 +0000";
layers = (
{
layerId = "543A10D7-AEBA-4506-A699-AAC0E38B8B94";
paths = (
{
closed = 1;
nodes = (
"151 21 OFFCURVE",
"173 21 OFFCURVE",
"215 21 CURVE SMOOTH",
"252 21 OFFCURVE",
"361 3 OFFCURVE",
"364 3 CURVE",
"364 15 LINE",
"253 32 OFFCURVE",
"252 105 OFFCURVE",
"252 236 CURVE SMOOTH",
"252 745 LINE",
"195 745 LINE SMOOTH",
"188 745 OFFCURVE",
"168 721 OFFCURVE",
"42 685 CURVE",
"42 673 LINE",
"183 697 LINE",
"184 234 LINE SMOOTH",
"184 103 OFFCURVE",
"183 32 OFFCURVE",
"72 15 CURVE",
"72 3 LINE"
);
}
);
width = 406;
}
);
note = one;
unicode = 0031;
},
{
glyphname = two;
lastChange = "2020-03-09 09:03:56 +0000";
layers = (
{
layerId = "543A10D7-AEBA-4506-A699-AAC0E38B8B94";
paths = (
{
closed = 1;
nodes = (
"540 0 LINE",
"540 37 OFFCURVE",
"585 195 OFFCURVE",
"585 198 CURVE",
"573 198 LINE",
"565 76 OFFCURVE",
"444 53 OFFCURVE",
"368 53 CURVE SMOOTH",
"113 53 LINE",
"211 134 OFFCURVE",
"453 333 OFFCURVE",
"456 335 CURVE",
"512 384 OFFCURVE",
"550 461 OFFCURVE",
"550 538 CURVE SMOOTH",
"550 581 OFFCURVE",
"538 624 OFFCURVE",
"511 662 CURVE SMOOTH",
"470 721 OFFCURVE",
"403 759 OFFCURVE",
"334 759 CURVE SMOOTH",
"263 759 OFFCURVE",
"198 731 OFFCURVE",
"138 686 CURVE",
"121 706 OFFCURVE",
"110 727 OFFCURVE",
"103 770 CURVE",
"91 770 LINE",
"105 720 OFFCURVE",
"110 677 OFFCURVE",
"110 637 CURVE SMOOTH",
"110 585 OFFCURVE",
"102 536 OFFCURVE",
"91 478 CURVE",
"103 478 LINE",
"106 492 OFFCURVE",
"143 720 OFFCURVE",
"269 724 CURVE SMOOTH",
"325 724 OFFCURVE",
"391 698 OFFCURVE",
"444 621 CURVE SMOOTH",
"470 582 OFFCURVE",
"486 529 OFFCURVE",
"486 479 CURVE SMOOTH",
"486 430 OFFCURVE",
"471 384 OFFCURVE",
"437 355 CURVE SMOOTH",
"72 53 LINE",
"72 0 LINE"
);
}
);
width = 652;
}
);
note = two;
unicode = 0032;
},
{
glyphname = brokenbar;
lastChange = "2020-03-08 13:28:25 +0000";
layers = (
{
layerId = "543A10D7-AEBA-4506-A699-AAC0E38B8B94";
paths = (
{
closed = 1;
nodes = (
"136 313 LINE",
"136 746 LINE",
"122 746 LINE",
"122 313 LINE"
);
},
{
closed = 1;
nodes = (
"136 -277 LINE",
"136 156 LINE",
"122 156 LINE",
"122 -277 LINE"
);
}
);
width = 263;
}
);
note = brokenbar;
unicode = 00A6;
},
{
glyphname = periodcentered;
lastChange = "2020-03-08 13:28:25 +0000";
layers = (
{
layerId = "543A10D7-AEBA-4506-A699-AAC0E38B8B94";
paths = (
{
closed = 1;
nodes = (
"178 199 OFFCURVE",
"201 222 OFFCURVE",
"201 250 CURVE SMOOTH",
"201 278 OFFCURVE",
"178 300 OFFCURVE",
"150 300 CURVE SMOOTH",
"122 300 OFFCURVE",
"100 278 OFFCURVE",
"100 250 CURVE SMOOTH",
"100 222 OFFCURVE",
"122 199 OFFCURVE",
"150 199 CURVE SMOOTH"
);
}
);
width = 301;
}
);
note = periodcentered;
unicode = 00B7;
},
{
glyphname = quotedblright;
lastChange = "2020-03-09 09:03:56 +0000";
layers = (
{
layerId = "543A10D7-AEBA-4506-A699-AAC0E38B8B94";
paths = (
{
closed = 1;
nodes = (
"372 468 OFFCURVE",
"451 520 OFFCURVE",
"451 605 CURVE SMOOTH",
"451 619 OFFCURVE",
"450 634 OFFCURVE",
"440 646 CURVE SMOOTH",
"430 657 OFFCURVE",
"416 663 OFFCURVE",
"402 663 CURVE SMOOTH",
"390 663 OFFCURVE",
"378 659 OFFCURVE",
"368 651 CURVE",
"359 643 OFFCURVE",
"350 632 OFFCURVE",
"350 612 CURVE SMOOTH",
"350 578 OFFCURVE",
"383 578 OFFCURVE",
"383 543 CURVE SMOOTH",
"383 516 OFFCURVE",
"338 481 OFFCURVE",
"311 481 CURVE",
"316 468 LINE"
);
},
{
closed = 1;
nodes = (
"172 468 OFFCURVE",
"251 520 OFFCURVE",
"251 605 CURVE SMOOTH",
"251 619 OFFCURVE",
"250 634 OFFCURVE",
"240 646 CURVE SMOOTH",
"230 657 OFFCURVE",
"216 663 OFFCURVE",
"202 663 CURVE SMOOTH",
"190 663 OFFCURVE",
"178 659 OFFCURVE",
"168 651 CURVE",
"159 643 OFFCURVE",
"150 632 OFFCURVE",
"150 612 CURVE SMOOTH",
"150 578 OFFCURVE",
"183 578 OFFCURVE",
"183 543 CURVE SMOOTH",
"183 516 OFFCURVE",
"138 481 OFFCURVE",
"111 481 CURVE",
"116 468 LINE"
);
}
);
width = 583;
}
);
note = quotedblright;
unicode = 201D;
},
{
glyphname = quotedblleft;
lastChange = "2020-03-09 09:05:17 +0000";
layers = (
{
layerId = "543A10D7-AEBA-4506-A699-AAC0E38B8B94";
paths = (
{
closed = 1;
nodes = (
"312 674 OFFCURVE",
"324 678 OFFCURVE",
"334 686 CURVE",
"343 694 OFFCURVE",
"352 705 OFFCURVE",
"352 725 CURVE SMOOTH",
"352 759 OFFCURVE",
"319 759 OFFCURVE",
"319 794 CURVE SMOOTH",
"319 821 OFFCURVE",
"364 856 OFFCURVE",
"391 856 CURVE",
"386 869 LINE",
"330 869 OFFCURVE",
"251 817 OFFCURVE",
"251 732 CURVE SMOOTH",
"251 718 OFFCURVE",
"252 703 OFFCURVE",
"262 691 CURVE SMOOTH",
"272 680 OFFCURVE",
"286 674 OFFCURVE",
"300 674 CURVE SMOOTH"
);
},
{
closed = 1;
nodes = (
"112 674 OFFCURVE",
"124 678 OFFCURVE",
"134 686 CURVE",
"143 694 OFFCURVE",
"152 705 OFFCURVE",
"152 725 CURVE SMOOTH",
"152 759 OFFCURVE",
"119 759 OFFCURVE",
"119 794 CURVE SMOOTH",
"119 821 OFFCURVE",
"164 856 OFFCURVE",
"191 856 CURVE",
"186 869 LINE",
"130 869 OFFCURVE",
"51 817 OFFCURVE",
"51 732 CURVE SMOOTH",
"51 718 OFFCURVE",
"52 703 OFFCURVE",
"62 691 CURVE SMOOTH",
"72 680 OFFCURVE",
"86 674 OFFCURVE",
"100 674 CURVE SMOOTH"
);
}
);
width = 550;
}
);
note = quotedblleft;
unicode = 201C;
},
{
glyphname = quoteleft;
lastChange = "2020-03-09 09:05:17 +0000";
layers = (
{
layerId = "543A10D7-AEBA-4506-A699-AAC0E38B8B94";
paths = (
{
closed = 1;
nodes = (
"106 669 OFFCURVE",
"118 673 OFFCURVE",
"128 681 CURVE",
"137 689 OFFCURVE",
"146 700 OFFCURVE",
"146 720 CURVE SMOOTH",
"146 754 OFFCURVE",
"113 754 OFFCURVE",
"113 789 CURVE SMOOTH",
"113 816 OFFCURVE",
"158 851 OFFCURVE",
"185 851 CURVE",
"180 864 LINE",
"124 864 OFFCURVE",
"45 812 OFFCURVE",
"45 727 CURVE SMOOTH",
"45 713 OFFCURVE",
"46 698 OFFCURVE",
"56 686 CURVE SMOOTH",
"66 675 OFFCURVE",
"80 669 OFFCURVE",
"94 669 CURVE SMOOTH"
);
}
);
width = 379;
}
);
note = quoteleft;
unicode = 2018;
},
{
glyphname = quoteright;
lastChange = "2020-03-09 09:03:56 +0000";
layers = (
{
layerId = "543A10D7-AEBA-4506-A699-AAC0E38B8B94";
paths = (
{
closed = 1;
nodes = (
"103 471 OFFCURVE",
"182 523 OFFCURVE",
"182 608 CURVE SMOOTH",
"182 622 OFFCURVE",
"181 637 OFFCURVE",
"171 649 CURVE SMOOTH",
"161 660 OFFCURVE",
"147 666 OFFCURVE",
"133 666 CURVE SMOOTH",
"121 666 OFFCURVE",
"109 662 OFFCURVE",
"99 654 CURVE",
"90 646 OFFCURVE",
"81 635 OFFCURVE",
"81 615 CURVE SMOOTH",
"81 581 OFFCURVE",
"114 581 OFFCURVE",
"114 546 CURVE SMOOTH",
"114 519 OFFCURVE",
"69 484 OFFCURVE",
"42 484 CURVE",
"47 471 LINE"
);
}
);
width = 224;
}
);
leftKerningGroup = quoteright;
note = quoteright;
rightKerningGroup = quoteright;
unicode = 2019;
},
{
glyphname = quotesingle;
lastChange = "2020-03-08 13:28:25 +0000";
layers = (
{
layerId = "543A10D7-AEBA-4506-A699-AAC0E38B8B94";
paths = (
{
closed = 1;
nodes = (
"114 586 LINE",
"171 751 LINE",
"166 764 LINE",
"42 586 LINE"
);
}
);
width = 213;
}
);
leftKerningGroup = quoteright;
note = quotesingle;
rightKerningGroup = quoteright;
unicode = 0027;
},
{
glyphname = quotedbl;
lastChange = "2020-03-08 13:28:25 +0000";
layers = (
{
layerId = "543A10D7-AEBA-4506-A699-AAC0E38B8B94";
paths = (
{
closed = 1;
nodes = (
"328 586 LINE",
"385 751 LINE",
"380 764 LINE",
"256 586 LINE"
);
},
{
closed = 1;
nodes = (
"188 586 LINE",
"245 751 LINE",
"240 764 LINE",
"116 586 LINE"
);
}
);
width = 532;
}
);
note = quotedbl;
unicode = 0022;
},
{
glyphname = hungarumlaut;
lastChange = "2019-06-01 07:09:47 +0000";
layers = (
{
layerId = "543A10D7-AEBA-4506-A699-AAC0E38B8B94";
paths = (
{
closed = 1;
nodes = (
"499 551 OFFCURVE",
"584 569 OFFCURVE",
"604 586 CURVE SMOOTH",
"615 595 OFFCURVE",
"622 609 OFFCURVE",
"622 624 CURVE SMOOTH",
"622 652 OFFCURVE",
"599 675 OFFCURVE",
"571 675 CURVE SMOOTH",
"530 675 OFFCURVE",
"505 569 OFFCURVE",
"441 569 CURVE SMOOTH",
"435 569 OFFCURVE",
"437 557 OFFCURVE",
"435 551 CURVE"
);
},
{
closed = 1;
nodes = (
"164 551 OFFCURVE",
"249 569 OFFCURVE",
"269 586 CURVE SMOOTH",
"280 595 OFFCURVE",
"287 609 OFFCURVE",
"287 624 CURVE SMOOTH",
"287 652 OFFCURVE",
"264 675 OFFCURVE",
"236 675 CURVE SMOOTH",
"195 675 OFFCURVE",
"170 569 OFFCURVE",
"106 569 CURVE SMOOTH",
"100 569 OFFCURVE",
"102 557 OFFCURVE",
"100 551 CURVE"
);
}
);
width = 722;
}
);
note = hungarumlaut;
unicode = 02DD;
},
{
glyphname = perthousand;
lastChange = "2020-03-08 13:28:25 +0000";
layers = (
{
layerId = "543A10D7-AEBA-4506-A699-AAC0E38B8B94";
paths = (
{
closed = 1;
nodes = (
"728 750 LINE",
"720 759 LINE",
"112 155 LINE",
"122 144 LINE"
);
},
{
closed = 1;
nodes = (
"455 -1 OFFCURVE",
"506 70 OFFCURVE",
"506 157 CURVE SMOOTH",
"506 245 OFFCURVE",
"455 320 OFFCURVE",
"391 320 CURVE SMOOTH",
"328 320 OFFCURVE",
"277 245 OFFCURVE",
"277 157 CURVE SMOOTH",
"277 70 OFFCURVE",
"328 -1 OFFCURVE",
"391 -1 CURVE SMOOTH"
);
},
{
closed = 1;
nodes = (
"345 17 OFFCURVE",
"338 70 OFFCURVE",
"338 157 CURVE SMOOTH",
"338 245 OFFCURVE",
"345 302 OFFCURVE",
"391 302 CURVE SMOOTH",
"437 302 OFFCURVE",
"444 245 OFFCURVE",
"444 157 CURVE SMOOTH",
"444 70 OFFCURVE",
"437 17 OFFCURVE",
"391 17 CURVE SMOOTH"
);
},
{
closed = 1;
nodes = (
"285 429 OFFCURVE",
"336 500 OFFCURVE",
"336 587 CURVE SMOOTH",
"336 675 OFFCURVE",
"285 750 OFFCURVE",
"221 750 CURVE SMOOTH",
"158 750 OFFCURVE",
"107 675 OFFCURVE",
"107 587 CURVE SMOOTH",
"107 500 OFFCURVE",
"158 429 OFFCURVE",
"221 429 CURVE SMOOTH"
);
},
{
closed = 1;
nodes = (
"175 447 OFFCURVE",
"168 500 OFFCURVE",
"168 587 CURVE SMOOTH",
"168 675 OFFCURVE",
"175 732 OFFCURVE",
"221 732 CURVE SMOOTH",
"267 732 OFFCURVE",
"274 675 OFFCURVE",
"274 587 CURVE SMOOTH",
"274 500 OFFCURVE",
"267 447 OFFCURVE",
"221 447 CURVE SMOOTH"
);
},
{
closed = 1;
nodes = (
"715 -1 OFFCURVE",
"766 70 OFFCURVE",
"766 157 CURVE SMOOTH",
"766 245 OFFCURVE",
"715 320 OFFCURVE",
"651 320 CURVE SMOOTH",
"588 320 OFFCURVE",
"537 245 OFFCURVE",
"537 157 CURVE SMOOTH",
"537 70 OFFCURVE",
"588 -1 OFFCURVE",
"651 -1 CURVE SMOOTH"
);
},
{
closed = 1;
nodes = (
"605 17 OFFCURVE",
"598 70 OFFCURVE",
"598 157 CURVE SMOOTH",
"598 245 OFFCURVE",
"605 302 OFFCURVE",
"651 302 CURVE SMOOTH",
"697 302 OFFCURVE",
"704 245 OFFCURVE",
"704 157 CURVE SMOOTH",
"704 70 OFFCURVE",
"697 17 OFFCURVE",
"651 17 CURVE SMOOTH"
);
}
);
width = 863;
}
);
note = perthousand;
unicode = 2030;
},
{
glyphname = bullet;
lastChange = "2020-03-09 09:03:56 +0000";
layers = (
{
layerId = "543A10D7-AEBA-4506-A699-AAC0E38B8B94";
paths = (
{
closed = 1;
nodes = (
"151 190 OFFCURVE",
"160 192 OFFCURVE",
"170 200 CURVE SMOOTH",
"198 220 OFFCURVE",
"178 247 OFFCURVE",
"206 267 CURVE SMOOTH",
"212 272 OFFCURVE",
"222 274 OFFCURVE",
"232 274 CURVE SMOOTH",
"257 274 OFFCURVE",
"288 262 OFFCURVE",
"299 246 CURVE",
"321 219 OFFCURVE",
"364 196 OFFCURVE",
"409 196 CURVE SMOOTH",
"435 196 OFFCURVE",
"462 204 OFFCURVE",
"486 221 CURVE SMOOTH",
"500 232 OFFCURVE",
"514 243 OFFCURVE",
"514 266 CURVE SMOOTH",
"514 288 OFFCURVE",
"498 309 OFFCURVE",
"475 316 CURVE",
"471 317 OFFCURVE",
"467 317 OFFCURVE",
"462 317 CURVE SMOOTH",
"453 317 OFFCURVE",
"443 315 OFFCURVE",
"432 307 CURVE SMOOTH",
"405 287 OFFCURVE",
"424 261 OFFCURVE",
"396 240 CURVE SMOOTH",
"390 235 OFFCURVE",
"380 233 OFFCURVE",
"370 233 CURVE SMOOTH",
"346 233 OFFCURVE",
"316 245 OFFCURVE",
"305 260 CURVE",
"304 261 LINE",
"304 262 LINE",
"281 289 OFFCURVE",
"239 311 OFFCURVE",
"194 311 CURVE SMOOTH",
"168 311 OFFCURVE",
"141 304 OFFCURVE",
"116 286 CURVE SMOOTH",
"105 278 OFFCURVE",
"93 268 OFFCURVE",
"90 253 CURVE",
"89 249 OFFCURVE",
"88 245 OFFCURVE",
"88 241 CURVE SMOOTH",
"88 213 OFFCURVE",
"112 190 OFFCURVE",
"142 190 CURVE SMOOTH"
);
}
);
width = 607;
}
);
note = bullet;
unicode = 2022;
},
{
glyphname = degree;
lastChange = "2020-03-08 13:28:25 +0000";
layers = (
{
layerId = "543A10D7-AEBA-4506-A699-AAC0E38B8B94";
paths = (
{
closed = 1;
nodes = (
"204 484 OFFCURVE",
"237 515 OFFCURVE",
"237 554 CURVE SMOOTH",
"237 593 OFFCURVE",
"204 626 OFFCURVE",
"165 626 CURVE SMOOTH",
"126 626 OFFCURVE",
"95 593 OFFCURVE",
"95 554 CURVE SMOOTH",
"95 515 OFFCURVE",
"126 484 OFFCURVE",
"165 484 CURVE SMOOTH"
);
},
{
closed = 1;
nodes = (
"137 504 OFFCURVE",
"115 526 OFFCURVE",
"115 554 CURVE SMOOTH",
"115 582 OFFCURVE",
"137 605 OFFCURVE",
"165 605 CURVE SMOOTH",
"193 605 OFFCURVE",
"216 582 OFFCURVE",
"216 554 CURVE SMOOTH",
"216 526 OFFCURVE",
"193 504 OFFCURVE",
"165 504 CURVE SMOOTH"
);
}
);
width = 342;
}
);
note = degree;
unicode = 00B0;
},
{
glyphname = registered;
lastChange = "2020-03-08 13:28:25 +0000";
layers = (
{
layerId = "543A10D7-AEBA-4506-A699-AAC0E38B8B94";
paths = (
{
closed = 1;
nodes = (
"490 86 OFFCURVE",
"615 204 OFFCURVE",
"615 352 CURVE SMOOTH",
"615 500 OFFCURVE",
"490 626 OFFCURVE",
"341 626 CURVE SMOOTH",
"193 626 OFFCURVE",
"75 500 OFFCURVE",
"75 352 CURVE SMOOTH",
"75 204 OFFCURVE",
"193 86 OFFCURVE",
"341 86 CURVE SMOOTH"
);
},
{
closed = 1;
nodes = (
"203 105 OFFCURVE",
"94 214 OFFCURVE",
"94 351 CURVE SMOOTH",
"94 490 OFFCURVE",
"203 603 OFFCURVE",
"340 603 CURVE SMOOTH",
"479 603 OFFCURVE",
"592 490 OFFCURVE",
"592 351 CURVE SMOOTH",
"592 214 OFFCURVE",
"479 105 OFFCURVE",
"340 105 CURVE SMOOTH"
);
},
{
closed = 1;
nodes = (
"223 225 OFFCURVE",
"238 225 OFFCURVE",
"266 225 CURVE SMOOTH",
"292 225 OFFCURVE",
"338 213 OFFCURVE",
"340 213 CURVE",
"340 221 LINE",
"293 231 OFFCURVE",
"292 299 OFFCURVE",
"292 350 CURVE SMOOTH",
"292 351 OFFCURVE",
"290 503 OFFCURVE",
"395 503 CURVE SMOOTH",
"426 503 OFFCURVE",
"449 482 OFFCURVE",
"449 424 CURVE",
"495 454 LINE",
"495 494 OFFCURVE",
"444 522 OFFCURVE",
"398 522 CURVE SMOOTH",
"318 522 OFFCURVE",
"291 433 OFFCURVE",
"291 385 CURVE",
"291 509 LINE",
"278 509 LINE",
"248 486 OFFCURVE",
"215 473 OFFCURVE",
"170 473 CURVE",
"170 465 LINE",
"243 454 OFFCURVE",
"245 454 OFFCURVE",
"245 369 CURVE SMOOTH",
"245 281 OFFCURVE",
"245 233 OFFCURVE",
"170 221 CURVE",
"170 213 LINE"
);
}
);
width = 690;
}
);
leftKerningGroup = o;
note = registered;
rightKerningGroup = o;
unicode = 00AE;
},
{
glyphname = copyright;
lastChange = "2020-03-09 09:03:56 +0000";
layers = (
{
layerId = "543A10D7-AEBA-4506-A699-AAC0E38B8B94";
paths = (
{
closed = 1;
nodes = (
"490 86 OFFCURVE",
"615 204 OFFCURVE",
"615 352 CURVE SMOOTH",
"615 500 OFFCURVE",
"490 626 OFFCURVE",
"341 626 CURVE SMOOTH",
"193 626 OFFCURVE",
"75 500 OFFCURVE",
"75 352 CURVE SMOOTH",
"75 204 OFFCURVE",
"193 86 OFFCURVE",
"341 86 CURVE SMOOTH"
);
},
{
closed = 1;
nodes = (
"374 205 OFFCURVE",
"402 213 OFFCURVE",
"427 231 CURVE",
"450 250 OFFCURVE",
"452 254 OFFCURVE",
"458 266 CURVE",
"445 274 LINE",
"438 264 OFFCURVE",
"433 255 OFFCURVE",
"415 244 CURVE",
"402 235 OFFCURVE",
"388 232 OFFCURVE",
"372 232 CURVE SMOOTH",
"331 232 OFFCURVE",
"285 259 OFFCURVE",
"261 295 CURVE SMOOTH",
"244 321 OFFCURVE",
"232 355 OFFCURVE",
"232 387 CURVE SMOOTH",
"232 416 OFFCURVE",
"242 442 OFFCURVE",
"264 459 CURVE SMOOTH",
"277 469 OFFCURVE",
"292 473 OFFCURVE",
"308 473 CURVE SMOOTH",
"349 473 OFFCURVE",
"395 444 OFFCURVE",
"419 408 CURVE",
"457 433 LINE",
"434 479 OFFCURVE",
"392 499 OFFCURVE",
"349 499 CURVE SMOOTH",
"317 499 OFFCURVE",
"285 488 OFFCURVE",
"258 469 CURVE SMOOTH",
"219 441 OFFCURVE",
"196 396 OFFCURVE",
"196 350 CURVE SMOOTH",
"196 321 OFFCURVE",
"205 291 OFFCURVE",
"224 266 CURVE SMOOTH",
"253 227 OFFCURVE",
"299 205 OFFCURVE",
"345 205 CURVE SMOOTH"
);
},
{
closed = 1;
nodes = (
"203 105 OFFCURVE",
"94 214 OFFCURVE",
"94 351 CURVE SMOOTH",
"94 490 OFFCURVE",
"203 603 OFFCURVE",
"340 603 CURVE SMOOTH",
"479 603 OFFCURVE",
"592 490 OFFCURVE",
"592 351 CURVE SMOOTH",
"592 214 OFFCURVE",
"479 105 OFFCURVE",
"340 105 CURVE SMOOTH"
);
}
);
width = 690;
}
);
note = copyright;
unicode = 00A9;
},
{
glyphname = currency;
lastChange = "2020-03-08 13:28:25 +0000";
layers = (
{
layerId = "543A10D7-AEBA-4506-A699-AAC0E38B8B94";
paths = (
{
closed = 1;
nodes = (
"440 86 OFFCURVE",
"507 115 OFFCURVE",
"557 162 CURVE",
"626 94 LINE",
"635 104 LINE",
"567 172 LINE",
"612 219 OFFCURVE",
"640 282 OFFCURVE",
"640 352 CURVE SMOOTH",
"640 423 OFFCURVE",
"611 489 OFFCURVE",
"564 539 CURVE",
"639 614 LINE",
"630 624 LINE",
"554 548 LINE",
"505 596 OFFCURVE",
"438 626 OFFCURVE",
"366 626 CURVE SMOOTH",
"296 626 OFFCURVE",
"233 598 OFFCURVE",
"186 553 CURVE",
"110 629 LINE",
"100 620 LINE",
"176 543 LINE",
"129 493 OFFCURVE",
"100 425 OFFCURVE",
"100 352 CURVE SMOOTH",
"100 280 OFFCURVE",
"128 215 OFFCURVE",
"173 167 CURVE",
"104 98 LINE",
"114 89 LINE",
"183 158 LINE",
"230 113 OFFCURVE",
"295 86 OFFCURVE",
"366 86 CURVE SMOOTH"
);
},
{
closed = 1;
nodes = (
"228 105 OFFCURVE",
"119 214 OFFCURVE",
"119 351 CURVE SMOOTH",
"119 490 OFFCURVE",
"228 603 OFFCURVE",
"365 603 CURVE SMOOTH",
"504 603 OFFCURVE",
"617 490 OFFCURVE",
"617 351 CURVE SMOOTH",
"617 214 OFFCURVE",
"504 105 OFFCURVE",
"365 105 CURVE SMOOTH"
);
}
);
width = 740;
}
);
note = currency;
unicode = 00A4;
},
{
glyphname = eth;
lastChange = "2020-03-09 09:05:17 +0000";
layers = (
{
layerId = "543A10D7-AEBA-4506-A699-AAC0E38B8B94";
paths = (
{
closed = 1;
nodes = (
"336 -7 OFFCURVE",
"381 7 OFFCURVE",
"421 35 CURVE SMOOTH",
"467 68 OFFCURVE",
"498 118 OFFCURVE",
"511 167 CURVE SMOOTH",
"526 212 OFFCURVE",
"533 262 OFFCURVE",
"533 310 CURVE SMOOTH",
"533 427 OFFCURVE",
"481 563 OFFCURVE",
"392 658 CURVE",
"472 715 LINE",
"464 726 LINE",
"382 668 LINE",
"316 735 OFFCURVE",
"231 780 OFFCURVE",
"132 780 CURVE",
"106 740 LINE",
"113 747 OFFCURVE",
"128 752 OFFCURVE",
"147 752 CURVE SMOOTH",
"227 752 OFFCURVE",
"300 711 OFFCURVE",
"357 651 CURVE",
"200 540 LINE",
"208 528 LINE",
"367 640 LINE",
"434 564 OFFCURVE",
"476 439 OFFCURVE",
"476 342 CURVE",
"451 404 OFFCURVE",
"359 459 OFFCURVE",
"286 459 CURVE SMOOTH",
"240 459 OFFCURVE",
"194 446 OFFCURVE",
"154 417 CURVE SMOOTH",
"92 373 OFFCURVE",
"56 299 OFFCURVE",
"56 224 CURVE SMOOTH",
"56 177 OFFCURVE",
"70 130 OFFCURVE",
"99 90 CURVE SMOOTH",
"144 29 OFFCURVE",
"216 -7 OFFCURVE",
"290 -7 CURVE SMOOTH"
);
},
{
closed = 1;
nodes = (
"269 34 OFFCURVE",
"196 80 OFFCURVE",
"158 136 CURVE SMOOTH",
"131 176 OFFCURVE",
"113 232 OFFCURVE",
"113 284 CURVE SMOOTH",
"113 331 OFFCURVE",
"128 375 OFFCURVE",
"163 402 CURVE SMOOTH",
"183 417 OFFCURVE",
"206 424 OFFCURVE",
"231 424 CURVE SMOOTH",
"296 424 OFFCURVE",
"370 377 OFFCURVE",
"409 321 CURVE SMOOTH",
"436 281 OFFCURVE",
"454 226 OFFCURVE",
"454 175 CURVE SMOOTH",
"454 127 OFFCURVE",
"439 82 OFFCURVE",
"402 55 CURVE SMOOTH",
"382 40 OFFCURVE",
"359 34 OFFCURVE",
"335 34 CURVE SMOOTH"
);
}
);
width = 579;
}
);
leftKerningGroup = o;
note = eth;
unicode = 00F0;
},
{
glyphname = Thorn;
lastChange = "2020-03-08 13:28:25 +0000";
layers = (
{
layerId = "543A10D7-AEBA-4506-A699-AAC0E38B8B94";
paths = (
{
closed = 1;
nodes = (
"205 161 LINE",
"267 112 OFFCURVE",
"323 114 OFFCURVE",
"384 114 CURVE SMOOTH",
"429 114 OFFCURVE",
"475 127 OFFCURVE",
"514 155 CURVE SMOOTH",
"576 199 OFFCURVE",
"611 272 OFFCURVE",
"611 345 CURVE SMOOTH",
"611 391 OFFCURVE",
"598 437 OFFCURVE",
"569 477 CURVE SMOOTH",
"525 539 OFFCURVE",
"453 574 OFFCURVE",
"380 574 CURVE SMOOTH",
"334 574 OFFCURVE",
"288 561 OFFCURVE",
"247 532 CURVE SMOOTH",
"231 521 OFFCURVE",
"217 508 OFFCURVE",
"205 493 CURVE",
"205 623 LINE SMOOTH",
"205 640 OFFCURVE",
"205 722 OFFCURVE",
"215 760 CURVE",
"186 760 LINE",
"141 726 OFFCURVE",
"93 708 OFFCURVE",
"26 708 CURVE",
"26 696 LINE",
"135 679 OFFCURVE",
"137 665 OFFCURVE",
"137 539 CURVE SMOOTH",
"137 349 LINE",
"136 1 LINE",
"210 0 LINE"
);
},
{
closed = 1;
nodes = (
"341 154 OFFCURVE",
"244 199 OFFCURVE",
"206 255 CURVE",
"206 391 LINE",
"204 441 OFFCURVE",
"218 488 OFFCURVE",
"256 517 CURVE SMOOTH",
"276 532 OFFCURVE",
"300 538 OFFCURVE",
"324 538 CURVE SMOOTH",
"390 538 OFFCURVE",
"463 492 OFFCURVE",
"502 436 CURVE SMOOTH",
"529 395 OFFCURVE",
"547 342 OFFCURVE",
"547 292 CURVE SMOOTH",
"547 245 OFFCURVE",
"532 202 OFFCURVE",
"495 175 CURVE SMOOTH",
"475 160 OFFCURVE",
"448 154 OFFCURVE",
"419 154 CURVE SMOOTH"
);
}
);
width = 667;
}
);
leftKerningGroup = b;
note = Thorn;
unicode = 00DE;
},
